SplineFontDB: 3.2
FontName: Pretension-SemiBoldItalic
FullName: Pretension SemiBold Italic
FamilyName: Pretension SemiBold
Weight: Demi
Copyright: Copyright 2016 The Inter Project Authors
Version: 4.000;git-a52131595
ItalicAngle: -9.39999
UnderlinePosition: -337
UnderlineWidth: 178
Ascent: 1638
Descent: 410
InvalidEm: 0
sfntRevision: 0x00040000
LayerCount: 2
Layer: 0 1 "Back" 1
Layer: 1 1 "Fore" 0
XUID: [1021 89 -1234937351 14601856]
StyleMap: 0x0001
FSType: 0
OS2Version: 4
OS2_WeightWidthSlopeOnly: 0
OS2_UseTypoMetrics: 1
CreationTime: 1700438797
ModificationTime: 1707841919
PfmFamily: 17
TTFWeight: 600
TTFWidth: 5
LineGap: 0
VLineGap: 0
Panose: 2 0 5 3 0 0 0 2 0 4
OS2TypoAscent: 1984
OS2TypoAOffset: 0
OS2TypoDescent: -494
OS2TypoDOffset: 0
OS2TypoLinegap: 0
OS2WinAscent: 1984
OS2WinAOffset: 0
OS2WinDescent: 494
OS2WinDOffset: 0
HheadAscent: 1984
HheadAOffset: 0
HheadDescent: -494
HheadDOffset: 0
OS2SubXSize: 1331
OS2SubYSize: 1229
OS2SubXOff: -25
OS2SubYOff: 154
OS2SupXSize: 1331
OS2SupYSize: 1229
OS2SupXOff: 119
OS2SupYOff: 717
OS2StrikeYSize: 178
OS2StrikeYPos: 653
OS2CapHeight: 1490
OS2XHeight: 1087
OS2Vendor: 'RSMS'
OS2CodePages: 0000019f.00000000
OS2UnicodeRanges: e0000aff.5200a1ff.00000021.00000000
Lookup: 1 0 0 "'aalt' Access All Alternates in Latin lookup 0" { "'aalt' Access All Alternates in Latin lookup 0 subtable"  } ['aalt' ('DFLT' <'dflt' > 'latn' <'CAT ' 'MOL ' 'ROM ' 'dflt' > ) ]
Lookup: 3 0 0 "'aalt' Access All Alternates in Latin lookup 1" { "'aalt' Access All Alternates in Latin lookup 1 subtable"  } ['aalt' ('DFLT' <'dflt' > 'latn' <'CAT ' 'MOL ' 'ROM ' 'dflt' > ) ]
Lookup: 1 0 0 "Single Substitution lookup 2" { "Single Substitution lookup 2 subtable"  } []
Lookup: 4 0 0 "'ccmp' Glyph Composition/Decomposition in Latin lookup 3" { "'ccmp' Glyph Composition/Decomposition in Latin lookup 3 subtable"  } ['ccmp' ('DFLT' <'dflt' > 'latn' <'CAT ' 'MOL ' 'ROM ' 'dflt' > ) ]

StartChar: .notdef
Encoding: 1114112 -1 0
Width: 1344
Flags: W
LayerCount: 2
Fore
SplineSet
858 -416 m 1,0,-1
 170 -416 l 1,1,-1
 546 1856 l 1,2,-1
 1234 1856 l 1,3,-1
 858 -416 l 1,0,-1
391 -192 m 1,4,-1
 381 -256 l 1,5,-1
 701 -256 l 1,6,-1
 711 -192 l 1,7,-1
 496 -192 l 1,8,-1
 732 -65 l 1,9,-1
 743 0 l 1,10,-1
 423 0 l 1,11,-1
 412 -64 l 1,12,-1
 628 -64 l 1,13,-1
 391 -192 l 1,4,-1
476 320 m 1,14,-1
 434 64 l 1,15,-1
 754 64 l 1,16,-1
 796 320 l 1,17,-1
 476 320 l 1,14,-1
700 128 m 1,18,-1
 508 128 l 1,19,-1
 529 256 l 1,20,-1
 721 256 l 1,21,-1
 700 128 l 1,18,-1
540 704 m 1,22,-1
 497 448 l 1,23,-1
 817 448 l 1,24,-1
 860 704 l 1,25,-1
 668 704 l 1,26,-1
 646 576 l 1,27,-1
 710 576 l 1,28,-1
 721 640 l 1,29,-1
 785 640 l 1,30,-1
 764 512 l 1,31,-1
 572 512 l 1,32,-1
 604 704 l 1,33,-1
 540 704 l 1,22,-1
561 832 m 1,34,-1
 550 768 l 1,35,-1
 870 768 l 1,36,-1
 907 992 l 1,37,-1
 843 992 l 1,38,-1
 817 832 l 1,39,-1
 561 832 l 1,34,-1
582 960 m 1,40,-1
 571 896 l 1,41,-1
 763 896 l 1,42,-1
 790 1056 l 1,43,-1
 918 1056 l 1,44,-1
 928 1120 l 1,45,-1
 608 1120 l 1,46,-1
 598 1056 l 1,47,-1
 726 1056 l 1,48,-1
 710 960 l 1,49,-1
 582 960 l 1,40,-1
758 1248 m 1,50,-1
 694 1248 l 1,51,-1
 709 1344 l 1,52,-1
 773 1344 l 1,53,-1
 758 1248 l 1,50,-1
656 1408 m 1,54,-1
 619 1184 l 1,55,-1
 939 1184 l 1,56,-1
 950 1248 l 1,57,-1
 822 1248 l 1,58,-1
 848 1408 l 1,59,-1
 656 1408 l 1,54,-1
677 1536 m 1,60,-1
 667 1472 l 1,61,-1
 987 1472 l 1,62,-1
 997 1536 l 1,63,-1
 853 1536 l 1,64,-1
 869 1632 l 1,65,-1
 1013 1632 l 1,66,-1
 1024 1696 l 1,67,-1
 704 1696 l 1,68,-1
 693 1632 l 1,69,-1
 805 1632 l 1,70,-1
 789 1536 l 1,71,-1
 677 1536 l 1,60,-1
EndSplineSet
EndChar

StartChar: A
Encoding: 65 65 2
Width: 1456
GlyphClass: 2
Flags: W
AnchorPoint: "Anchor-4" 1334 0 basechar 0
AnchorPoint: "Anchor-1" 885 1490 basechar 0
AnchorPoint: "Anchor-0" 638 0 basechar 0
LayerCount: 2
Fore
SplineSet
-59 0 m 1,0,-1
 715 1490 l 1,1,-1
 1051 1490 l 1,2,-1
 1334 0 l 1,3,-1
 1053 0 l 1,4,-1
 919 778 l 2,5,6
 902 897 902 897 882.5 1044.5 c 128,-1,7
 863 1192 863 1192 841 1384 c 1,8,-1
 906 1384 l 1,9,10
 824 1194 824 1194 757.5 1047.5 c 128,-1,11
 691 901 691 901 632 778 c 2,12,-1
 240 0 l 1,13,-1
 -59 0 l 1,0,-1
311 363 m 1,14,-1
 347 579 l 1,15,-1
 1121 579 l 1,16,-1
 1085 363 l 1,17,-1
 311 363 l 1,14,-1
EndSplineSet
Substitution2: "'c2sc' Capitals to Small Capitals in Latin lookup 67 subtable" a.sc
Substitution2: "'ss06' Style Set 6 in Latin lookup 52 subtable" A.squared
Substitution2: "'ss05' Style Set 5 in Latin lookup 51 subtable" uni24B6
Substitution2: "Single Substitution lookup 44 subtable" ordfeminine
AlternateSubs2: "'aalt' Access All Alternates in Latin lookup 1 subtable" ordfeminine a.sc
Position2: "'cpsp' Capital Spacing in Latin lookup 0 subtable" dx=0 dy=0 dh=0 dv=0
EndChar

StartChar: uni023A
Encoding: 570 570 46
Width: 1456
GlyphClass: 2
Flags: W
AnchorPoint: "Anchor-4" 1334 0 basechar 0
AnchorPoint: "Anchor-1" 885 1490 basechar 0
AnchorPoint: "Anchor-0" 638 0 basechar 0
LayerCount: 2
Fore
SplineSet
1322 1678 m 1,0,-1
 385 -190 l 1,1,-1
 251 -190 l 1,2,-1
 1188 1678 l 1,3,-1
 1322 1678 l 1,0,-1
-59 0 m 1,4,-1
 715 1490 l 1,5,-1
 1051 1490 l 1,6,-1
 1334 0 l 1,7,-1
 1053 0 l 1,8,-1
 919 778 l 2,9,10
 902 897 902 897 882.5 1044.5 c 128,-1,11
 863 1192 863 1192 841 1384 c 1,12,-1
 906 1384 l 1,13,14
 824 1194 824 1194 757.5 1047.5 c 128,-1,15
 691 901 691 901 632 778 c 2,16,-1
 240 0 l 1,17,-1
 -59 0 l 1,4,-1
311 363 m 1,18,-1
 347 579 l 1,19,-1
 1121 579 l 1,20,-1
 1085 363 l 1,21,-1
 311 363 l 1,18,-1
EndSplineSet
Position2: "'cpsp' Capital Spacing in Latin lookup 0 subtable" dx=0 dy=0 dh=0 dv=0
EndChar

StartChar: Lambda
Encoding: 923 923 60
Width: 1456
GlyphClass: 2
Flags: W
AnchorPoint: "Anchor-1" 885 1490 basechar 0
AnchorPoint: "Anchor-0" 638 0 basechar 0
LayerCount: 2
Fore
SplineSet
-59 0 m 1,0,-1
 715 1490 l 1,1,-1
 1051 1490 l 1,2,-1
 1334 0 l 1,3,-1
 1053 0 l 1,4,-1
 919 778 l 2,5,6
 901 897 901 897 882 1044.5 c 128,-1,7
 863 1192 863 1192 841 1384 c 1,8,-1
 906 1384 l 1,9,10
 824 1194 824 1194 757.5 1047.5 c 128,-1,11
 691 901 691 901 632 778 c 2,12,-1
 240 0 l 1,13,-1
 -59 0 l 1,0,-1
EndSplineSet
Position2: "'cpsp' Capital Spacing in Latin lookup 0 subtable" dx=0 dy=0 dh=0 dv=0
EndChar

StartChar: AE
Encoding: 198 198 61
Width: 2033
GlyphClass: 2
Flags: W
AnchorPoint: "Anchor-1" 1473 1490 basechar 0
LayerCount: 2
Fore
SplineSet
-59 0 m 1,0,-1
 843 1490 l 1,1,-1
 2090 1490 l 1,2,-1
 2053 1265 l 1,3,-1
 1351 1265 l 1,4,-1
 1284 858 l 1,5,-1
 1927 858 l 1,6,-1
 1890 638 l 1,7,-1
 1247 638 l 1,8,-1
 1179 226 l 1,9,-1
 1886 226 l 1,10,-1
 1849 0 l 1,11,-1
 879 0 l 1,12,-1
 1086 1249 l 1,13,-1
 967 1249 l 1,14,-1
 226 0 l 1,15,-1
 -59 0 l 1,0,-1
349 382 m 1,16,-1
 385 595 l 1,17,-1
 1101 595 l 1,18,-1
 1066 382 l 1,19,-1
 349 382 l 1,16,-1
EndSplineSet
Position2: "'cpsp' Capital Spacing in Latin lookup 0 subtable" dx=0 dy=0 dh=0 dv=0
EndChar

StartChar: B
Encoding: 66 66 65
Width: 1333
GlyphClass: 2
Flags: W
AnchorPoint: "Anchor-1" 800 1490 basechar 0
AnchorPoint: "Anchor-0" 559 0 basechar 0
LayerCount: 2
Fore
SplineSet
47 0 m 1,0,-1
 294 1490 l 1,1,-1
 860 1490 l 2,2,3
 1019 1490 1019 1490 1120.5 1438.5 c 128,-1,4
 1222 1387 1222 1387 1265 1296.5 c 128,-1,5
 1308 1206 1308 1206 1288 1088 c 0,6,7
 1274 1004 1274 1004 1230 942.5 c 128,-1,8
 1186 881 1186 881 1119.5 840.5 c 128,-1,9
 1053 800 1053 800 974 779 c 1,10,-1
 974 773 l 1,11,12
 1057 765 1057 765 1122 718.5 c 128,-1,13
 1187 672 1187 672 1218.5 591 c 128,-1,14
 1250 510 1250 510 1232 398 c 0,15,16
 1213 280 1213 280 1142 190.5 c 128,-1,17
 1071 101 1071 101 949.5 50.5 c 128,-1,18
 828 0 828 0 657 0 c 2,19,-1
 47 0 l 1,0,-1
347 219 m 1,20,-1
 644 219 l 2,21,22
 787 219 787 219 869.5 280 c 128,-1,23
 952 341 952 341 968 440 c 0,24,25
 979 506 979 506 955 555 c 128,-1,26
 931 604 931 604 875 630.5 c 128,-1,27
 819 657 819 657 736 657 c 2,28,-1
 420 657 l 1,29,-1
 347 219 l 1,20,-1
453 857 m 1,30,-1
 734 857 l 2,31,32
 807 857 807 857 868 884.5 c 128,-1,33
 929 912 929 912 970 962.5 c 128,-1,34
 1011 1013 1011 1013 1022 1080 c 0,35,36
 1037 1167 1037 1167 985.5 1220 c 128,-1,37
 934 1273 934 1273 817 1273 c 2,38,-1
 521 1273 l 1,39,-1
 453 857 l 1,30,-1
EndSplineSet
Substitution2: "'ss06' Style Set 6 in Latin lookup 52 subtable" B.squared
Substitution2: "'ss05' Style Set 5 in Latin lookup 51 subtable" uni24B7
Position2: "'cpsp' Capital Spacing in Latin lookup 0 subtable" dx=0 dy=0 dh=0 dv=0
EndChar

StartChar: uni0181
Encoding: 385 385 70
Width: 1685
GlyphClass: 2
Flags: W
AnchorPoint: "Anchor-1" 1152 1490 basechar 0
AnchorPoint: "Anchor-0" 911 0 basechar 0
LayerCount: 2
Fore
SplineSet
130 1060 m 1,0,-1
 149 1177 l 2,1,2
 175 1331 175 1331 271.5 1410.5 c 128,-1,3
 368 1490 368 1490 539 1490 c 2,4,-1
 646 1490 l 1,5,-1
 608 1266 l 1,6,-1
 526 1266 l 2,7,8
 466 1266 466 1266 433.5 1240 c 128,-1,9
 401 1214 401 1214 392 1158 c 2,10,-1
 376 1060 l 1,11,-1
 130 1060 l 1,0,-1
399 0 m 1,12,-1
 646 1490 l 1,13,-1
 1212 1490 l 2,14,15
 1371 1490 1371 1490 1472.5 1438.5 c 128,-1,16
 1574 1387 1574 1387 1617 1296.5 c 128,-1,17
 1660 1206 1660 1206 1640 1088 c 0,18,19
 1626 1004 1626 1004 1582 942.5 c 128,-1,20
 1538 881 1538 881 1471.5 840.5 c 128,-1,21
 1405 800 1405 800 1326 779 c 1,22,-1
 1326 773 l 1,23,24
 1409 765 1409 765 1474 718.5 c 128,-1,25
 1539 672 1539 672 1570.5 591 c 128,-1,26
 1602 510 1602 510 1584 398 c 0,27,28
 1565 280 1565 280 1494 190.5 c 128,-1,29
 1423 101 1423 101 1301.5 50.5 c 128,-1,30
 1180 0 1180 0 1009 0 c 2,31,-1
 399 0 l 1,12,-1
699 219 m 1,32,-1
 996 219 l 2,33,34
 1139 219 1139 219 1221.5 280 c 128,-1,35
 1304 341 1304 341 1320 440 c 0,36,37
 1331 506 1331 506 1307 555 c 128,-1,38
 1283 604 1283 604 1227 630.5 c 128,-1,39
 1171 657 1171 657 1088 657 c 2,40,-1
 772 657 l 1,41,-1
 699 219 l 1,32,-1
805 857 m 1,42,-1
 1086 857 l 2,43,44
 1159 857 1159 857 1220 884.5 c 128,-1,45
 1281 912 1281 912 1322 962.5 c 128,-1,46
 1363 1013 1363 1013 1374 1080 c 0,47,48
 1389 1167 1389 1167 1337.5 1220 c 128,-1,49
 1286 1273 1286 1273 1169 1273 c 2,50,-1
 873 1273 l 1,51,-1
 805 857 l 1,42,-1
EndSplineSet
Position2: "'cpsp' Capital Spacing in Latin lookup 0 subtable" dx=0 dy=0 dh=0 dv=0
EndChar

StartChar: C
Encoding: 67 67 73
Width: 1499
GlyphClass: 2
Flags: W
AnchorPoint: "Anchor-3" 678 -1 basechar 0
AnchorPoint: "Anchor-1" 928 1490 basechar 0
LayerCount: 2
Fore
SplineSet
700 -22 m 0,0,1
 522 -22 522 -22 389 52 c 128,-1,2
 256 126 256 126 183 262.5 c 128,-1,3
 110 399 110 399 110 589 c 0,4,5
 110 769 110 769 167 935 c 128,-1,6
 224 1101 224 1101 331.5 1231 c 128,-1,7
 439 1361 439 1361 589.5 1436.5 c 128,-1,8
 740 1512 740 1512 926 1512 c 0,9,10
 1052 1512 1052 1512 1156 1476.5 c 128,-1,11
 1260 1441 1260 1441 1335 1373 c 128,-1,12
 1410 1305 1410 1305 1449.5 1207.5 c 128,-1,13
 1489 1110 1489 1110 1488 987 c 1,14,-1
 1220 987 l 1,15,16
 1218 1055 1218 1055 1195.5 1108.5 c 128,-1,17
 1173 1162 1173 1162 1134 1199 c 128,-1,18
 1095 1236 1095 1236 1040.5 1255 c 128,-1,19
 986 1274 986 1274 919 1274 c 0,20,21
 789 1274 789 1274 687.5 1215 c 128,-1,22
 586 1156 586 1156 516.5 1057 c 128,-1,23
 447 958 447 958 411 836.5 c 128,-1,24
 375 715 375 715 375 592 c 0,25,26
 375 473 375 473 415.5 388.5 c 128,-1,27
 456 304 456 304 532 260 c 128,-1,28
 608 216 608 216 714 216 c 0,29,30
 787 216 787 216 852.5 235.5 c 128,-1,31
 918 255 918 255 973.5 292 c 128,-1,32
 1029 329 1029 329 1071.5 381.5 c 128,-1,33
 1114 434 1114 434 1140 503 c 1,34,-1
 1409 503 l 1,35,36
 1373 388 1373 388 1305.5 292.5 c 128,-1,37
 1238 197 1238 197 1145 126.5 c 128,-1,38
 1052 56 1052 56 939.5 17 c 128,-1,39
 827 -22 827 -22 700 -22 c 0,0,1
EndSplineSet
Substitution2: "'ss06' Style Set 6 in Latin lookup 52 subtable" C.squared
Substitution2: "'ss05' Style Set 5 in Latin lookup 51 subtable" uni24B8
Position2: "'cpsp' Capital Spacing in Latin lookup 0 subtable" dx=0 dy=0 dh=0 dv=0
EndChar

StartChar: uni0187
Encoding: 391 391 74
Width: 1499
GlyphClass: 2
Flags: W
AnchorPoint: "Anchor-3" 678 -1 basechar 0
AnchorPoint: "Anchor-1" 928 1490 basechar 0
LayerCount: 2
Fore
SplineSet
1237 987 m 1,0,-1
 1303 1388 l 2,1,2
 1327 1535 1327 1535 1423.5 1609.5 c 128,-1,3
 1520 1684 1520 1684 1684 1684 c 0,4,5
 1727 1684 1727 1684 1762 1681.5 c 128,-1,6
 1797 1679 1797 1679 1822 1676 c 1,7,-1
 1790 1476 l 1,8,9
 1770 1477 1770 1477 1743 1478 c 128,-1,10
 1716 1479 1716 1479 1694 1479 c 0,11,12
 1627 1479 1627 1479 1594.5 1456 c 128,-1,13
 1562 1433 1562 1433 1554 1384 c 2,14,-1
 1489 987 l 1,15,-1
 1237 987 l 1,0,-1
700 -22 m 0,16,17
 522 -22 522 -22 389 52 c 128,-1,18
 256 126 256 126 183 262.5 c 128,-1,19
 110 399 110 399 110 589 c 0,20,21
 110 769 110 769 167 935 c 128,-1,22
 224 1101 224 1101 331.5 1231 c 128,-1,23
 439 1361 439 1361 589.5 1436.5 c 128,-1,24
 740 1512 740 1512 926 1512 c 0,25,26
 1052 1512 1052 1512 1156 1476.5 c 128,-1,27
 1260 1441 1260 1441 1335 1373 c 128,-1,28
 1410 1305 1410 1305 1449.5 1207.5 c 128,-1,29
 1489 1110 1489 1110 1488 987 c 1,30,-1
 1220 987 l 1,31,32
 1218 1055 1218 1055 1195.5 1108.5 c 128,-1,33
 1173 1162 1173 1162 1134 1199 c 128,-1,34
 1095 1236 1095 1236 1040.5 1255 c 128,-1,35
 986 1274 986 1274 919 1274 c 0,36,37
 789 1274 789 1274 687.5 1215 c 128,-1,38
 586 1156 586 1156 516.5 1057 c 128,-1,39
 447 958 447 958 411 836.5 c 128,-1,40
 375 715 375 715 375 592 c 0,41,42
 375 473 375 473 415.5 388.5 c 128,-1,43
 456 304 456 304 532 260 c 128,-1,44
 608 216 608 216 714 216 c 0,45,46
 787 216 787 216 852.5 235.5 c 128,-1,47
 918 255 918 255 973.5 292 c 128,-1,48
 1029 329 1029 329 1071.5 381.5 c 128,-1,49
 1114 434 1114 434 1140 503 c 1,50,-1
 1409 503 l 1,51,52
 1373 388 1373 388 1305.5 292.5 c 128,-1,53
 1238 197 1238 197 1145 126.5 c 128,-1,54
 1052 56 1052 56 939.5 17 c 128,-1,55
 827 -22 827 -22 700 -22 c 0,16,17
EndSplineSet
Position2: "'cpsp' Capital Spacing in Latin lookup 0 subtable" dx=0 dy=0 dh=0 dv=0
EndChar

StartChar: uni023B
Encoding: 571 571 81
Width: 1499
GlyphClass: 2
Flags: W
AnchorPoint: "Anchor-3" 678 -1 basechar 0
AnchorPoint: "Anchor-1" 928 1490 basechar 0
LayerCount: 2
Fore
SplineSet
228 -190 m 1,0,-1
 1163 1678 l 1,1,-1
 1344 1678 l 1,2,-1
 408 -190 l 1,3,-1
 228 -190 l 1,0,-1
700 -22 m 0,4,5
 522 -22 522 -22 389 52 c 128,-1,6
 256 126 256 126 183 262.5 c 128,-1,7
 110 399 110 399 110 589 c 0,8,9
 110 769 110 769 167 935 c 128,-1,10
 224 1101 224 1101 331.5 1231 c 128,-1,11
 439 1361 439 1361 589.5 1436.5 c 128,-1,12
 740 1512 740 1512 926 1512 c 0,13,14
 1052 1512 1052 1512 1156 1476.5 c 128,-1,15
 1260 1441 1260 1441 1335 1373 c 128,-1,16
 1410 1305 1410 1305 1449.5 1207.5 c 128,-1,17
 1489 1110 1489 1110 1488 987 c 1,18,-1
 1220 987 l 1,19,20
 1218 1055 1218 1055 1195.5 1108.5 c 128,-1,21
 1173 1162 1173 1162 1134 1199 c 128,-1,22
 1095 1236 1095 1236 1040.5 1255 c 128,-1,23
 986 1274 986 1274 919 1274 c 0,24,25
 789 1274 789 1274 687.5 1215 c 128,-1,26
 586 1156 586 1156 516.5 1057 c 128,-1,27
 447 958 447 958 411 836.5 c 128,-1,28
 375 715 375 715 375 592 c 0,29,30
 375 473 375 473 415.5 388.5 c 128,-1,31
 456 304 456 304 532 260 c 128,-1,32
 608 216 608 216 714 216 c 0,33,34
 787 216 787 216 852.5 235.5 c 128,-1,35
 918 255 918 255 973.5 292 c 128,-1,36
 1029 329 1029 329 1071.5 381.5 c 128,-1,37
 1114 434 1114 434 1140 503 c 1,38,-1
 1409 503 l 1,39,40
 1373 388 1373 388 1305.5 292.5 c 128,-1,41
 1238 197 1238 197 1145 126.5 c 128,-1,42
 1052 56 1052 56 939.5 17 c 128,-1,43
 827 -22 827 -22 700 -22 c 0,4,5
EndSplineSet
Ligature2: "'ccmp' Glyph Composition/Decomposition in Latin lookup 6 subtable" C uni0338
Position2: "'cpsp' Capital Spacing in Latin lookup 0 subtable" dx=0 dy=0 dh=0 dv=0
EndChar

StartChar: uni0186
Encoding: 390 390 82
Width: 1499
GlyphClass: 2
Flags: W
AnchorPoint: "Anchor-3" 888 1492 basechar 0
AnchorPoint: "Anchor-1" 638 0 basechar 0
LayerCount: 2
Fore
SplineSet
866 1512 m 0,0,1
 1045 1512 1045 1512 1178 1439 c 128,-1,2
 1311 1366 1311 1366 1384.5 1228.5 c 128,-1,3
 1458 1091 1458 1091 1458 902 c 0,4,5
 1458 721 1458 721 1400 555.5 c 128,-1,6
 1342 390 1342 390 1235 259.5 c 128,-1,7
 1128 129 1128 129 977.5 53.5 c 128,-1,8
 827 -22 827 -22 641 -22 c 0,9,10
 515 -22 515 -22 411 14 c 128,-1,11
 307 50 307 50 232 118 c 128,-1,12
 157 186 157 186 117 283.5 c 128,-1,13
 77 381 77 381 79 504 c 1,14,-1
 347 504 l 1,15,16
 349 435 349 435 371 382 c 128,-1,17
 393 329 393 329 433 292 c 128,-1,18
 473 255 473 255 527 235.5 c 128,-1,19
 581 216 581 216 648 216 c 0,20,21
 779 216 779 216 880 275.5 c 128,-1,22
 981 335 981 335 1050.5 434 c 128,-1,23
 1120 533 1120 533 1156.5 654 c 128,-1,24
 1193 775 1193 775 1193 899 c 0,25,26
 1193 1018 1193 1018 1152 1102 c 128,-1,27
 1111 1186 1111 1186 1035 1230 c 128,-1,28
 959 1274 959 1274 852 1274 c 0,29,30
 780 1274 780 1274 714.5 1255 c 128,-1,31
 649 1236 649 1236 593.5 1199 c 128,-1,32
 538 1162 538 1162 495 1109 c 128,-1,33
 452 1056 452 1056 427 988 c 1,34,-1
 158 988 l 1,35,36
 194 1103 194 1103 261.5 1198.5 c 128,-1,37
 329 1294 329 1294 421.5 1364.5 c 128,-1,38
 514 1435 514 1435 627 1473.5 c 128,-1,39
 740 1512 740 1512 866 1512 c 0,0,1
EndSplineSet
Position2: "'cpsp' Capital Spacing in Latin lookup 0 subtable" dx=0 dy=0 dh=0 dv=0
EndChar

StartChar: D
Encoding: 68 68 84
Width: 1453
GlyphClass: 2
Flags: W
AnchorPoint: "Anchor-1" 755 1490 basechar 0
AnchorPoint: "Anchor-0" 541 0 basechar 0
LayerCount: 2
Fore
SplineSet
592 0 m 2,0,-1
 175 0 l 1,1,-1
 212 229 l 1,2,-1
 574 229 l 2,3,4
 734 229 734 229 849.5 288 c 128,-1,5
 965 347 965 347 1036 463.5 c 128,-1,6
 1107 580 1107 580 1134 747 c 0,7,8
 1162 915 1162 915 1132.5 1029.5 c 128,-1,9
 1103 1144 1103 1144 1013 1202.5 c 128,-1,10
 923 1261 923 1261 768 1261 c 2,11,-1
 376 1261 l 1,12,-1
 414 1490 l 1,13,-1
 791 1490 l 2,14,15
 1013 1490 1013 1490 1162.5 1400.5 c 128,-1,16
 1312 1311 1312 1311 1375 1144.5 c 128,-1,17
 1438 978 1438 978 1399 746 c 0,18,19
 1362 514 1362 514 1257 347 c 128,-1,20
 1152 180 1152 180 985.5 90 c 128,-1,21
 819 0 819 0 592 0 c 2,0,-1
560 1490 m 1,22,-1
 313 0 l 1,23,-1
 47 0 l 1,24,-1
 294 1490 l 1,25,-1
 560 1490 l 1,22,-1
EndSplineSet
Substitution2: "'ss06' Style Set 6 in Latin lookup 52 subtable" D.squared
Substitution2: "'ss05' Style Set 5 in Latin lookup 51 subtable" uni24B9
Position2: "'cpsp' Capital Spacing in Latin lookup 0 subtable" dx=0 dy=0 dh=0 dv=0
EndChar

StartChar: uni018A
Encoding: 394 394 85
Width: 1805
GlyphClass: 2
Flags: W
AnchorPoint: "Anchor-1" 1107 1490 basechar 0
AnchorPoint: "Anchor-0" 893 0 basechar 0
LayerCount: 2
Fore
SplineSet
130 1060 m 1,0,-1
 149 1177 l 2,1,2
 175 1331 175 1331 271.5 1410.5 c 128,-1,3
 368 1490 368 1490 540 1490 c 2,4,-1
 646 1490 l 1,5,-1
 609 1266 l 1,6,-1
 527 1266 l 2,7,8
 466 1266 466 1266 433.5 1240 c 128,-1,9
 401 1214 401 1214 392 1158 c 2,10,-1
 376 1060 l 1,11,-1
 130 1060 l 1,0,-1
944 0 m 2,12,-1
 527 0 l 1,13,-1
 564 229 l 1,14,-1
 926 229 l 2,15,16
 1086 229 1086 229 1201.5 288 c 128,-1,17
 1317 347 1317 347 1388 463.5 c 128,-1,18
 1459 580 1459 580 1486 747 c 0,19,20
 1514 915 1514 915 1484.5 1029.5 c 128,-1,21
 1455 1144 1455 1144 1365 1202.5 c 128,-1,22
 1275 1261 1275 1261 1120 1261 c 2,23,-1
 728 1261 l 1,24,-1
 766 1490 l 1,25,-1
 1143 1490 l 2,26,27
 1365 1490 1365 1490 1514.5 1400.5 c 128,-1,28
 1664 1311 1664 1311 1727 1144.5 c 128,-1,29
 1790 978 1790 978 1751 746 c 0,30,31
 1714 514 1714 514 1609 347 c 128,-1,32
 1504 180 1504 180 1337.5 90 c 128,-1,33
 1171 0 1171 0 944 0 c 2,12,-1
912 1490 m 1,34,-1
 665 0 l 1,35,-1
 399 0 l 1,36,-1
 646 1490 l 1,37,-1
 912 1490 l 1,34,-1
EndSplineSet
Position2: "'cpsp' Capital Spacing in Latin lookup 0 subtable" dx=0 dy=0 dh=0 dv=0
EndChar

StartChar: E
Encoding: 69 69 95
Width: 1235
GlyphClass: 2
Flags: W
AnchorPoint: "Anchor-4" 1050 0 basechar 0
AnchorPoint: "Anchor-3" 552 0 basechar 0
AnchorPoint: "Anchor-1" 797 1490 basechar 0
AnchorPoint: "Anchor-0" 550 0 basechar 0
LayerCount: 2
Fore
SplineSet
47 0 m 1,0,-1
 294 1490 l 1,1,-1
 1296 1490 l 1,2,-1
 1258 1264 l 1,3,-1
 522 1264 l 1,4,-1
 457 867 l 1,5,-1
 1138 867 l 1,6,-1
 1100 643 l 1,7,-1
 419 643 l 1,8,-1
 350 227 l 1,9,-1
 1088 227 l 1,10,-1
 1050 0 l 1,11,-1
 47 0 l 1,0,-1
EndSplineSet
Substitution2: "'ss06' Style Set 6 in Latin lookup 52 subtable" E.squared
Substitution2: "'ss05' Style Set 5 in Latin lookup 51 subtable" uni24BA
Position2: "'cpsp' Capital Spacing in Latin lookup 0 subtable" dx=0 dy=0 dh=0 dv=0
EndChar

StartChar: uni0246
Encoding: 582 582 121
Width: 1235
GlyphClass: 2
Flags: W
AnchorPoint: "Anchor-4" 1050 0 basechar 0
AnchorPoint: "Anchor-3" 552 0 basechar 0
AnchorPoint: "Anchor-1" 797 1490 basechar 0
AnchorPoint: "Anchor-0" 550 0 basechar 0
LayerCount: 2
Fore
SplineSet
188 -190 m 1,0,-1
 1037 1678 l 1,1,-1
 1202 1678 l 1,2,-1
 354 -190 l 1,3,-1
 188 -190 l 1,0,-1
47 0 m 1,4,-1
 294 1490 l 1,5,-1
 1296 1490 l 1,6,-1
 1258 1264 l 1,7,-1
 522 1264 l 1,8,-1
 457 867 l 1,9,-1
 1138 867 l 1,10,-1
 1100 643 l 1,11,-1
 419 643 l 1,12,-1
 350 227 l 1,13,-1
 1088 227 l 1,14,-1
 1050 0 l 1,15,-1
 47 0 l 1,4,-1
EndSplineSet
Position2: "'cpsp' Capital Spacing in Latin lookup 0 subtable" dx=0 dy=0 dh=0 dv=0
EndChar

StartChar: Eturn
Encoding: 398 398 122
Width: 1235
GlyphClass: 2
Flags: W
AnchorPoint: "Anchor-4" 251 1490 basechar 0
AnchorPoint: "Anchor-3" 494 0 basechar 0
AnchorPoint: "Anchor-1" 743 1490 basechar 0
AnchorPoint: "Anchor-0" 492 0 basechar 0
LayerCount: 2
Fore
SplineSet
1255 1490 m 1,0,-1
 1008 0 l 1,1,-1
 6 0 l 1,2,-1
 44 227 l 1,3,-1
 779 227 l 1,4,-1
 845 625 l 1,5,-1
 164 625 l 1,6,-1
 201 847 l 1,7,-1
 882 847 l 1,8,-1
 952 1264 l 1,9,-1
 214 1264 l 1,10,-1
 251 1490 l 1,11,-1
 1255 1490 l 1,0,-1
EndSplineSet
Position2: "'cpsp' Capital Spacing in Latin lookup 0 subtable" dx=0 dy=0 dh=0 dv=0
EndChar

StartChar: F
Encoding: 70 70 137
Width: 1190
GlyphClass: 2
Flags: W
AnchorPoint: "Anchor-1" 783 1490 basechar 0
AnchorPoint: "Anchor-0" 180 0 basechar 0
LayerCount: 2
Fore
SplineSet
47 0 m 1,0,-1
 294 1490 l 1,1,-1
 1272 1490 l 1,2,-1
 1235 1264 l 1,3,-1
 522 1264 l 1,4,-1
 451 836 l 1,5,-1
 1104 836 l 1,6,-1
 1067 614 l 1,7,-1
 414 614 l 1,8,-1
 313 0 l 1,9,-1
 47 0 l 1,0,-1
EndSplineSet
Substitution2: "'ss06' Style Set 6 in Latin lookup 52 subtable" F.squared
Substitution2: "'ss05' Style Set 5 in Latin lookup 51 subtable" uni24BB
Position2: "'cpsp' Capital Spacing in Latin lookup 0 subtable" dx=0 dy=0 dh=0 dv=0
EndChar

StartChar: uni0191
Encoding: 401 401 138
Width: 1190
GlyphClass: 2
Flags: W
AnchorPoint: "Anchor-1" 783 1490 basechar 0
AnchorPoint: "Anchor-0" 180 0 basechar 0
LayerCount: 2
Fore
SplineSet
-235 -418 m 1,0,-1
 -200 -205 l 1,1,2
 -181 -208 -181 -208 -153.5 -208.5 c 128,-1,3
 -126 -209 -126 -209 -104 -209 c 0,4,5
 -38 -209 -38 -209 -9 -186.5 c 128,-1,6
 20 -164 20 -164 28 -115 c 2,7,-1
 67 125 l 1,8,-1
 333 125 l 1,9,-1
 292 -129 l 2,10,11
 267 -275 267 -275 170 -350 c 128,-1,12
 73 -425 73 -425 -93 -425 c 0,13,14
 -137 -425 -137 -425 -173.5 -423 c 128,-1,15
 -210 -421 -210 -421 -235 -418 c 1,0,-1
47 0 m 1,16,-1
 294 1490 l 1,17,-1
 1272 1490 l 1,18,-1
 1235 1264 l 1,19,-1
 522 1264 l 1,20,-1
 451 836 l 1,21,-1
 1104 836 l 1,22,-1
 1067 614 l 1,23,-1
 414 614 l 1,24,-1
 313 0 l 1,25,-1
 47 0 l 1,16,-1
EndSplineSet
Position2: "'cpsp' Capital Spacing in Latin lookup 0 subtable" dx=0 dy=0 dh=0 dv=0
EndChar

StartChar: Fturn
Encoding: 8498 8498 140
Width: 1190
GlyphClass: 2
Flags: W
AnchorPoint: "Anchor-1" 1077 1490 basechar 0
AnchorPoint: "Anchor-0" 470 0 basechar 0
LayerCount: 2
Fore
SplineSet
1210 1490 m 1,0,-1
 963 0 l 1,1,-1
 -15 0 l 1,2,-1
 22 227 l 1,3,-1
 734 227 l 1,4,-1
 805 654 l 1,5,-1
 153 654 l 1,6,-1
 190 878 l 1,7,-1
 842 878 l 1,8,-1
 944 1490 l 1,9,-1
 1210 1490 l 1,0,-1
EndSplineSet
Position2: "'cpsp' Capital Spacing in Latin lookup 0 subtable" dx=0 dy=0 dh=0 dv=0
EndChar

StartChar: G
Encoding: 1114113 -1 141
Width: 1519
GlyphClass: 2
Flags: W
AnchorPoint: "Anchor-1" 927 1490 basechar 0
AnchorPoint: "Anchor-0" 679 0 basechar 0
LayerCount: 2
Fore
SplineSet
703 -22 m 0,0,1
 520 -22 520 -22 387 53 c 128,-1,2
 254 128 254 128 182 265 c 128,-1,3
 110 402 110 402 110 589 c 0,4,5
 110 770 110 770 168 936 c 128,-1,6
 226 1102 226 1102 333.5 1232 c 128,-1,7
 441 1362 441 1362 590.5 1437 c 128,-1,8
 740 1512 740 1512 923 1512 c 0,9,10
 1047 1512 1047 1512 1151.5 1476 c 128,-1,11
 1256 1440 1256 1440 1332.5 1373.5 c 128,-1,12
 1409 1307 1409 1307 1450 1213.5 c 128,-1,13
 1491 1120 1491 1120 1489 1006 c 1,14,-1
 1218 1006 l 1,15,16
 1214 1067 1214 1067 1191.5 1116.5 c 128,-1,17
 1169 1166 1169 1166 1131 1201 c 128,-1,18
 1093 1236 1093 1236 1039 1255 c 128,-1,19
 985 1274 985 1274 917 1274 c 0,20,21
 788 1274 788 1274 687.5 1215 c 128,-1,22
 587 1156 587 1156 517 1057.5 c 128,-1,23
 447 959 447 959 411 838.5 c 128,-1,24
 375 718 375 718 375 595 c 0,25,26
 375 415 375 415 465.5 315.5 c 128,-1,27
 556 216 556 216 718 216 c 0,28,29
 833 216 833 216 929.5 263 c 128,-1,30
 1026 310 1026 310 1089.5 393 c 128,-1,31
 1153 476 1153 476 1171 584 c 1,32,-1
 1233 568 l 1,33,-1
 822 568 l 1,34,-1
 858 778 l 1,35,-1
 1463 778 l 1,36,-1
 1432 590 l 2,37,38
 1408 450 1408 450 1343.5 337.5 c 128,-1,39
 1279 225 1279 225 1182 145 c 128,-1,40
 1085 65 1085 65 963 21.5 c 128,-1,41
 841 -22 841 -22 703 -22 c 0,0,1
EndSplineSet
Substitution2: "'c2sc' Capitals to Small Capitals in Latin lookup 67 subtable" g.sc
Substitution2: "'cv10' Character Variants 10 in Latin lookup 64 subtable" G.1
Substitution2: "'ss06' Style Set 6 in Latin lookup 52 subtable" G.squared
Substitution2: "'ss05' Style Set 5 in Latin lookup 51 subtable" uni24BC
Substitution2: "'salt' Stylistic Alternatives in Latin lookup 46 subtable" G.1
Substitution2: "'aalt' Access All Alternates in Latin lookup 0 subtable" g.sc
Position2: "'cpsp' Capital Spacing in Latin lookup 0 subtable" dx=0 dy=0 dh=0 dv=0
EndChar

StartChar: uni0193
Encoding: 1114115 -1 143
Width: 1519
GlyphClass: 2
Flags: W
AnchorPoint: "Anchor-1" 927 1490 basechar 0
AnchorPoint: "Anchor-0" 679 0 basechar 0
LayerCount: 2
Fore
SplineSet
1305 1034 m 1,0,-1
 1325 1392 l 2,1,2
 1328 1493 1328 1493 1372 1556.5 c 128,-1,3
 1416 1620 1416 1620 1495 1650 c 128,-1,4
 1574 1680 1574 1680 1681 1680 c 0,5,6
 1725 1680 1725 1680 1759.5 1678.5 c 128,-1,7
 1794 1677 1794 1677 1819 1673 c 1,8,-1
 1786 1472 l 1,9,10
 1768 1474 1768 1474 1740 1474.5 c 128,-1,11
 1712 1475 1712 1475 1690 1475 c 0,12,13
 1625 1475 1625 1475 1592 1452.5 c 128,-1,14
 1559 1430 1559 1430 1550 1381 c 2,15,-1
 1490 1006 l 1,16,-1
 1305 1034 l 1,0,-1
703 -22 m 0,17,18
 520 -22 520 -22 387 53 c 128,-1,19
 254 128 254 128 182 265 c 128,-1,20
 110 402 110 402 110 589 c 0,21,22
 110 770 110 770 168 936 c 128,-1,23
 226 1102 226 1102 333.5 1232 c 128,-1,24
 441 1362 441 1362 590.5 1437 c 128,-1,25
 740 1512 740 1512 923 1512 c 0,26,27
 1047 1512 1047 1512 1151.5 1476 c 128,-1,28
 1256 1440 1256 1440 1332.5 1373.5 c 128,-1,29
 1409 1307 1409 1307 1450 1213.5 c 128,-1,30
 1491 1120 1491 1120 1489 1006 c 1,31,-1
 1218 1006 l 1,32,33
 1214 1067 1214 1067 1191.5 1116.5 c 128,-1,34
 1169 1166 1169 1166 1131 1201 c 128,-1,35
 1093 1236 1093 1236 1039 1255 c 128,-1,36
 985 1274 985 1274 917 1274 c 0,37,38
 788 1274 788 1274 687.5 1215 c 128,-1,39
 587 1156 587 1156 517 1057.5 c 128,-1,40
 447 959 447 959 411 838.5 c 128,-1,41
 375 718 375 718 375 595 c 0,42,43
 375 415 375 415 465.5 315.5 c 128,-1,44
 556 216 556 216 718 216 c 0,45,46
 833 216 833 216 929.5 263 c 128,-1,47
 1026 310 1026 310 1089.5 393 c 128,-1,48
 1153 476 1153 476 1171 584 c 1,49,-1
 1233 568 l 1,50,-1
 822 568 l 1,51,-1
 858 778 l 1,52,-1
 1463 778 l 1,53,-1
 1432 590 l 2,54,55
 1408 450 1408 450 1343.5 337.5 c 128,-1,56
 1279 225 1279 225 1182 145 c 128,-1,57
 1085 65 1085 65 963 21.5 c 128,-1,58
 841 -22 841 -22 703 -22 c 0,17,18
EndSplineSet
Substitution2: "'c2sc' Capitals to Small Capitals in Latin lookup 67 subtable" uni0260.sc
Substitution2: "'cv10' Character Variants 10 in Latin lookup 64 subtable" uni0193.1
Substitution2: "'salt' Stylistic Alternatives in Latin lookup 46 subtable" uni0193.1
Substitution2: "'aalt' Access All Alternates in Latin lookup 0 subtable" uni0260.sc
Position2: "'cpsp' Capital Spacing in Latin lookup 0 subtable" dx=0 dy=0 dh=0 dv=0
EndChar

StartChar: G.1
Encoding: 57346 57346 151
AltUni2: 000047.ffffffff.0
Width: 1519
GlyphClass: 2
Flags: W
AnchorPoint: "Anchor-1" 934 1490 basechar 0
AnchorPoint: "Anchor-0" 670 1 basechar 0
LayerCount: 2
Fore
SplineSet
665 -22 m 0,0,1
 474 -22 474 -22 338 73 c 128,-1,2
 202 168 202 168 142 340.5 c 128,-1,3
 82 513 82 513 121 744 c 0,4,5
 150 921 150 921 225.5 1063.5 c 128,-1,6
 301 1206 301 1206 410.5 1306 c 128,-1,7
 520 1406 520 1406 654.5 1459 c 128,-1,8
 789 1512 789 1512 938 1512 c 0,9,10
 1062 1512 1062 1512 1164 1475.5 c 128,-1,11
 1266 1439 1266 1439 1339.5 1371 c 128,-1,12
 1413 1303 1413 1303 1452 1210 c 128,-1,13
 1491 1117 1491 1117 1489 1006 c 1,14,-1
 1218 1006 l 1,15,16
 1213 1067 1213 1067 1189 1116.5 c 128,-1,17
 1165 1166 1165 1166 1124.5 1201 c 128,-1,18
 1084 1236 1084 1236 1028 1255 c 128,-1,19
 972 1274 972 1274 902 1274 c 0,20,21
 776 1274 776 1274 669.5 1211 c 128,-1,22
 563 1148 563 1148 489.5 1029.5 c 128,-1,23
 416 911 416 911 389 745 c 0,24,25
 361 580 361 580 395 461.5 c 128,-1,26
 429 343 429 343 516.5 279.5 c 128,-1,27
 604 216 604 216 734 216 c 0,28,29
 847 216 847 216 939 262 c 128,-1,30
 1031 308 1031 308 1093 392 c 128,-1,31
 1155 476 1155 476 1174 591 c 1,32,-1
 1291 591 l 1,33,-1
 1272 475 l 2,34,35
 1256 374 1256 374 1206.5 284.5 c 128,-1,36
 1157 195 1157 195 1078.5 126 c 128,-1,37
 1000 57 1000 57 896 17.5 c 128,-1,38
 792 -22 792 -22 665 -22 c 0,0,1
1150 0 m 1,39,-1
 1161 301 l 1,40,-1
 1206 568 l 1,41,-1
 822 568 l 1,42,-1
 857 778 l 1,43,-1
 1463 778 l 1,44,-1
 1334 0 l 1,45,-1
 1150 0 l 1,39,-1
EndSplineSet
Substitution2: "'ss06' Style Set 6 in Latin lookup 52 subtable" G.1.squared
EndChar

StartChar: uni0193.1
Encoding: 57348 57348 153
AltUni2: 000193.ffffffff.0
Width: 1519
GlyphClass: 2
Flags: W
AnchorPoint: "Anchor-1" 934 1490 basechar 0
AnchorPoint: "Anchor-0" 670 1 basechar 0
LayerCount: 2
Fore
SplineSet
1305 1034 m 1,0,-1
 1324 1392 l 2,1,2
 1328 1493 1328 1493 1371.5 1556.5 c 128,-1,3
 1415 1620 1415 1620 1494.5 1650 c 128,-1,4
 1574 1680 1574 1680 1680 1680 c 0,5,6
 1724 1680 1724 1680 1759 1678.5 c 128,-1,7
 1794 1677 1794 1677 1819 1673 c 1,8,-1
 1786 1472 l 1,9,10
 1768 1474 1768 1474 1740 1474.5 c 128,-1,11
 1712 1475 1712 1475 1690 1475 c 0,12,13
 1625 1475 1625 1475 1592 1452.5 c 128,-1,14
 1559 1430 1559 1430 1550 1381 c 2,15,-1
 1489 1006 l 1,16,-1
 1305 1034 l 1,0,-1
665 -22 m 0,17,18
 474 -22 474 -22 338 73 c 128,-1,19
 202 168 202 168 142 340.5 c 128,-1,20
 82 513 82 513 121 744 c 0,21,22
 150 921 150 921 225.5 1063.5 c 128,-1,23
 301 1206 301 1206 410.5 1306 c 128,-1,24
 520 1406 520 1406 654.5 1459 c 128,-1,25
 789 1512 789 1512 938 1512 c 0,26,27
 1062 1512 1062 1512 1164 1475.5 c 128,-1,28
 1266 1439 1266 1439 1339.5 1371 c 128,-1,29
 1413 1303 1413 1303 1452 1210 c 128,-1,30
 1491 1117 1491 1117 1489 1006 c 1,31,-1
 1218 1006 l 1,32,33
 1213 1067 1213 1067 1189 1116.5 c 128,-1,34
 1165 1166 1165 1166 1124.5 1201 c 128,-1,35
 1084 1236 1084 1236 1028 1255 c 128,-1,36
 972 1274 972 1274 902 1274 c 0,37,38
 776 1274 776 1274 669.5 1211 c 128,-1,39
 563 1148 563 1148 489.5 1029.5 c 128,-1,40
 416 911 416 911 389 745 c 0,41,42
 361 580 361 580 395 461.5 c 128,-1,43
 429 343 429 343 516.5 279.5 c 128,-1,44
 604 216 604 216 734 216 c 0,45,46
 847 216 847 216 939 262 c 128,-1,47
 1031 308 1031 308 1093 392 c 128,-1,48
 1155 476 1155 476 1174 591 c 1,49,-1
 1291 591 l 1,50,-1
 1272 475 l 2,51,52
 1256 374 1256 374 1206.5 284.5 c 128,-1,53
 1157 195 1157 195 1078.5 126 c 128,-1,54
 1000 57 1000 57 896 17.5 c 128,-1,55
 792 -22 792 -22 665 -22 c 0,17,18
1150 0 m 1,56,-1
 1161 301 l 1,57,-1
 1206 568 l 1,58,-1
 822 568 l 1,59,-1
 857 778 l 1,60,-1
 1463 778 l 1,61,-1
 1334 0 l 1,62,-1
 1150 0 l 1,56,-1
EndSplineSet
EndChar

StartChar: H
Encoding: 72 72 161
Width: 1496
GlyphClass: 2
Flags: W
AnchorPoint: "Anchor-3" 182 0 basechar 0
AnchorPoint: "Anchor-1" 905 1490 basechar 0
AnchorPoint: "Anchor-0" 658 0 basechar 0
LayerCount: 2
Fore
SplineSet
47 0 m 1,0,-1
 294 1490 l 1,1,-1
 560 1490 l 1,2,-1
 458 875 l 1,3,-1
 1148 875 l 1,4,-1
 1250 1490 l 1,5,-1
 1516 1490 l 1,6,-1
 1269 0 l 1,7,-1
 1003 0 l 1,8,-1
 1110 648 l 1,9,-1
 420 648 l 1,10,-1
 313 0 l 1,11,-1
 47 0 l 1,0,-1
EndSplineSet
Substitution2: "'c2sc' Capitals to Small Capitals in Latin lookup 67 subtable" h.sc
Substitution2: "'ss06' Style Set 6 in Latin lookup 52 subtable" H.squared
Substitution2: "'ss05' Style Set 5 in Latin lookup 51 subtable" uni24BD
Substitution2: "'aalt' Access All Alternates in Latin lookup 0 subtable" h.sc
Position2: "'cpsp' Capital Spacing in Latin lookup 0 subtable" dx=0 dy=0 dh=0 dv=0
EndChar

StartChar: Hbar
Encoding: 294 294 169
Width: 1597
GlyphClass: 2
Flags: W
AnchorPoint: "Anchor-3" 232 0 basechar 0
AnchorPoint: "Anchor-1" 955 1490 basechar 0
AnchorPoint: "Anchor-0" 708 0 basechar 0
LayerCount: 2
Fore
SplineSet
1642 1209 m 1,0,-1
 1615 1043 l 1,1,-1
 149 1043 l 1,2,-1
 176 1209 l 1,3,-1
 1642 1209 l 1,0,-1
97 0 m 1,4,-1
 344 1490 l 1,5,-1
 610 1490 l 1,6,-1
 508 875 l 1,7,-1
 1198 875 l 1,8,-1
 1300 1490 l 1,9,-1
 1566 1490 l 1,10,-1
 1319 0 l 1,11,-1
 1053 0 l 1,12,-1
 1160 648 l 1,13,-1
 470 648 l 1,14,-1
 363 0 l 1,15,-1
 97 0 l 1,4,-1
EndSplineSet
Position2: "'cpsp' Capital Spacing in Latin lookup 0 subtable" dx=0 dy=0 dh=0 dv=0
EndChar

StartChar: uni04C7
Encoding: 1223 1223 170
Width: 1496
GlyphClass: 2
Flags: W
AnchorPoint: "Anchor-3" 182 0 basechar 0
AnchorPoint: "Anchor-1" 905 1490 basechar 0
AnchorPoint: "Anchor-0" 658 0 basechar 0
LayerCount: 2
Fore
SplineSet
721 -418 m 1,0,-1
 756 -205 l 1,1,2
 775 -208 775 -208 802.5 -208.5 c 128,-1,3
 830 -209 830 -209 852 -209 c 0,4,5
 918 -209 918 -209 947 -186.5 c 128,-1,6
 976 -164 976 -164 984 -115 c 2,7,-1
 1023 125 l 1,8,-1
 1289 125 l 1,9,-1
 1248 -129 l 2,10,11
 1223 -275 1223 -275 1126 -350 c 128,-1,12
 1029 -425 1029 -425 863 -425 c 0,13,14
 819 -425 819 -425 782.5 -423 c 128,-1,15
 746 -421 746 -421 721 -418 c 1,0,-1
47 0 m 1,16,-1
 294 1490 l 1,17,-1
 560 1490 l 1,18,-1
 458 875 l 1,19,-1
 1148 875 l 1,20,-1
 1250 1490 l 1,21,-1
 1516 1490 l 1,22,-1
 1269 0 l 1,23,-1
 1003 0 l 1,24,-1
 1110 648 l 1,25,-1
 420 648 l 1,26,-1
 313 0 l 1,27,-1
 47 0 l 1,16,-1
EndSplineSet
Position2: "'cpsp' Capital Spacing in Latin lookup 0 subtable" dx=0 dy=0 dh=0 dv=0
EndChar

StartChar: uni04A4
Encoding: 1188 1188 173
Width: 2013
GlyphClass: 2
Flags: W
AnchorPoint: "Anchor-3" 182 0 basechar 0
AnchorPoint: "Anchor-1" 905 1490 basechar 0
AnchorPoint: "Anchor-0" 658 0 basechar 0
LayerCount: 2
Fore
SplineSet
2105 1490 m 1,0,-1
 2068 1270 l 1,1,-1
 1427 1270 l 1,2,-1
 1258 1490 l 1,3,-1
 2105 1490 l 1,0,-1
47 0 m 1,4,-1
 294 1490 l 1,5,-1
 560 1490 l 1,6,-1
 458 875 l 1,7,-1
 1148 875 l 1,8,-1
 1250 1490 l 1,9,-1
 1516 1490 l 1,10,-1
 1269 0 l 1,11,-1
 1003 0 l 1,12,-1
 1110 648 l 1,13,-1
 420 648 l 1,14,-1
 313 0 l 1,15,-1
 47 0 l 1,4,-1
EndSplineSet
Position2: "'cpsp' Capital Spacing in Latin lookup 0 subtable" dx=0 dy=0 dh=0 dv=0
EndChar

StartChar: uni01F6
Encoding: 502 502 174
Width: 2228
Flags: W
LayerCount: 2
Fore
SplineSet
1522 -21 m 0,0,1
 1366 -21 1366 -21 1257.5 38.5 c 128,-1,2
 1149 98 1149 98 1102.5 206.5 c 128,-1,3
 1056 315 1056 315 1080 462 c 2,4,-1
 1109 640 l 1,5,-1
 419 640 l 1,6,-1
 313 0 l 1,7,-1
 47 0 l 1,8,-1
 294 1490 l 1,9,-1
 560 1490 l 1,10,-1
 457 867 l 1,11,-1
 1147 867 l 1,12,-1
 1250 1490 l 1,13,-1
 1516 1490 l 1,14,-1
 1344 452 l 2,15,16
 1323 326 1323 326 1372 264.5 c 128,-1,17
 1421 203 1421 203 1531 203 c 0,18,19
 1611 203 1611 203 1673.5 234 c 128,-1,20
 1736 265 1736 265 1776.5 325.5 c 128,-1,21
 1817 386 1817 386 1831 469 c 2,22,-1
 1932 1077 l 1,23,-1
 2191 1077 l 1,24,-1
 2087 445 l 2,25,26
 2063 297 2063 297 1985 193 c 128,-1,27
 1907 89 1907 89 1788 34 c 128,-1,28
 1669 -21 1669 -21 1522 -21 c 0,0,1
EndSplineSet
Position2: "'cpsp' Capital Spacing in Latin lookup 0 subtable" dx=0 dy=0 dh=0 dv=0
EndChar

StartChar: I
Encoding: 73 73 197
Width: 540
GlyphClass: 2
Flags: W
AnchorPoint: "Anchor-4" 313 0 basechar 0
AnchorPoint: "Anchor-1" 428 1490 basechar 0
AnchorPoint: "Anchor-0" 180 0 basechar 0
LayerCount: 2
Fore
SplineSet
560 1490 m 1,0,-1
 313 0 l 1,1,-1
 47 0 l 1,2,-1
 294 1490 l 1,3,-1
 560 1490 l 1,0,-1
EndSplineSet
Substitution2: "'c2sc' Capitals to Small Capitals in Latin lookup 67 subtable" i.sc
Substitution2: "'cv08' Character Variants 08 in Latin lookup 62 subtable" I.1
Substitution2: "'ss06' Style Set 6 in Latin lookup 52 subtable" I.squared
Substitution2: "'ss05' Style Set 5 in Latin lookup 51 subtable" uni24BE
Substitution2: "'ss04' Style Set 4 in Latin lookup 50 subtable" I.1
Substitution2: "'ss02' Style Set 2 in Latin lookup 48 subtable" I.1
Substitution2: "'salt' Stylistic Alternatives in Latin lookup 46 subtable" I.1
Substitution2: "'aalt' Access All Alternates in Latin lookup 0 subtable" i.sc
Position2: "'cpsp' Capital Spacing in Latin lookup 0 subtable" dx=0 dy=0 dh=0 dv=0
EndChar

StartChar: I.1
Encoding: 57356 57356 235
Width: 859
GlyphClass: 2
Flags: W
AnchorPoint: "Anchor-4" 695 0 basechar 0
AnchorPoint: "Anchor-1" 587 1490 basechar 0
AnchorPoint: "Anchor-0" 340 0 basechar 0
LayerCount: 2
Fore
SplineSet
-16 0 m 1,0,-1
 21 222 l 1,1,-1
 243 222 l 1,2,-1
 417 1268 l 1,3,-1
 195 1268 l 1,4,-1
 231 1490 l 1,5,-1
 942 1490 l 1,6,-1
 904 1268 l 1,7,-1
 683 1268 l 1,8,-1
 509 222 l 1,9,-1
 732 222 l 1,10,-1
 695 0 l 1,11,-1
 -16 0 l 1,0,-1
EndSplineSet
EndChar

StartChar: J
Encoding: 74 74 267
Width: 1161
GlyphClass: 2
Flags: W
AnchorPoint: "Anchor-1" 1051 1490 basechar 0
LayerCount: 2
Fore
SplineSet
469 -21 m 0,0,1
 275 -21 275 -21 160.5 73.5 c 128,-1,2
 46 168 46 168 46 346 c 0,3,4
 46 360 46 360 47.5 379.5 c 128,-1,5
 49 399 49 399 54 434.5 c 128,-1,6
 59 470 59 470 69 531 c 1,7,-1
 330 531 l 1,8,9
 321 474 321 474 316.5 444.5 c 128,-1,10
 312 415 312 415 311 401.5 c 128,-1,11
 310 388 310 388 310 379 c 0,12,13
 310 293 310 293 357 248 c 128,-1,14
 404 203 404 203 489 203 c 0,15,16
 586 203 586 203 655.5 262.5 c 128,-1,17
 725 322 725 322 745 439 c 2,18,-1
 919 1490 l 1,19,-1
 1184 1490 l 1,20,-1
 1009 439 l 2,21,22
 973 219 973 219 830.5 99 c 128,-1,23
 688 -21 688 -21 469 -21 c 0,0,1
EndSplineSet
Substitution2: "'ss06' Style Set 6 in Latin lookup 52 subtable" J.squared
Substitution2: "'ss05' Style Set 5 in Latin lookup 51 subtable" uni24BF
Position2: "'cpsp' Capital Spacing in Latin lookup 0 subtable" dx=0 dy=0 dh=0 dv=0
EndChar

StartChar: K
Encoding: 75 75 272
Width: 1405
GlyphClass: 2
Flags: W
AnchorPoint: "Anchor-1" 862 1490 basechar 0
AnchorPoint: "Anchor-0" 615 0 basechar 0
LayerCount: 2
Fore
SplineSet
297 358 m 1,0,-1
 335 651 l 1,1,2
 396 721 396 721 455.5 784.5 c 128,-1,3
 515 848 515 848 577.5 911.5 c 128,-1,4
 640 975 640 975 709 1043 c 2,5,-1
 1177 1490 l 1,6,-1
 1517 1490 l 1,7,-1
 767 779 l 1,8,-1
 748 783 l 1,9,-1
 297 358 l 1,0,-1
47 0 m 1,10,-1
 294 1490 l 1,11,-1
 563 1490 l 1,12,-1
 488 1046 l 1,13,-1
 426 687 l 1,14,-1
 407 559 l 1,15,-1
 316 0 l 1,16,-1
 47 0 l 1,10,-1
987 0 m 1,17,-1
 627 704 l 1,18,-1
 806 906 l 1,19,-1
 1281 0 l 1,20,-1
 987 0 l 1,17,-1
EndSplineSet
Substitution2: "'ss06' Style Set 6 in Latin lookup 52 subtable" K.squared
Substitution2: "'ss05' Style Set 5 in Latin lookup 51 subtable" uni24C0
Position2: "'cpsp' Capital Spacing in Latin lookup 0 subtable" dx=0 dy=0 dh=0 dv=0
EndChar

StartChar: uni04A0
Encoding: 1184 1184 278
Width: 1747
GlyphClass: 2
Flags: W
AnchorPoint: "Anchor-1" 1179 1490 basechar 0
LayerCount: 2
Fore
SplineSet
763 1490 m 1,0,-1
 726 1266 l 1,1,-1
 185 1266 l 1,2,-1
 223 1490 l 1,3,-1
 763 1490 l 1,0,-1
388 0 m 1,4,-1
 635 1490 l 1,5,-1
 901 1490 l 1,6,-1
 799 873 l 1,7,-1
 966 873 l 1,8,-1
 1523 1490 l 1,9,-1
 1845 1490 l 1,10,-1
 1177 767 l 1,11,-1
 1622 0 l 1,12,-1
 1320 0 l 1,13,-1
 951 647 l 1,14,-1
 761 647 l 1,15,-1
 654 0 l 1,16,-1
 388 0 l 1,4,-1
EndSplineSet
Position2: "'cpsp' Capital Spacing in Latin lookup 0 subtable" dx=0 dy=0 dh=0 dv=0
EndChar

StartChar: uni0198
Encoding: 408 408 280
Width: 1424
Flags: W
LayerCount: 2
Fore
SplineSet
47 0 m 1,0,-1
 294 1490 l 1,1,-1
 557 1490 l 1,2,-1
 445 812 l 1,3,-1
 464 812 l 1,4,-1
 1086 1380 l 2,5,6
 1167 1452 1167 1452 1251 1483.5 c 128,-1,7
 1335 1515 1335 1515 1416.5 1506 c 128,-1,8
 1498 1497 1498 1497 1571 1446 c 1,9,-1
 1450 1257 l 1,10,11
 1400 1288 1400 1288 1351.5 1275 c 128,-1,12
 1303 1262 1303 1262 1241 1207 c 2,13,-1
 796 809 l 1,14,-1
 1280 0 l 1,15,-1
 963 0 l 1,16,-1
 598 622 l 1,17,-1
 381 422 l 1,18,-1
 311 0 l 1,19,-1
 47 0 l 1,0,-1
EndSplineSet
Position2: "'cpsp' Capital Spacing in Latin lookup 0 subtable" dx=0 dy=0 dh=0 dv=0
EndChar

StartChar: L
Encoding: 76 76 282
Width: 1142
GlyphClass: 2
Flags: W
AnchorPoint: "Anchor-1" 427 1490 basechar 0
AnchorPoint: "Anchor-0" 509 0 basechar 0
LayerCount: 2
Fore
SplineSet
47 0 m 1,0,-1
 294 1490 l 1,1,-1
 560 1490 l 1,2,-1
 350 227 l 1,3,-1
 1025 227 l 1,4,-1
 987 0 l 1,5,-1
 47 0 l 1,0,-1
EndSplineSet
Substitution2: "'c2sc' Capitals to Small Capitals in Latin lookup 67 subtable" l.sc
Substitution2: "'ss06' Style Set 6 in Latin lookup 52 subtable" L.squared
Substitution2: "'ss05' Style Set 5 in Latin lookup 51 subtable" uni24C1
Substitution2: "'aalt' Access All Alternates in Latin lookup 0 subtable" l.sc
Position2: "'cpsp' Capital Spacing in Latin lookup 0 subtable" dx=0 dy=0 dh=0 dv=0
EndChar

StartChar: M
Encoding: 77 77 293
Width: 1848
GlyphClass: 2
Flags: W
AnchorPoint: "Anchor-1" 1079 1490 basechar 0
AnchorPoint: "Anchor-0" 833 0 basechar 0
LayerCount: 2
Fore
SplineSet
47 0 m 1,0,-1
 294 1490 l 1,1,-1
 685 1490 l 1,2,-1
 842 713 l 2,3,4
 850 670 850 670 858.5 605 c 128,-1,5
 867 540 867 540 875.5 468 c 128,-1,6
 884 396 884 396 890 328.5 c 128,-1,7
 896 261 896 261 901 213 c 1,8,-1
 841 216 l 1,9,10
 861 266 861 266 890 333 c 128,-1,11
 919 400 919 400 951 472.5 c 128,-1,12
 983 545 983 545 1012.5 609.5 c 128,-1,13
 1042 674 1042 674 1063 716 c 2,14,-1
 1475 1490 l 1,15,-1
 1868 1490 l 1,16,-1
 1621 0 l 1,17,-1
 1357 0 l 1,18,-1
 1482 759 l 2,19,20
 1491 808 1491 808 1503.5 875.5 c 128,-1,21
 1516 943 1516 943 1530 1018 c 128,-1,22
 1544 1093 1544 1093 1559 1168.5 c 128,-1,23
 1574 1244 1574 1244 1585 1311 c 1,24,-1
 1611 1307 l 1,25,26
 1576 1230 1576 1230 1539 1149.5 c 128,-1,27
 1502 1069 1502 1069 1467 994.5 c 128,-1,28
 1432 920 1432 920 1402 858 c 128,-1,29
 1372 796 1372 796 1350 755 c 2,30,-1
 945 0 l 1,31,-1
 724 0 l 1,32,-1
 566 758 l 2,33,34
 556 813 556 813 542 903 c 128,-1,35
 528 993 528 993 513 1099.5 c 128,-1,36
 498 1206 498 1206 483 1311 c 1,37,-1
 513 1307 l 1,38,39
 503 1239 503 1239 492.5 1163 c 128,-1,40
 482 1087 482 1087 471.5 1012 c 128,-1,41
 461 937 461 937 451.5 870.5 c 128,-1,42
 442 804 442 804 434 755 c 2,43,-1
 309 0 l 1,44,-1
 47 0 l 1,0,-1
EndSplineSet
Substitution2: "'c2sc' Capitals to Small Capitals in Latin lookup 67 subtable" m.sc
Substitution2: "'ss06' Style Set 6 in Latin lookup 52 subtable" M.squared
Substitution2: "'ss05' Style Set 5 in Latin lookup 51 subtable" uni24C2
Substitution2: "'aalt' Access All Alternates in Latin lookup 0 subtable" m.sc
Position2: "'cpsp' Capital Spacing in Latin lookup 0 subtable" dx=0 dy=0 dh=0 dv=0
EndChar

StartChar: N
Encoding: 78 78 301
Width: 1516
GlyphClass: 2
Flags: W
AnchorPoint: "Anchor-1" 916 1490 basechar 0
AnchorPoint: "Anchor-0" 669 0 basechar 0
LayerCount: 2
Fore
SplineSet
47 0 m 1,0,-1
 294 1490 l 1,1,-1
 582 1490 l 1,2,-1
 966 665 l 2,3,4
 985 624 985 624 1009.5 564.5 c 128,-1,5
 1034 505 1034 505 1060.5 432 c 128,-1,6
 1087 359 1087 359 1110 278 c 1,7,-1
 1078 246 l 1,8,9
 1085 319 1085 319 1095 404.5 c 128,-1,10
 1105 490 1105 490 1116.5 567.5 c 128,-1,11
 1128 645 1128 645 1135 693 c 2,12,-1
 1268 1490 l 1,13,-1
 1536 1490 l 1,14,-1
 1289 0 l 1,15,-1
 1002 0 l 1,16,-1
 654 743 l 2,17,18
 630 798 630 798 601.5 865 c 128,-1,19
 573 932 573 932 539.5 1019.5 c 128,-1,20
 506 1107 506 1107 464 1220 c 1,21,-1
 502 1240 l 1,22,23
 489 1125 489 1125 477.5 1029.5 c 128,-1,24
 466 934 466 934 456 861 c 128,-1,25
 446 788 446 788 438 744 c 2,26,-1
 316 0 l 1,27,-1
 47 0 l 1,0,-1
EndSplineSet
Substitution2: "'c2sc' Capitals to Small Capitals in Latin lookup 67 subtable" n.sc
Substitution2: "'ss06' Style Set 6 in Latin lookup 52 subtable" N.squared
Substitution2: "'ss05' Style Set 5 in Latin lookup 51 subtable" uni24C3
Substitution2: "'aalt' Access All Alternates in Latin lookup 0 subtable" n.sc
Position2: "'cpsp' Capital Spacing in Latin lookup 0 subtable" dx=0 dy=0 dh=0 dv=0
EndChar

StartChar: Nhook
Encoding: 413 413 311
Width: 1516
GlyphClass: 2
Flags: W
AnchorPoint: "Anchor-1" 916 1490 basechar 0
AnchorPoint: "Anchor-0" 669 0 basechar 0
LayerCount: 2
Fore
SplineSet
-235 -418 m 1,0,-1
 -200 -205 l 1,1,2
 -181 -208 -181 -208 -153.5 -208.5 c 128,-1,3
 -126 -209 -126 -209 -104 -209 c 0,4,5
 -38 -209 -38 -209 -9 -186.5 c 128,-1,6
 20 -164 20 -164 28 -115 c 2,7,-1
 67 125 l 1,8,-1
 333 125 l 1,9,-1
 292 -129 l 2,10,11
 267 -275 267 -275 170 -350 c 128,-1,12
 73 -425 73 -425 -93 -425 c 0,13,14
 -137 -425 -137 -425 -173.5 -423 c 128,-1,15
 -210 -421 -210 -421 -235 -418 c 1,0,-1
47 0 m 1,16,-1
 294 1490 l 1,17,-1
 582 1490 l 1,18,-1
 966 665 l 2,19,20
 985 624 985 624 1009.5 564.5 c 128,-1,21
 1034 505 1034 505 1060.5 432 c 128,-1,22
 1087 359 1087 359 1110 278 c 1,23,-1
 1078 246 l 1,24,25
 1085 319 1085 319 1095 404.5 c 128,-1,26
 1105 490 1105 490 1116.5 567.5 c 128,-1,27
 1128 645 1128 645 1135 693 c 2,28,-1
 1268 1490 l 1,29,-1
 1536 1490 l 1,30,-1
 1289 0 l 1,31,-1
 1002 0 l 1,32,-1
 654 743 l 2,33,34
 630 798 630 798 601.5 865 c 128,-1,35
 573 932 573 932 539.5 1019.5 c 128,-1,36
 506 1107 506 1107 464 1220 c 1,37,-1
 502 1240 l 1,38,39
 489 1125 489 1125 477.5 1029.5 c 128,-1,40
 466 934 466 934 456 861 c 128,-1,41
 446 788 446 788 438 744 c 2,42,-1
 316 0 l 1,43,-1
 47 0 l 1,16,-1
EndSplineSet
Position2: "'cpsp' Capital Spacing in Latin lookup 0 subtable" dx=0 dy=0 dh=0 dv=0
EndChar

StartChar: Eng
Encoding: 330 330 312
Width: 1516
GlyphClass: 2
Flags: W
AnchorPoint: "Anchor-1" 916 1490 basechar 0
AnchorPoint: "Anchor-0" 669 0 basechar 0
LayerCount: 2
Fore
SplineSet
745 -418 m 1,0,-1
 780 -205 l 1,1,2
 798 -208 798 -208 825.5 -208.5 c 128,-1,3
 853 -209 853 -209 875 -209 c 0,4,5
 941 -209 941 -209 970 -186.5 c 128,-1,6
 999 -164 999 -164 1007 -115 c 2,7,-1
 1046 125 l 1,8,-1
 1312 125 l 1,9,-1
 1271 -129 l 2,10,11
 1246 -275 1246 -275 1149 -350 c 128,-1,12
 1052 -425 1052 -425 886 -425 c 0,13,14
 842 -425 842 -425 805.5 -423 c 128,-1,15
 769 -421 769 -421 745 -418 c 1,0,-1
47 0 m 1,16,-1
 294 1490 l 1,17,-1
 582 1490 l 1,18,-1
 966 665 l 2,19,20
 985 624 985 624 1009.5 564.5 c 128,-1,21
 1034 505 1034 505 1060.5 432 c 128,-1,22
 1087 359 1087 359 1110 278 c 1,23,-1
 1078 246 l 1,24,25
 1085 319 1085 319 1095 404.5 c 128,-1,26
 1105 490 1105 490 1116.5 567.5 c 128,-1,27
 1128 645 1128 645 1135 693 c 2,28,-1
 1268 1490 l 1,29,-1
 1536 1490 l 1,30,-1
 1289 0 l 1,31,-1
 1002 0 l 1,32,-1
 654 743 l 2,33,34
 630 798 630 798 601.5 865 c 128,-1,35
 573 932 573 932 539.5 1019.5 c 128,-1,36
 506 1107 506 1107 464 1220 c 1,37,-1
 502 1240 l 1,38,39
 489 1125 489 1125 477.5 1029.5 c 128,-1,40
 466 934 466 934 456 861 c 128,-1,41
 446 788 446 788 438 744 c 2,42,-1
 316 0 l 1,43,-1
 47 0 l 1,16,-1
EndSplineSet
Position2: "'cpsp' Capital Spacing in Latin lookup 0 subtable" dx=0 dy=0 dh=0 dv=0
EndChar

StartChar: uni0418
Encoding: 1048 1048 313
Width: 1516
GlyphClass: 2
Flags: W
AnchorPoint: "Anchor-1" 909 1490 basechar 0
AnchorPoint: "Anchor-0" 668 0 basechar 0
LayerCount: 2
Fore
SplineSet
1289 0 m 1,0,-1
 1021 0 l 1,1,-1
 1144 744 l 2,2,3
 1152 789 1152 789 1166 862 c 128,-1,4
 1180 935 1180 935 1199.5 1031 c 128,-1,5
 1219 1127 1219 1127 1244 1240 c 1,6,-1
 1284 1215 l 1,7,8
 1205 1103 1205 1103 1142.5 1015.5 c 128,-1,9
 1080 928 1080 928 1029.5 860 c 128,-1,10
 979 792 979 792 936 738 c 2,11,-1
 345 0 l 1,12,-1
 47 0 l 1,13,-1
 294 1490 l 1,14,-1
 563 1490 l 1,15,-1
 430 693 l 2,16,17
 422 643 422 643 407.5 565.5 c 128,-1,18
 393 488 393 488 375 403.5 c 128,-1,19
 357 319 357 319 339 246 c 1,20,-1
 313 290 l 1,21,22
 363 368 363 368 412.5 439.5 c 128,-1,23
 462 511 462 511 506.5 569.5 c 128,-1,24
 551 628 551 628 584 670 c 2,25,-1
 1240 1490 l 1,26,-1
 1536 1490 l 1,27,-1
 1289 0 l 1,0,-1
EndSplineSet
Position2: "'cpsp' Capital Spacing in Latin lookup 0 subtable" dx=0 dy=0 dh=0 dv=0
EndChar

StartChar: O
Encoding: 79 79 322
Width: 1555
GlyphClass: 2
Flags: W
AnchorPoint: "Anchor-4" 1511 900 basechar 0
AnchorPoint: "Anchor-1" 934 1490 basechar 0
AnchorPoint: "Anchor-0" 688 0 basechar 0
LayerCount: 2
Fore
SplineSet
698 -22 m 0,0,1
 522 -22 522 -22 389.5 52 c 128,-1,2
 257 126 257 126 183.5 263 c 128,-1,3
 110 400 110 400 110 590 c 0,4,5
 110 770 110 770 167.5 936 c 128,-1,6
 225 1102 225 1102 332.5 1231.5 c 128,-1,7
 440 1361 440 1361 590 1436.5 c 128,-1,8
 740 1512 740 1512 923 1512 c 0,9,10
 1099 1512 1099 1512 1231.5 1438.5 c 128,-1,11
 1364 1365 1364 1365 1437.5 1228 c 128,-1,12
 1511 1091 1511 1091 1511 900 c 0,13,14
 1511 719 1511 719 1453 553.5 c 128,-1,15
 1395 388 1395 388 1287.5 258 c 128,-1,16
 1180 128 1180 128 1030.5 53 c 128,-1,17
 881 -22 881 -22 698 -22 c 0,0,1
709 216 m 0,18,19
 837 216 837 216 937 275.5 c 128,-1,20
 1037 335 1037 335 1106 434 c 128,-1,21
 1175 533 1175 533 1210.5 654 c 128,-1,22
 1246 775 1246 775 1246 899 c 0,23,24
 1246 1022 1246 1022 1204.5 1105 c 128,-1,25
 1163 1188 1163 1188 1088 1231 c 128,-1,26
 1013 1274 1013 1274 912 1274 c 0,27,28
 785 1274 785 1274 684.5 1214.5 c 128,-1,29
 584 1155 584 1155 515 1056 c 128,-1,30
 446 957 446 957 410.5 836 c 128,-1,31
 375 715 375 715 375 592 c 0,32,33
 375 470 375 470 416.5 386.5 c 128,-1,34
 458 303 458 303 533 259.5 c 128,-1,35
 608 216 608 216 709 216 c 0,18,19
EndSplineSet
Substitution2: "'ss06' Style Set 6 in Latin lookup 52 subtable" O.squared
Substitution2: "'ss05' Style Set 5 in Latin lookup 51 subtable" uni24C4
Substitution2: "Single Substitution lookup 44 subtable" ordmasculine
Substitution2: "'aalt' Access All Alternates in Latin lookup 0 subtable" ordmasculine
Position2: "'cpsp' Capital Spacing in Latin lookup 0 subtable" dx=0 dy=0 dh=0 dv=0
EndChar

StartChar: Ohorn
Encoding: 416 416 326
Width: 1558
GlyphClass: 2
Flags: W
AnchorPoint: "Anchor-4" 1511 900 basechar 0
AnchorPoint: "Anchor-1" 934 1490 basechar 0
AnchorPoint: "Anchor-0" 688 0 basechar 0
LayerCount: 2
Fore
SplineSet
911 1340 m 1,0,-1
 940 1512 l 1,1,2
 983 1512 983 1512 1014.5 1510 c 128,-1,3
 1046 1508 1046 1508 1075.5 1504.5 c 128,-1,4
 1105 1501 1105 1501 1142.5 1498 c 128,-1,5
 1180 1495 1180 1495 1233.5 1492.5 c 128,-1,6
 1287 1490 1287 1490 1367 1490 c 0,7,8
 1389 1490 1389 1490 1394 1513 c 2,9,-1
 1426 1714 l 1,10,-1
 1660 1714 l 1,11,-1
 1626 1504 l 2,12,13
 1610 1407 1610 1407 1548.5 1362 c 128,-1,14
 1487 1317 1487 1317 1393 1317 c 0,15,16
 1346 1317 1346 1317 1303.5 1321 c 128,-1,17
 1261 1325 1261 1325 1210 1329.5 c 128,-1,18
 1159 1334 1159 1334 1087.5 1337 c 128,-1,19
 1016 1340 1016 1340 911 1340 c 1,0,-1
698 -22 m 0,20,21
 522 -22 522 -22 389.5 52 c 128,-1,22
 257 126 257 126 183.5 263 c 128,-1,23
 110 400 110 400 110 590 c 0,24,25
 110 770 110 770 167.5 936 c 128,-1,26
 225 1102 225 1102 332.5 1231.5 c 128,-1,27
 440 1361 440 1361 590 1436.5 c 128,-1,28
 740 1512 740 1512 923 1512 c 0,29,30
 1099 1512 1099 1512 1231.5 1438.5 c 128,-1,31
 1364 1365 1364 1365 1437.5 1228 c 128,-1,32
 1511 1091 1511 1091 1511 900 c 0,33,34
 1511 719 1511 719 1453 553.5 c 128,-1,35
 1395 388 1395 388 1287.5 258 c 128,-1,36
 1180 128 1180 128 1030.5 53 c 128,-1,37
 881 -22 881 -22 698 -22 c 0,20,21
709 216 m 0,38,39
 837 216 837 216 937 275.5 c 128,-1,40
 1037 335 1037 335 1106 434 c 128,-1,41
 1175 533 1175 533 1210.5 654 c 128,-1,42
 1246 775 1246 775 1246 899 c 0,43,44
 1246 1022 1246 1022 1204.5 1105 c 128,-1,45
 1163 1188 1163 1188 1088 1231 c 128,-1,46
 1013 1274 1013 1274 912 1274 c 0,47,48
 785 1274 785 1274 684.5 1214.5 c 128,-1,49
 584 1155 584 1155 515 1056 c 128,-1,50
 446 957 446 957 410.5 836 c 128,-1,51
 375 715 375 715 375 592 c 0,52,53
 375 470 375 470 416.5 386.5 c 128,-1,54
 458 303 458 303 533 259.5 c 128,-1,55
 608 216 608 216 709 216 c 0,38,39
EndSplineSet
Position2: "'cpsp' Capital Spacing in Latin lookup 0 subtable" dx=0 dy=0 dh=0 dv=0
EndChar

StartChar: uni03F4
Encoding: 1012 1012 368
Width: 1555
GlyphClass: 2
Flags: W
AnchorPoint: "Anchor-4" 1511 900 basechar 0
AnchorPoint: "Anchor-1" 934 1490 basechar 0
AnchorPoint: "Anchor-0" 688 0 basechar 0
LayerCount: 2
Fore
SplineSet
1315 838 m 1,0,-1
 1293 651 l 1,1,-1
 309 651 l 1,2,-1
 331 838 l 1,3,-1
 1315 838 l 1,0,-1
698 -22 m 0,4,5
 522 -22 522 -22 389.5 52 c 128,-1,6
 257 126 257 126 183.5 263 c 128,-1,7
 110 400 110 400 110 590 c 0,8,9
 110 770 110 770 167.5 936 c 128,-1,10
 225 1102 225 1102 332.5 1231.5 c 128,-1,11
 440 1361 440 1361 590 1436.5 c 128,-1,12
 740 1512 740 1512 923 1512 c 0,13,14
 1099 1512 1099 1512 1231.5 1438.5 c 128,-1,15
 1364 1365 1364 1365 1437.5 1228 c 128,-1,16
 1511 1091 1511 1091 1511 900 c 0,17,18
 1511 719 1511 719 1453 553.5 c 128,-1,19
 1395 388 1395 388 1287.5 258 c 128,-1,20
 1180 128 1180 128 1030.5 53 c 128,-1,21
 881 -22 881 -22 698 -22 c 0,4,5
709 216 m 0,22,23
 837 216 837 216 937 275.5 c 128,-1,24
 1037 335 1037 335 1106 434 c 128,-1,25
 1175 533 1175 533 1210.5 654 c 128,-1,26
 1246 775 1246 775 1246 899 c 0,27,28
 1246 1022 1246 1022 1204.5 1105 c 128,-1,29
 1163 1188 1163 1188 1088 1231 c 128,-1,30
 1013 1274 1013 1274 912 1274 c 0,31,32
 785 1274 785 1274 684.5 1214.5 c 128,-1,33
 584 1155 584 1155 515 1056 c 128,-1,34
 446 957 446 957 410.5 836 c 128,-1,35
 375 715 375 715 375 592 c 0,36,37
 375 470 375 470 416.5 386.5 c 128,-1,38
 458 303 458 303 533 259.5 c 128,-1,39
 608 216 608 216 709 216 c 0,22,23
EndSplineSet
Position2: "'cpsp' Capital Spacing in Latin lookup 0 subtable" dx=0 dy=0 dh=0 dv=0
EndChar

StartChar: OE
Encoding: 338 338 375
Width: 2051
GlyphClass: 2
Flags: W
AnchorPoint: "Anchor-4" 1866 0 basechar 0
AnchorPoint: "Anchor-3" 1368 0 basechar 0
AnchorPoint: "Anchor-1" 1613 1490 basechar 0
AnchorPoint: "Anchor-0" 1366 0 basechar 0
LayerCount: 2
Fore
SplineSet
695 0 m 2,0,1
 483 0 483 0 341 90 c 128,-1,2
 199 180 199 180 141 347 c 128,-1,3
 83 514 83 514 121 745 c 0,4,5
 159 978 159 978 273 1144.5 c 128,-1,6
 387 1311 387 1311 557.5 1400.5 c 128,-1,7
 728 1490 728 1490 936 1490 c 2,8,-1
 1233 1490 l 1,9,-1
 1196 1267 l 1,10,-1
 908 1267 l 2,11,12
 769 1267 769 1267 660.5 1207 c 128,-1,13
 552 1147 552 1147 481 1030.5 c 128,-1,14
 410 914 410 914 381 745 c 0,15,16
 354 577 354 577 387 461 c 128,-1,17
 420 345 420 345 509 284 c 128,-1,18
 598 223 598 223 740 223 c 2,19,-1
 1021 223 l 1,20,-1
 982 0 l 1,21,-1
 695 0 l 2,0,1
863 0 m 1,22,-1
 1110 1490 l 1,23,-1
 2112 1490 l 1,24,-1
 2074 1264 l 1,25,-1
 1338 1264 l 1,26,-1
 1273 867 l 1,27,-1
 1954 867 l 1,28,-1
 1916 643 l 1,29,-1
 1235 643 l 1,30,-1
 1166 227 l 1,31,-1
 1904 227 l 1,32,-1
 1866 0 l 1,33,-1
 863 0 l 1,22,-1
EndSplineSet
Substitution2: "'c2sc' Capitals to Small Capitals in Latin lookup 67 subtable" oe.sc
Substitution2: "'aalt' Access All Alternates in Latin lookup 0 subtable" oe.sc
Position2: "'cpsp' Capital Spacing in Latin lookup 0 subtable" dx=0 dy=0 dh=0 dv=0
EndChar

StartChar: P
Encoding: 80 80 376
Width: 1300
GlyphClass: 2
Flags: W
AnchorPoint: "Anchor-1" 799 1490 basechar 0
LayerCount: 2
Fore
SplineSet
47 0 m 1,0,-1
 294 1490 l 1,1,-1
 855 1490 l 2,2,3
 1022 1490 1022 1490 1130.5 1429 c 128,-1,4
 1239 1368 1239 1368 1284 1258 c 128,-1,5
 1329 1148 1329 1148 1306 1003 c 0,6,7
 1283 859 1283 859 1201.5 750 c 128,-1,8
 1120 641 1120 641 990 580.5 c 128,-1,9
 860 520 860 520 692 520 c 2,10,-1
 297 520 l 1,11,-1
 334 744 l 1,12,-1
 706 744 l 2,13,14
 803 744 803 744 872.5 777 c 128,-1,15
 942 810 942 810 984.5 869 c 128,-1,16
 1027 928 1027 928 1039 1006 c 0,17,18
 1052 1085 1052 1085 1029 1143 c 128,-1,19
 1006 1201 1006 1201 947 1233.5 c 128,-1,20
 888 1266 888 1266 792 1266 c 2,21,-1
 523 1266 l 1,22,-1
 313 0 l 1,23,-1
 47 0 l 1,0,-1
EndSplineSet
Substitution2: "'ss06' Style Set 6 in Latin lookup 52 subtable" P.squared
Substitution2: "'ss05' Style Set 5 in Latin lookup 51 subtable" uni24C5
Position2: "'cpsp' Capital Spacing in Latin lookup 0 subtable" dx=0 dy=0 dh=0 dv=0
EndChar

StartChar: uni048E
Encoding: 1166 1166 379
Width: 1305
GlyphClass: 2
Flags: W
AnchorPoint: "Anchor-1" 803 1490 basechar 0
LayerCount: 2
Fore
SplineSet
837 970 m 1,0,-1
 1112 443 l 1,1,-1
 969 358 l 1,2,-1
 694 885 l 1,3,-1
 837 970 l 1,0,-1
50 0 m 1,4,-1
 297 1490 l 1,5,-1
 858 1490 l 2,6,7
 1026 1490 1026 1490 1134.5 1429 c 128,-1,8
 1243 1368 1243 1368 1288 1258 c 128,-1,9
 1333 1148 1333 1148 1310 1003 c 0,10,11
 1286 859 1286 859 1204.5 750 c 128,-1,12
 1123 641 1123 641 993.5 580.5 c 128,-1,13
 864 520 864 520 695 520 c 2,14,-1
 301 520 l 1,15,-1
 338 744 l 1,16,-1
 709 744 l 2,17,18
 806 744 806 744 875.5 777 c 128,-1,19
 945 810 945 810 987.5 869 c 128,-1,20
 1030 928 1030 928 1042 1006 c 0,21,22
 1056 1085 1056 1085 1032.5 1143 c 128,-1,23
 1009 1201 1009 1201 950.5 1233.5 c 128,-1,24
 892 1266 892 1266 796 1266 c 2,25,-1
 526 1266 l 1,26,-1
 316 0 l 1,27,-1
 50 0 l 1,4,-1
EndSplineSet
Position2: "'cpsp' Capital Spacing in Latin lookup 0 subtable" dx=0 dy=0 dh=0 dv=0
EndChar

StartChar: uni01A4
Encoding: 420 420 380
Width: 1652
GlyphClass: 2
Flags: W
AnchorPoint: "Anchor-1" 1151 1490 basechar 0
LayerCount: 2
Fore
SplineSet
131 1060 m 1,0,-1
 150 1177 l 2,1,2
 175 1331 175 1331 271.5 1410.5 c 128,-1,3
 368 1490 368 1490 541 1490 c 2,4,-1
 646 1490 l 1,5,-1
 609 1266 l 1,6,-1
 527 1266 l 2,7,8
 467 1266 467 1266 434 1240 c 128,-1,9
 401 1214 401 1214 392 1158 c 2,10,-1
 376 1060 l 1,11,-1
 131 1060 l 1,0,-1
399 0 m 1,12,-1
 646 1490 l 1,13,-1
 1207 1490 l 2,14,15
 1374 1490 1374 1490 1482.5 1429 c 128,-1,16
 1591 1368 1591 1368 1636 1258 c 128,-1,17
 1681 1148 1681 1148 1658 1003 c 0,18,19
 1635 859 1635 859 1553.5 750 c 128,-1,20
 1472 641 1472 641 1342 580.5 c 128,-1,21
 1212 520 1212 520 1044 520 c 2,22,-1
 649 520 l 1,23,-1
 686 744 l 1,24,-1
 1058 744 l 2,25,26
 1155 744 1155 744 1224.5 777 c 128,-1,27
 1294 810 1294 810 1336.5 869 c 128,-1,28
 1379 928 1379 928 1391 1006 c 0,29,30
 1404 1085 1404 1085 1381 1143 c 128,-1,31
 1358 1201 1358 1201 1299 1233.5 c 128,-1,32
 1240 1266 1240 1266 1144 1266 c 2,33,-1
 875 1266 l 1,34,-1
 665 0 l 1,35,-1
 399 0 l 1,12,-1
EndSplineSet
Position2: "'cpsp' Capital Spacing in Latin lookup 0 subtable" dx=0 dy=0 dh=0 dv=0
EndChar

StartChar: Q
Encoding: 81 81 383
Width: 1555
GlyphClass: 2
Flags: W
AnchorPoint: "Anchor-4" 1511 900 basechar 0
AnchorPoint: "Anchor-1" 934 1490 basechar 0
AnchorPoint: "Anchor-0" 688 0 basechar 0
LayerCount: 2
Fore
SplineSet
694 497 m 1,0,-1
 914 497 l 1,1,-1
 1030 306 l 1,2,-1
 1107 191 l 1,3,-1
 1304 -129 l 1,4,-1
 1070 -129 l 1,5,-1
 939 84 l 1,6,-1
 881 182 l 1,7,-1
 694 497 l 1,0,-1
698 -22 m 0,8,9
 522 -22 522 -22 389.5 52 c 128,-1,10
 257 126 257 126 183.5 263 c 128,-1,11
 110 400 110 400 110 590 c 0,12,13
 110 770 110 770 167.5 936 c 128,-1,14
 225 1102 225 1102 332.5 1231.5 c 128,-1,15
 440 1361 440 1361 590 1436.5 c 128,-1,16
 740 1512 740 1512 923 1512 c 0,17,18
 1099 1512 1099 1512 1231.5 1438.5 c 128,-1,19
 1364 1365 1364 1365 1437.5 1228 c 128,-1,20
 1511 1091 1511 1091 1511 900 c 0,21,22
 1511 719 1511 719 1453 553.5 c 128,-1,23
 1395 388 1395 388 1287.5 258 c 128,-1,24
 1180 128 1180 128 1030.5 53 c 128,-1,25
 881 -22 881 -22 698 -22 c 0,8,9
709 216 m 0,26,27
 837 216 837 216 937 275.5 c 128,-1,28
 1037 335 1037 335 1106 434 c 128,-1,29
 1175 533 1175 533 1210.5 654 c 128,-1,30
 1246 775 1246 775 1246 899 c 0,31,32
 1246 1022 1246 1022 1204.5 1105 c 128,-1,33
 1163 1188 1163 1188 1088 1231 c 128,-1,34
 1013 1274 1013 1274 912 1274 c 0,35,36
 785 1274 785 1274 684.5 1214.5 c 128,-1,37
 584 1155 584 1155 515 1056 c 128,-1,38
 446 957 446 957 410.5 836 c 128,-1,39
 375 715 375 715 375 592 c 0,40,41
 375 470 375 470 416.5 386.5 c 128,-1,42
 458 303 458 303 533 259.5 c 128,-1,43
 608 216 608 216 709 216 c 0,26,27
EndSplineSet
Substitution2: "'ss06' Style Set 6 in Latin lookup 52 subtable" Q.squared
Substitution2: "'ss05' Style Set 5 in Latin lookup 51 subtable" uni24C6
Position2: "'cpsp' Capital Spacing in Latin lookup 0 subtable" dx=0 dy=0 dh=0 dv=0
EndChar

StartChar: Q_rthook
Encoding: 586 586 384
Width: 1560
GlyphClass: 2
Flags: W
LayerCount: 2
Fore
SplineSet
1579 1490 m 1,0,-1
 1332 0 l 1,1,-1
 1076 0 l 1,2,-1
 1113 226 l 1,3,-1
 1107 226 l 1,4,5
 1031 111 1031 111 905.5 44 c 128,-1,6
 780 -23 780 -23 630 -23 c 0,7,8
 492 -23 492 -23 385.5 34 c 128,-1,9
 279 91 279 91 210.5 194 c 128,-1,10
 142 297 142 297 118 437 c 128,-1,11
 94 577 94 577 121 742 c 0,12,13
 148 908 148 908 218 1048.5 c 128,-1,14
 288 1189 288 1189 390.5 1293 c 128,-1,15
 493 1397 493 1397 619 1454 c 128,-1,16
 745 1511 745 1511 885 1511 c 0,17,18
 1035 1511 1035 1511 1138 1445 c 128,-1,19
 1241 1379 1241 1379 1279 1270 c 1,20,-1
 1286 1270 l 1,21,-1
 1323 1490 l 1,22,-1
 1579 1490 l 1,0,-1
707 216 m 0,23,24
 840 216 840 216 940.5 282 c 128,-1,25
 1041 348 1041 348 1107 467.5 c 128,-1,26
 1173 587 1173 587 1200 746 c 0,27,28
 1226 903 1226 903 1199.5 1023 c 128,-1,29
 1173 1143 1173 1143 1094 1209.5 c 128,-1,30
 1015 1276 1015 1276 884 1276 c 0,31,32
 761 1276 761 1276 658 1210 c 128,-1,33
 555 1144 555 1144 484.5 1024.5 c 128,-1,34
 414 905 414 905 389 745 c 0,35,36
 362 583 362 583 392.5 463.5 c 128,-1,37
 423 344 423 344 504 280 c 128,-1,38
 585 216 585 216 707 216 c 0,23,24
1338 -425 m 0,39,40
 1173 -425 1173 -425 1101.5 -350.5 c 128,-1,41
 1030 -276 1030 -276 1054 -129 c 2,42,-1
 1076 0 l 1,43,-1
 1332 0 l 1,44,-1
 1312 -125 l 2,45,46
 1303 -174 1303 -174 1327 -197 c 128,-1,47
 1351 -220 1351 -220 1416 -220 c 0,48,49
 1438 -220 1438 -220 1465.5 -219 c 128,-1,50
 1493 -218 1493 -218 1512 -217 c 1,51,-1
 1479 -418 l 1,52,53
 1453 -421 1453 -421 1417 -423 c 128,-1,54
 1381 -425 1381 -425 1338 -425 c 0,39,40
EndSplineSet
Position2: "'cpsp' Capital Spacing in Latin lookup 0 subtable" dx=0 dy=0 dh=0 dv=0
EndChar

StartChar: R
Encoding: 82 82 385
Width: 1328
GlyphClass: 2
Flags: W
AnchorPoint: "Anchor-1" 811 1490 basechar 0
AnchorPoint: "Anchor-0" 584 0 basechar 0
LayerCount: 2
Fore
SplineSet
47 0 m 1,0,-1
 294 1490 l 1,1,-1
 861 1490 l 2,2,3
 1029 1490 1029 1490 1137.5 1431 c 128,-1,4
 1246 1372 1246 1372 1291.5 1265 c 128,-1,5
 1337 1158 1337 1158 1313 1013 c 0,6,7
 1290 871 1290 871 1208 765.5 c 128,-1,8
 1126 660 1126 660 995.5 602.5 c 128,-1,9
 865 545 865 545 696 545 c 2,10,-1
 293 545 l 1,11,-1
 329 764 l 1,12,-1
 716 764 l 2,13,14
 812 764 812 764 881 794.5 c 128,-1,15
 950 825 950 825 992 881.5 c 128,-1,16
 1034 938 1034 938 1047 1016 c 0,17,18
 1067 1136 1067 1136 1003 1201.5 c 128,-1,19
 939 1267 939 1267 798 1267 c 2,20,-1
 523 1267 l 1,21,-1
 313 0 l 1,22,-1
 47 0 l 1,0,-1
900 0 m 1,23,-1
 657 675 l 1,24,-1
 937 675 l 1,25,-1
 1187 0 l 1,26,-1
 900 0 l 1,23,-1
EndSplineSet
Substitution2: "'c2sc' Capitals to Small Capitals in Latin lookup 67 subtable" r.sc
Substitution2: "'ss06' Style Set 6 in Latin lookup 52 subtable" R.squared
Substitution2: "'ss05' Style Set 5 in Latin lookup 51 subtable" uni24C7
Substitution2: "'aalt' Access All Alternates in Latin lookup 0 subtable" r.sc
Position2: "'cpsp' Capital Spacing in Latin lookup 0 subtable" dx=0 dy=0 dh=0 dv=0
EndChar

StartChar: uni211F
Encoding: 8479 8479 395
Width: 1303
GlyphClass: 2
Flags: W
AnchorPoint: "Anchor-1" 814 1490 basechar 0
AnchorPoint: "Anchor-0" 587 0 basechar 0
LayerCount: 2
Fore
SplineSet
1149 1693 m 1,0,-1
 310 -361 l 1,1,-1
 198 -341 l 1,2,-1
 1002 1618 l 1,3,-1
 698 1702 l 1,4,-1
 751 1810 l 1,5,-1
 1149 1693 l 1,0,-1
50 0 m 1,6,-1
 297 1490 l 1,7,-1
 864 1490 l 2,8,9
 1032 1490 1032 1490 1140.5 1431 c 128,-1,10
 1249 1372 1249 1372 1294.5 1265 c 128,-1,11
 1340 1158 1340 1158 1316 1013 c 0,12,13
 1293 871 1293 871 1211 765.5 c 128,-1,14
 1129 660 1129 660 998.5 602.5 c 128,-1,15
 868 545 868 545 699 545 c 2,16,-1
 296 545 l 1,17,-1
 332 764 l 1,18,-1
 719 764 l 2,19,20
 815 764 815 764 884 794.5 c 128,-1,21
 953 825 953 825 995 881.5 c 128,-1,22
 1037 938 1037 938 1050 1016 c 0,23,24
 1070 1136 1070 1136 1006 1201.5 c 128,-1,25
 942 1267 942 1267 801 1267 c 2,26,-1
 526 1267 l 1,27,-1
 316 0 l 1,28,-1
 50 0 l 1,6,-1
903 0 m 1,29,-1
 660 675 l 1,30,-1
 940 675 l 1,31,-1
 1190 0 l 1,32,-1
 903 0 l 1,29,-1
EndSplineSet
EndChar

StartChar: Rx
Encoding: 8478 8478 396
Width: 1480
Flags: W
LayerCount: 2
Fore
SplineSet
294 1490 m 1,0,-1
 840 1490 l 2,1,2
 1019 1490 1019 1490 1126 1431 c 128,-1,3
 1233 1372 1233 1372 1273 1268 c 128,-1,4
 1313 1164 1313 1164 1289 1028 c 0,5,6
 1270 911 1270 911 1214 822.5 c 128,-1,7
 1158 734 1158 734 1073.5 675.5 c 128,-1,8
 989 617 989 617 882 586 c 1,9,-1
 815 562 l 1,10,-1
 319 562 l 1,11,-1
 356 787 l 1,12,-1
 713 787 l 2,13,14
 810 786 810 786 875.5 815 c 128,-1,15
 941 844 941 844 978.5 897.5 c 128,-1,16
 1016 951 1016 951 1028 1024 c 0,17,18
 1037 1072 1037 1072 1030.5 1115.5 c 128,-1,19
 1024 1159 1024 1159 999.5 1193 c 128,-1,20
 975 1227 975 1227 927 1247.5 c 128,-1,21
 879 1268 879 1268 803 1268 c 2,22,-1
 521 1269 l 1,23,-1
 311 0 l 1,24,-1
 47 0 l 1,25,-1
 294 1490 l 1,0,-1
1067 0 m 1,26,-1
 696 667 l 1,27,-1
 938 667 l 1,28,-1
 1315 0 l 1,29,-1
 1067 0 l 1,26,-1
813 0 m 1,30,-1
 595 0 l 1,31,-1
 1193 667 l 1,32,-1
 1403 667 l 1,33,-1
 813 0 l 1,30,-1
EndSplineSet
EndChar

StartChar: uni024C
Encoding: 588 588 397
Width: 1326
GlyphClass: 2
Flags: W
AnchorPoint: "Anchor-1" 838 1490 basechar 0
AnchorPoint: "Anchor-0" 611 0 basechar 0
LayerCount: 2
Fore
SplineSet
321 562 m 1,0,-1
 11 562 l 1,1,-1
 45 768 l 1,2,-1
 354 768 l 1,3,-1
 321 562 l 1,0,-1
73 0 m 1,4,-1
 320 1490 l 1,5,-1
 888 1490 l 2,6,7
 1056 1490 1056 1490 1164.5 1431 c 128,-1,8
 1273 1372 1273 1372 1318.5 1265 c 128,-1,9
 1364 1158 1364 1158 1339 1013 c 0,10,11
 1316 871 1316 871 1234.5 765.5 c 128,-1,12
 1153 660 1153 660 1022.5 602.5 c 128,-1,13
 892 545 892 545 723 545 c 2,14,-1
 320 545 l 1,15,-1
 356 764 l 1,16,-1
 743 764 l 2,17,18
 838 764 838 764 907.5 794.5 c 128,-1,19
 977 825 977 825 1018.5 881.5 c 128,-1,20
 1060 938 1060 938 1074 1016 c 0,21,22
 1094 1136 1094 1136 1030 1201.5 c 128,-1,23
 966 1267 966 1267 825 1267 c 2,24,-1
 550 1267 l 1,25,-1
 339 0 l 1,26,-1
 73 0 l 1,4,-1
927 0 m 1,27,-1
 684 675 l 1,28,-1
 963 675 l 1,29,-1
 1213 0 l 1,30,-1
 927 0 l 1,27,-1
EndSplineSet
Position2: "'cpsp' Capital Spacing in Latin lookup 0 subtable" dx=0 dy=0 dh=0 dv=0
EndChar

StartChar: S
Encoding: 83 83 398
Width: 1321
GlyphClass: 2
Flags: W
AnchorPoint: "Anchor-3" 573 0 basechar 0
AnchorPoint: "Anchor-1" 816 1490 basechar 0
AnchorPoint: "Anchor-0" 574 0 basechar 0
LayerCount: 2
Fore
SplineSet
590 -24 m 0,0,1
 410 -24 410 -24 286 34 c 128,-1,2
 162 92 162 92 105.5 200.5 c 128,-1,3
 49 309 49 309 71 462 c 1,4,-1
 332 462 l 1,5,6
 321 378 321 378 352.5 320 c 128,-1,7
 384 262 384 262 449.5 232 c 128,-1,8
 515 202 515 202 608 202 c 0,9,10
 700 202 700 202 773.5 229.5 c 128,-1,11
 847 257 847 257 894 306 c 128,-1,12
 941 355 941 355 952 421 c 0,13,14
 961 476 961 476 937.5 514 c 128,-1,15
 914 552 914 552 858.5 579 c 128,-1,16
 803 606 803 606 717 628 c 2,17,-1
 558 669 l 2,18,19
 365 717 365 717 272.5 816 c 128,-1,20
 180 915 180 915 208 1078 c 0,21,22
 229 1209 229 1209 311 1307 c 128,-1,23
 393 1405 393 1405 521.5 1458.5 c 128,-1,24
 650 1512 650 1512 809 1512 c 0,25,26
 972 1512 972 1512 1087.5 1456 c 128,-1,27
 1203 1400 1203 1400 1258 1298.5 c 128,-1,28
 1313 1197 1313 1197 1293 1060 c 1,29,-1
 1039 1060 l 1,30,31
 1047 1167 1047 1167 980.5 1227 c 128,-1,32
 914 1287 914 1287 789 1287 c 0,33,34
 704 1287 704 1287 637 1261 c 128,-1,35
 570 1235 570 1235 527.5 1188.5 c 128,-1,36
 485 1142 485 1142 475 1082 c 0,37,38
 466 1027 466 1027 491.5 989.5 c 128,-1,39
 517 952 517 952 571 926.5 c 128,-1,40
 625 901 625 901 701 881 c 2,41,-1
 840 846 l 2,42,43
 935 823 935 823 1011 787 c 128,-1,44
 1087 751 1087 751 1138 699.5 c 128,-1,45
 1189 648 1189 648 1209.5 578 c 128,-1,46
 1230 508 1230 508 1215 417 c 0,47,48
 1194 283 1194 283 1112.5 184 c 128,-1,49
 1031 85 1031 85 899 30.5 c 128,-1,50
 767 -24 767 -24 590 -24 c 0,0,1
EndSplineSet
Substitution2: "'ss06' Style Set 6 in Latin lookup 52 subtable" S.squared
Substitution2: "'ss05' Style Set 5 in Latin lookup 51 subtable" uni24C8
Position2: "'cpsp' Capital Spacing in Latin lookup 0 subtable" dx=0 dy=0 dh=0 dv=0
EndChar

StartChar: uni01A7
Encoding: 423 423 410
Width: 1322
GlyphClass: 2
Flags: W
AnchorPoint: "Anchor-3" 568 0 basechar 0
AnchorPoint: "Anchor-1" 820 1490 basechar 0
AnchorPoint: "Anchor-0" 567 0 basechar 0
LayerCount: 2
Fore
SplineSet
570 -24 m 256,0,1
 392 -24 392 -24 271 32.5 c 128,-1,2
 150 89 150 89 96 189.5 c 128,-1,3
 42 290 42 290 65 424 c 0,4,5
 80 514 80 514 122.5 582.5 c 128,-1,6
 165 651 165 651 232 702 c 128,-1,7
 299 753 299 753 386.5 788.5 c 128,-1,8
 474 824 474 824 577 847 c 2,9,-1
 728 882 l 2,10,11
 811 901 811 901 874 927 c 128,-1,12
 937 953 937 953 976.5 991.5 c 128,-1,13
 1016 1030 1016 1030 1025 1086 c 0,14,15
 1034 1146 1034 1146 1009.5 1191 c 128,-1,16
 985 1236 985 1236 929.5 1261.5 c 128,-1,17
 874 1287 874 1287 791 1287 c 256,18,19
 708 1287 708 1287 637.5 1259.5 c 128,-1,20
 567 1232 567 1232 519.5 1181.5 c 128,-1,21
 472 1131 472 1131 454 1060 c 1,22,-1
 199 1060 l 1,23,24
 226 1196 226 1196 307.5 1298 c 128,-1,25
 389 1400 389 1400 517 1456 c 128,-1,26
 645 1512 645 1512 806 1512 c 0,27,28
 968 1512 968 1512 1084 1457 c 128,-1,29
 1200 1402 1200 1402 1256 1303 c 128,-1,30
 1312 1204 1312 1204 1289 1070 c 0,31,32
 1263 912 1263 912 1140.5 814 c 128,-1,33
 1018 716 1018 716 808 667 c 2,34,-1
 636 627 l 2,35,36
 543 605 543 605 477 577.5 c 128,-1,37
 411 550 411 550 374.5 511.5 c 128,-1,38
 338 473 338 473 329 417 c 0,39,40
 312 320 312 320 382 261 c 128,-1,41
 452 202 452 202 587 202 c 0,42,43
 681 202 681 202 759.5 232 c 128,-1,44
 838 262 838 262 892 320 c 128,-1,45
 946 378 946 378 963 462 c 1,46,-1
 1224 462 l 1,47,48
 1196 310 1196 310 1109 201 c 128,-1,49
 1022 92 1022 92 885 34 c 128,-1,50
 748 -24 748 -24 570 -24 c 256,0,1
EndSplineSet
Position2: "'cpsp' Capital Spacing in Latin lookup 0 subtable" dx=0 dy=0 dh=0 dv=0
EndChar

StartChar: uni1E9E
Encoding: 7838 7838 411
Width: 1419
Flags: W
LayerCount: 2
Fore
SplineSet
47 0 m 1,0,-1
 210 985 l 2,1,2
 239 1154 239 1154 317 1271 c 128,-1,3
 395 1388 395 1388 518.5 1449 c 128,-1,4
 642 1510 642 1510 805 1510 c 0,5,6
 917 1510 917 1510 1016.5 1478 c 128,-1,7
 1116 1446 1116 1446 1200.5 1391 c 128,-1,8
 1285 1336 1285 1336 1354 1265 c 1,9,-1
 955 859 l 1,10,11
 1088 846 1088 846 1175 788.5 c 128,-1,12
 1262 731 1262 731 1298.5 639 c 128,-1,13
 1335 547 1335 547 1316 427 c 0,14,15
 1292 287 1292 287 1209 187.5 c 128,-1,16
 1126 88 1126 88 1000 34 c 128,-1,17
 874 -20 874 -20 723 -20 c 0,18,19
 645 -20 645 -20 566.5 -5.5 c 128,-1,20
 488 9 488 9 422 37 c 1,21,-1
 532 243 l 1,22,23
 575 225 575 225 629 210 c 128,-1,24
 683 195 683 195 745 195 c 0,25,26
 870 195 870 195 950 257 c 128,-1,27
 1030 319 1030 319 1049 429 c 0,28,29
 1060 495 1060 495 1046.5 540.5 c 128,-1,30
 1033 586 1033 586 1003 613.5 c 128,-1,31
 973 641 973 641 935.5 656 c 128,-1,32
 898 671 898 671 859.5 675.5 c 128,-1,33
 821 680 821 680 793 680 c 2,34,-1
 652 680 l 1,35,-1
 681 857 l 1,36,-1
 1019 1207 l 1,37,38
 980 1241 980 1241 919.5 1267.5 c 128,-1,39
 859 1294 859 1294 775 1294 c 0,40,41
 680 1294 680 1294 618.5 1252 c 128,-1,42
 557 1210 557 1210 523 1139 c 128,-1,43
 489 1068 489 1068 474 982 c 2,44,-1
 311 0 l 1,45,-1
 47 0 l 1,0,-1
EndSplineSet
Position2: "'cpsp' Capital Spacing in Latin lookup 0 subtable" dx=0 dy=0 dh=0 dv=0
EndChar

StartChar: T
Encoding: 84 84 412
Width: 1320
GlyphClass: 2
Flags: W
AnchorPoint: "Anchor-3" 569 0 basechar 0
AnchorPoint: "Anchor-1" 817 1490 basechar 0
AnchorPoint: "Anchor-0" 570 0 basechar 0
LayerCount: 2
Fore
SplineSet
185 1264 m 1,0,-1
 222 1490 l 1,1,-1
 1411 1490 l 1,2,-1
 1374 1264 l 1,3,-1
 912 1264 l 1,4,-1
 704 0 l 1,5,-1
 438 0 l 1,6,-1
 646 1264 l 1,7,-1
 185 1264 l 1,0,-1
EndSplineSet
Substitution2: "'c2sc' Capitals to Small Capitals in Latin lookup 67 subtable" t.sc
Substitution2: "'ss06' Style Set 6 in Latin lookup 52 subtable" T.squared
Substitution2: "'ss05' Style Set 5 in Latin lookup 51 subtable" uni24C9
Substitution2: "'aalt' Access All Alternates in Latin lookup 0 subtable" t.sc
Position2: "'cpsp' Capital Spacing in Latin lookup 0 subtable" dx=0 dy=0 dh=0 dv=0
EndChar

StartChar: uni01AC
Encoding: 428 428 420
Width: 1390
GlyphClass: 2
Flags: W
LayerCount: 2
Fore
SplineSet
167 1060 m 1,0,-1
 186 1177 l 2,1,2
 211 1331 211 1331 307.5 1410.5 c 128,-1,3
 404 1490 404 1490 576 1490 c 2,4,-1
 682 1490 l 1,5,-1
 644 1266 l 1,6,-1
 562 1266 l 2,7,8
 503 1266 503 1266 470 1240 c 128,-1,9
 437 1214 437 1214 428 1158 c 2,10,-1
 412 1060 l 1,11,-1
 167 1060 l 1,0,-1
644 1264 m 1,12,-1
 682 1490 l 1,13,-1
 1481 1490 l 1,14,-1
 1444 1264 l 1,15,-1
 983 1264 l 1,16,-1
 775 0 l 1,17,-1
 509 0 l 1,18,-1
 717 1264 l 1,19,-1
 644 1264 l 1,12,-1
EndSplineSet
Position2: "'cpsp' Capital Spacing in Latin lookup 0 subtable" dx=0 dy=0 dh=0 dv=0
EndChar

StartChar: uni01AC.base
Encoding: 60940 60940 421
Width: 1323
GlyphClass: 2
Flags: W
LayerCount: 2
Fore
SplineSet
577 1264 m 1,0,-1
 616 1490 l 1,1,-1
 1415 1490 l 1,2,-1
 1377 1264 l 1,3,-1
 917 1264 l 1,4,-1
 708 0 l 1,5,-1
 442 0 l 1,6,-1
 651 1264 l 1,7,-1
 577 1264 l 1,0,-1
EndSplineSet
EndChar

StartChar: Trthook
Encoding: 430 430 422
Width: 1320
GlyphClass: 2
Flags: W
AnchorPoint: "Anchor-3" 569 0 basechar 0
AnchorPoint: "Anchor-1" 817 1490 basechar 0
AnchorPoint: "Anchor-0" 570 0 basechar 0
LayerCount: 2
Fore
SplineSet
700 0 m 1,0,-1
 685 -89 l 2,1,2
 673 -163 673 -163 719.5 -186 c 128,-1,3
 766 -209 766 -209 830 -208 c 2,4,-1
 890 -208 l 1,5,-1
 855 -418 l 1,6,-1
 729 -418 l 2,7,8
 661 -418 661 -418 600 -401.5 c 128,-1,9
 539 -385 539 -385 494 -347.5 c 128,-1,10
 449 -310 449 -310 430 -246.5 c 128,-1,11
 411 -183 411 -183 426 -90 c 2,12,-1
 442 0 l 1,13,-1
 700 0 l 1,0,-1
185 1264 m 1,14,-1
 222 1490 l 1,15,-1
 1411 1490 l 1,16,-1
 1374 1264 l 1,17,-1
 912 1264 l 1,18,-1
 704 0 l 1,19,-1
 438 0 l 1,20,-1
 646 1264 l 1,21,-1
 185 1264 l 1,14,-1
EndSplineSet
Position2: "'cpsp' Capital Spacing in Latin lookup 0 subtable" dx=0 dy=0 dh=0 dv=0
EndChar

StartChar: uni023E
Encoding: 574 574 423
Width: 1320
GlyphClass: 2
Flags: W
AnchorPoint: "Anchor-3" 569 0 basechar 0
AnchorPoint: "Anchor-1" 817 1490 basechar 0
AnchorPoint: "Anchor-0" 570 0 basechar 0
LayerCount: 2
Fore
SplineSet
157 -190 m 1,0,-1
 1095 1678 l 1,1,-1
 1276 1678 l 1,2,-1
 338 -190 l 1,3,-1
 157 -190 l 1,0,-1
185 1264 m 1,4,-1
 222 1490 l 1,5,-1
 1411 1490 l 1,6,-1
 1374 1264 l 1,7,-1
 912 1264 l 1,8,-1
 704 0 l 1,9,-1
 438 0 l 1,10,-1
 646 1264 l 1,11,-1
 185 1264 l 1,4,-1
EndSplineSet
Position2: "'cpsp' Capital Spacing in Latin lookup 0 subtable" dx=0 dy=0 dh=0 dv=0
EndChar

StartChar: U
Encoding: 85 85 425
Width: 1475
GlyphClass: 2
Flags: W
AnchorPoint: "Anchor-4" 1335 508 basechar 0
AnchorPoint: "Anchor-1" 894 1490 basechar 0
AnchorPoint: "Anchor-0" 647 0 basechar 0
LayerCount: 2
Fore
SplineSet
658 -23 m 0,0,1
 472 -23 472 -23 344.5 47.5 c 128,-1,2
 217 118 217 118 161 242 c 128,-1,3
 105 366 105 366 131 525 c 2,4,-1
 291 1490 l 1,5,-1
 555 1490 l 1,6,-1
 396 529 l 2,7,8
 381 434 381 434 408.5 363.5 c 128,-1,9
 436 293 436 293 502.5 253 c 128,-1,10
 569 213 569 213 668 213 c 0,11,12
 775 213 775 213 862 257 c 128,-1,13
 949 301 949 301 1005 376.5 c 128,-1,14
 1061 452 1061 452 1077 547 c 2,15,-1
 1233 1490 l 1,16,-1
 1497 1490 l 1,17,-1
 1335 508 l 2,18,19
 1309 348 1309 348 1216 228.5 c 128,-1,20
 1123 109 1123 109 979.5 43 c 128,-1,21
 836 -23 836 -23 658 -23 c 0,0,1
EndSplineSet
Substitution2: "'ss06' Style Set 6 in Latin lookup 52 subtable" U.squared
Substitution2: "'ss05' Style Set 5 in Latin lookup 51 subtable" uni24CA
Position2: "'cpsp' Capital Spacing in Latin lookup 0 subtable" dx=0 dy=0 dh=0 dv=0
EndChar

StartChar: Uhorn
Encoding: 431 431 426
Width: 1473
GlyphClass: 2
Flags: W
AnchorPoint: "Anchor-4" 1335 508 basechar 0
AnchorPoint: "Anchor-1" 894 1490 basechar 0
AnchorPoint: "Anchor-0" 647 0 basechar 0
LayerCount: 2
Fore
SplineSet
1205 1314 m 1,0,-1
 1235 1490 l 1,1,-1
 1415 1490 l 2,2,3
 1437 1490 1437 1490 1441 1513 c 2,4,-1
 1474 1714 l 1,5,-1
 1708 1714 l 1,6,-1
 1673 1504 l 2,7,8
 1657 1407 1657 1407 1595.5 1360.5 c 128,-1,9
 1534 1314 1534 1314 1440 1314 c 2,10,-1
 1205 1314 l 1,0,-1
658 -23 m 0,11,12
 472 -23 472 -23 344.5 47.5 c 128,-1,13
 217 118 217 118 161 242 c 128,-1,14
 105 366 105 366 131 525 c 2,15,-1
 291 1490 l 1,16,-1
 555 1490 l 1,17,-1
 396 529 l 2,18,19
 381 434 381 434 408.5 363.5 c 128,-1,20
 436 293 436 293 502.5 253 c 128,-1,21
 569 213 569 213 668 213 c 0,22,23
 775 213 775 213 862 257 c 128,-1,24
 949 301 949 301 1005 376.5 c 128,-1,25
 1061 452 1061 452 1077 547 c 2,26,-1
 1233 1490 l 1,27,-1
 1497 1490 l 1,28,-1
 1335 508 l 2,29,30
 1309 348 1309 348 1216 228.5 c 128,-1,31
 1123 109 1123 109 979.5 43 c 128,-1,32
 836 -23 836 -23 658 -23 c 0,11,12
EndSplineSet
Position2: "'cpsp' Capital Spacing in Latin lookup 0 subtable" dx=0 dy=0 dh=0 dv=0
EndChar

StartChar: uni0244
Encoding: 580 580 456
Width: 1515
GlyphClass: 2
Flags: W
AnchorPoint: "Anchor-4" 1357 508 basechar 0
AnchorPoint: "Anchor-1" 916 1490 basechar 0
AnchorPoint: "Anchor-0" 669 0 basechar 0
LayerCount: 2
Fore
SplineSet
1588 853 m 1,0,-1
 1562 697 l 1,1,-1
 5 697 l 1,2,-1
 30 853 l 1,3,-1
 1588 853 l 1,0,-1
680 -23 m 0,4,5
 495 -23 495 -23 367 47.5 c 128,-1,6
 239 118 239 118 183 242 c 128,-1,7
 127 366 127 366 154 525 c 2,8,-1
 313 1490 l 1,9,-1
 577 1490 l 1,10,-1
 419 529 l 2,11,12
 403 434 403 434 430.5 363.5 c 128,-1,13
 458 293 458 293 525 253 c 128,-1,14
 592 213 592 213 691 213 c 0,15,16
 798 213 798 213 884.5 257 c 128,-1,17
 971 301 971 301 1027.5 376.5 c 128,-1,18
 1084 452 1084 452 1099 547 c 2,19,-1
 1255 1490 l 1,20,-1
 1519 1490 l 1,21,-1
 1357 508 l 2,22,23
 1331 348 1331 348 1238 228.5 c 128,-1,24
 1145 109 1145 109 1002 43 c 128,-1,25
 859 -23 859 -23 680 -23 c 0,4,5
EndSplineSet
Position2: "'cpsp' Capital Spacing in Latin lookup 0 subtable" dx=0 dy=0 dh=0 dv=0
EndChar

StartChar: V
Encoding: 86 86 457
Width: 1451
GlyphClass: 2
Flags: W
AnchorPoint: "Anchor-1" 881 1490 basechar 0
AnchorPoint: "Anchor-0" 634 0 basechar 0
LayerCount: 2
Fore
SplineSet
473 0 m 1,0,-1
 188 1490 l 1,1,-1
 473 1490 l 1,2,-1
 610 712 l 2,3,4
 629 593 629 593 647.5 446 c 128,-1,5
 666 299 666 299 688 110 c 1,6,-1
 622 110 l 1,7,8
 705 297 705 297 772 446 c 128,-1,9
 839 595 839 595 895 712 c 2,10,-1
 1282 1490 l 1,11,-1
 1575 1490 l 1,12,-1
 806 0 l 1,13,-1
 473 0 l 1,0,-1
EndSplineSet
Substitution2: "'ss06' Style Set 6 in Latin lookup 52 subtable" V.squared
Substitution2: "'ss05' Style Set 5 in Latin lookup 51 subtable" uni24CB
Position2: "'cpsp' Capital Spacing in Latin lookup 0 subtable" dx=0 dy=0 dh=0 dv=0
EndChar

StartChar: W
Encoding: 87 87 460
Width: 2049
GlyphClass: 2
Flags: W
AnchorPoint: "Anchor-1" 1181 1490 basechar 0
AnchorPoint: "Anchor-0" 934 0 basechar 0
LayerCount: 2
Fore
SplineSet
343 0 m 1,0,-1
 188 1490 l 1,1,-1
 469 1490 l 1,2,-1
 531 692 l 2,3,4
 538 607 538 607 541 516.5 c 128,-1,5
 544 426 544 426 545.5 335.5 c 128,-1,6
 547 245 547 245 548 156 c 1,7,-1
 502 156 l 1,8,9
 534 245 534 245 566.5 335.5 c 128,-1,10
 599 426 599 426 633 516.5 c 128,-1,11
 667 607 667 607 703 692 c 2,12,-1
 1038 1490 l 1,13,-1
 1319 1490 l 1,14,-1
 1389 692 l 2,15,16
 1396 607 1396 607 1400.5 516.5 c 128,-1,17
 1405 426 1405 426 1407.5 335.5 c 128,-1,18
 1410 245 1410 245 1413 156 c 1,19,-1
 1364 156 l 1,20,21
 1396 245 1396 245 1427.5 335.5 c 128,-1,22
 1459 426 1459 426 1492.5 516.5 c 128,-1,23
 1526 607 1526 607 1560 692 c 2,24,-1
 1888 1490 l 1,25,-1
 2175 1490 l 1,26,-1
 1524 0 l 1,27,-1
 1222 0 l 1,28,-1
 1139 843 l 2,29,30
 1129 947 1129 947 1126.5 1066.5 c 128,-1,31
 1124 1186 1124 1186 1120 1326 c 1,32,-1
 1186 1326 l 1,33,34
 1136 1189 1136 1189 1095 1069.5 c 128,-1,35
 1054 950 1054 950 1008 843 c 2,36,-1
 647 0 l 1,37,-1
 343 0 l 1,0,-1
EndSplineSet
Substitution2: "'ss06' Style Set 6 in Latin lookup 52 subtable" W.squared
Substitution2: "'ss05' Style Set 5 in Latin lookup 51 subtable" uni24CC
Position2: "'cpsp' Capital Spacing in Latin lookup 0 subtable" dx=0 dy=0 dh=0 dv=0
EndChar

StartChar: X
Encoding: 88 88 467
Width: 1434
GlyphClass: 2
Flags: W
AnchorPoint: "Anchor-1" 874 1490 basechar 0
AnchorPoint: "Anchor-0" 626 -1 basechar 0
LayerCount: 2
Fore
SplineSet
-55 0 m 1,0,-1
 690 860 l 1,1,-1
 657 661 l 1,2,-1
 235 1490 l 1,3,-1
 532 1490 l 1,4,-1
 667 1216 l 2,5,6
 695 1157 695 1157 717.5 1105.5 c 128,-1,7
 740 1054 740 1054 759.5 1005 c 128,-1,8
 779 956 779 956 800 901 c 1,9,-1
 736 901 l 1,10,11
 777 955 777 955 813.5 1004.5 c 128,-1,12
 850 1054 850 1054 889.5 1106 c 128,-1,13
 929 1158 929 1158 979 1216 c 2,14,-1
 1212 1490 l 1,15,-1
 1517 1490 l 1,16,-1
 827 675 l 1,17,-1
 859 866 l 1,18,-1
 1309 0 l 1,19,-1
 1006 0 l 1,20,-1
 836 336 l 2,21,22
 810 389 810 389 789.5 432.5 c 128,-1,23
 769 476 769 476 751 518 c 128,-1,24
 733 560 733 560 713 607 c 1,25,-1
 758 607 l 1,26,27
 722 560 722 560 690.5 518 c 128,-1,28
 659 476 659 476 623.5 432.5 c 128,-1,29
 588 389 588 389 543 336 c 2,30,-1
 257 0 l 1,31,-1
 -55 0 l 1,0,-1
EndSplineSet
Substitution2: "'ss06' Style Set 6 in Latin lookup 52 subtable" X.squared
Substitution2: "'ss05' Style Set 5 in Latin lookup 51 subtable" uni24CD
Position2: "'cpsp' Capital Spacing in Latin lookup 0 subtable" dx=0 dy=0 dh=0 dv=0
EndChar

StartChar: Y
Encoding: 89 89 473
Width: 1421
GlyphClass: 2
Flags: W
AnchorPoint: "Anchor-4" 755 0 basechar 0
AnchorPoint: "Anchor-1" 867 1490 basechar 0
AnchorPoint: "Anchor-0" 622 0 basechar 0
LayerCount: 2
Fore
SplineSet
492 0 m 1,0,-1
 587 576 l 1,1,-1
 188 1490 l 1,2,-1
 482 1490 l 1,3,-1
 672 1026 l 2,4,5
 701 956 701 956 724 889 c 128,-1,6
 747 822 747 822 769 739 c 1,7,-1
 698 739 l 1,8,9
 747 823 747 823 791.5 890.5 c 128,-1,10
 836 958 836 958 886 1026 c 2,11,-1
 1225 1490 l 1,12,-1
 1547 1490 l 1,13,-1
 850 576 l 1,14,-1
 755 0 l 1,15,-1
 492 0 l 1,0,-1
EndSplineSet
Substitution2: "'c2sc' Capitals to Small Capitals in Latin lookup 67 subtable" y.sc
Substitution2: "'ss06' Style Set 6 in Latin lookup 52 subtable" Y.squared
Substitution2: "'ss05' Style Set 5 in Latin lookup 51 subtable" uni24CE
Substitution2: "'aalt' Access All Alternates in Latin lookup 0 subtable" y.sc
Position2: "'cpsp' Capital Spacing in Latin lookup 0 subtable" dx=0 dy=0 dh=0 dv=0
EndChar

StartChar: uni01B3
Encoding: 435 435 474
Width: 1526
Flags: W
LayerCount: 2
Fore
SplineSet
760 794 m 1,0,-1
 766 828 l 1,1,-1
 801 828 l 1,2,-1
 796 794 l 1,3,-1
 760 794 l 1,0,-1
198 1490 m 1,4,-1
 490 1490 l 1,5,-1
 782 814 l 1,6,-1
 1165 1317 l 2,7,8
 1240 1414 1240 1414 1324.5 1459.5 c 128,-1,9
 1409 1505 1409 1505 1495.5 1507.5 c 128,-1,10
 1582 1510 1582 1510 1660 1475 c 1,11,-1
 1566 1273 l 1,12,13
 1505 1296 1505 1296 1456 1279 c 128,-1,14
 1407 1262 1407 1262 1353 1195 c 2,15,-1
 875 591 l 1,16,-1
 777 0 l 1,17,-1
 515 0 l 1,18,-1
 613 591 l 1,19,-1
 198 1490 l 1,4,-1
EndSplineSet
Position2: "'cpsp' Capital Spacing in Latin lookup 0 subtable" dx=0 dy=0 dh=0 dv=0
EndChar

StartChar: uni024E
Encoding: 590 590 484
Width: 1413
GlyphClass: 2
Flags: W
AnchorPoint: "Anchor-4" 755 0 basechar 0
AnchorPoint: "Anchor-1" 867 1490 basechar 0
AnchorPoint: "Anchor-0" 622 0 basechar 0
LayerCount: 2
Fore
SplineSet
1519 1181 m 1,0,-1
 1495 1036 l 1,1,-1
 82 1036 l 1,2,-1
 106 1181 l 1,3,-1
 1519 1181 l 1,0,-1
492 0 m 1,4,-1
 587 576 l 1,5,-1
 188 1490 l 1,6,-1
 482 1490 l 1,7,-1
 672 1026 l 2,8,9
 701 956 701 956 724 889 c 128,-1,10
 747 822 747 822 769 739 c 1,11,-1
 698 739 l 1,12,13
 747 823 747 823 791.5 890.5 c 128,-1,14
 836 958 836 958 886 1026 c 2,15,-1
 1225 1490 l 1,16,-1
 1547 1490 l 1,17,-1
 850 576 l 1,18,-1
 755 0 l 1,19,-1
 492 0 l 1,4,-1
EndSplineSet
Position2: "'cpsp' Capital Spacing in Latin lookup 0 subtable" dx=0 dy=0 dh=0 dv=0
EndChar

StartChar: Z
Encoding: 90 90 497
Width: 1308
GlyphClass: 2
Flags: W
AnchorPoint: "Anchor-1" 814 1490 basechar 0
AnchorPoint: "Anchor-0" 563 0 basechar 0
LayerCount: 2
Fore
SplineSet
18 0 m 1,0,-1
 45 165 l 1,1,-1
 992 1269 l 1,2,-1
 223 1269 l 1,3,-1
 260 1490 l 1,4,-1
 1359 1490 l 1,5,-1
 1331 1324 l 1,6,-1
 384 223 l 1,7,-1
 1153 223 l 1,8,-1
 1116 0 l 1,9,-1
 18 0 l 1,0,-1
EndSplineSet
Substitution2: "'ss06' Style Set 6 in Latin lookup 52 subtable" Z.squared
Substitution2: "'ss05' Style Set 5 in Latin lookup 51 subtable" uni24CF
Position2: "'cpsp' Capital Spacing in Latin lookup 0 subtable" dx=0 dy=0 dh=0 dv=0
EndChar

StartChar: uni0224
Encoding: 548 548 504
Width: 1308
GlyphClass: 2
Flags: W
AnchorPoint: "Anchor-1" 814 1490 basechar 0
AnchorPoint: "Anchor-0" 563 0 basechar 0
LayerCount: 2
Fore
SplineSet
568 -418 m 1,0,-1
 603 -205 l 1,1,2
 621 -208 621 -208 648.5 -208.5 c 128,-1,3
 676 -209 676 -209 698 -209 c 0,4,5
 762 -209 762 -209 792.5 -187 c 128,-1,6
 823 -165 823 -165 831 -115 c 2,7,-1
 850 0 l 1,8,-1
 1116 0 l 1,9,-1
 1094 -129 l 2,10,11
 1070 -276 1070 -276 972 -350.5 c 128,-1,12
 874 -425 874 -425 709 -425 c 0,13,14
 666 -425 666 -425 629.5 -423 c 128,-1,15
 593 -421 593 -421 568 -418 c 1,0,-1
18 0 m 1,16,-1
 45 165 l 1,17,-1
 992 1269 l 1,18,-1
 223 1269 l 1,19,-1
 260 1490 l 1,20,-1
 1359 1490 l 1,21,-1
 1331 1324 l 1,22,-1
 384 223 l 1,23,-1
 1153 223 l 1,24,-1
 1116 0 l 1,25,-1
 18 0 l 1,16,-1
EndSplineSet
Position2: "'cpsp' Capital Spacing in Latin lookup 0 subtable" dx=0 dy=0 dh=0 dv=0
EndChar

StartChar: uni2C7F
Encoding: 11391 11391 507
Width: 1322
Flags: W
LayerCount: 2
Fore
SplineSet
886 -433 m 0,0,1
 800 -433 800 -433 736 -401.5 c 128,-1,2
 672 -370 672 -370 621 -321 c 128,-1,3
 570 -272 570 -272 521.5 -216 c 128,-1,4
 473 -160 473 -160 417 -111 c 128,-1,5
 361 -62 361 -62 288.5 -31 c 128,-1,6
 216 0 216 0 118 0 c 2,7,-1
 18 0 l 1,8,-1
 44 158 l 1,9,-1
 989 1272 l 1,10,-1
 224 1272 l 1,11,-1
 261 1490 l 1,12,-1
 1354 1490 l 1,13,-1
 1328 1333 l 1,14,-1
 364 193 l 1,15,16
 459 168 459 168 526 119.5 c 128,-1,17
 593 71 593 71 643.5 13.5 c 128,-1,18
 694 -44 694 -44 739 -95.5 c 128,-1,19
 784 -147 784 -147 834.5 -180 c 128,-1,20
 885 -213 885 -213 953 -213 c 0,21,22
 995 -213 995 -213 1029 -207.5 c 128,-1,23
 1063 -202 1063 -202 1097 -192 c 1,24,-1
 1062 -407 l 1,25,26
 1031 -419 1031 -419 984.5 -426 c 128,-1,27
 938 -433 938 -433 886 -433 c 0,0,1
EndSplineSet
Position2: "'cpsp' Capital Spacing in Latin lookup 0 subtable" dx=0 dy=0 dh=0 dv=0
EndChar

StartChar: a
Encoding: 97 97 508
Width: 1240
GlyphClass: 2
Flags: W
AnchorPoint: "Anchor-4" 1025 0 basechar 0
AnchorPoint: "Anchor-1" 709 1087 basechar 0
AnchorPoint: "Anchor-0" 525 0 basechar 0
LayerCount: 2
Fore
SplineSet
441 -21 m 0,0,1
 307 -21 307 -21 214.5 47.5 c 128,-1,2
 122 116 122 116 84.5 243 c 128,-1,3
 47 370 47 370 76 544 c 0,4,5
 104 718 104 718 185 843.5 c 128,-1,6
 266 969 266 969 381 1037 c 128,-1,7
 496 1105 496 1105 628 1105 c 0,8,9
 711 1105 711 1105 769 1079 c 128,-1,10
 827 1053 827 1053 863 1011.5 c 128,-1,11
 899 970 899 970 917 921 c 1,12,-1
 924 921 l 1,13,-1
 952 1087 l 1,14,-1
 1205 1087 l 1,15,-1
 1025 0 l 1,16,-1
 774 0 l 1,17,-1
 802 168 l 1,18,-1
 792 168 l 1,19,20
 757 117 757 117 706.5 74 c 128,-1,21
 656 31 656 31 590.5 5 c 128,-1,22
 525 -21 525 -21 441 -21 c 0,0,1
543 192 m 0,23,24
 627 192 627 192 694 236 c 128,-1,25
 761 280 761 280 806.5 359 c 128,-1,26
 852 438 852 438 869 544 c 0,27,28
 886 651 886 651 867 729 c 128,-1,29
 848 807 848 807 795 850.5 c 128,-1,30
 742 894 742 894 658 894 c 0,31,32
 575 894 575 894 509 850.5 c 128,-1,33
 443 807 443 807 398.5 728.5 c 128,-1,34
 354 650 354 650 336 544 c 0,35,36
 319 438 319 438 337.5 358.5 c 128,-1,37
 356 279 356 279 408 235.5 c 128,-1,38
 460 192 460 192 543 192 c 0,23,24
EndSplineSet
Substitution2: "'smcp' Lowercase to Small Capitals in Latin lookup 68 subtable" a.sc
Substitution2: "'c2sc' Capitals to Small Capitals in Latin lookup 67 subtable" a.sc
Substitution2: "Single Substitution lookup 44 subtable" ordfeminine
Substitution2: "'sups' Superscript in Latin lookup 39 subtable" a.sups
Substitution2: "'subs' Subscript in Latin lookup 38 subtable" a.subs
Substitution2: "'sinf' Scientific Inferiors in Latin lookup 18 subtable" a.subs
AlternateSubs2: "'aalt' Access All Alternates in Latin lookup 1 subtable" ordfeminine a.sups a.subs a.sc
EndChar

StartChar: aturn
Encoding: 592 592 540
Width: 1240
GlyphClass: 2
Flags: W
AnchorPoint: "Anchor-4" 216 1087 basechar 0
AnchorPoint: "Anchor-1" 727 1087 basechar 0
AnchorPoint: "Anchor-0" 547 0 basechar 0
LayerCount: 2
Fore
SplineSet
799 1108 m 0,0,1
 935 1108 935 1108 1027 1039.5 c 128,-1,2
 1119 971 1119 971 1156.5 844.5 c 128,-1,3
 1194 718 1194 718 1165 545 c 0,4,5
 1136 370 1136 370 1055.5 244 c 128,-1,6
 975 118 975 118 860.5 50 c 128,-1,7
 746 -18 746 -18 613 -18 c 0,8,9
 530 -18 530 -18 471.5 8 c 128,-1,10
 413 34 413 34 377.5 76 c 128,-1,11
 342 118 342 118 323 167 c 1,12,-1
 316 167 l 1,13,-1
 289 0 l 1,14,-1
 36 0 l 1,15,-1
 216 1087 l 1,16,-1
 466 1087 l 1,17,-1
 439 920 l 1,18,-1
 449 920 l 1,19,20
 484 971 484 971 534 1013.5 c 128,-1,21
 584 1056 584 1056 650.5 1082 c 128,-1,22
 717 1108 717 1108 799 1108 c 0,0,1
698 895 m 0,23,24
 614 895 614 895 547 851.5 c 128,-1,25
 480 808 480 808 435 729 c 128,-1,26
 390 650 390 650 372 544 c 256,27,28
 354 438 354 438 373.5 359.5 c 128,-1,29
 393 281 393 281 446 238 c 128,-1,30
 499 195 499 195 582 195 c 0,31,32
 666 195 666 195 732 238 c 128,-1,33
 798 281 798 281 842.5 359.5 c 128,-1,34
 887 438 887 438 904 544 c 0,35,36
 922 651 922 651 903.5 730 c 128,-1,37
 885 809 885 809 833 852 c 128,-1,38
 781 895 781 895 698 895 c 0,23,24
EndSplineSet
EndChar

StartChar: ae
Encoding: 230 230 544
Width: 1841
GlyphClass: 2
Flags: W
AnchorPoint: "Anchor-1" 983 1087 basechar 0
LayerCount: 2
Fore
SplineSet
380 -17 m 0,0,1
 198 -17 198 -17 105 72.5 c 128,-1,2
 12 162 12 162 37 313 c 0,3,4
 52 405 52 405 106.5 474.5 c 128,-1,5
 161 544 161 544 256.5 583.5 c 128,-1,6
 352 623 352 623 488 624 c 0,7,8
 543 624 543 624 592 623.5 c 128,-1,9
 641 623 641 623 695.5 622 c 128,-1,10
 750 621 750 621 819 621 c 1,11,-1
 798 458 l 1,12,13
 730 458 730 458 657.5 458 c 128,-1,14
 585 458 585 458 519 458 c 0,15,16
 425 457 425 457 360.5 423 c 128,-1,17
 296 389 296 389 285 319 c 0,18,19
 273 246 273 246 312.5 209 c 128,-1,20
 352 172 352 172 437 172 c 0,21,22
 521 172 521 172 583 203 c 128,-1,23
 645 234 645 234 683 285.5 c 128,-1,24
 721 337 721 337 731 398 c 2,25,-1
 790 743 l 2,26,27
 806 825 806 825 762 868 c 128,-1,28
 718 911 718 911 617 911 c 0,29,30
 557 911 557 911 508.5 892 c 128,-1,31
 460 873 460 873 427 838.5 c 128,-1,32
 394 804 394 804 381 756 c 1,33,-1
 137 763 l 1,34,35
 161 865 161 865 231 942.5 c 128,-1,36
 301 1020 301 1020 408.5 1064 c 128,-1,37
 516 1108 516 1108 650 1108 c 0,38,39
 783 1108 783 1108 868.5 1063 c 128,-1,40
 954 1018 954 1018 989 938 c 128,-1,41
 1024 858 1024 858 1006 751 c 2,42,-1
 931 303 l 1,43,-1
 914 299 l 1,44,45
 881 203 881 203 811 132.5 c 128,-1,46
 741 62 741 62 633.5 22.5 c 128,-1,47
 526 -17 526 -17 380 -17 c 0,0,1
1206 -24 m 0,48,49
 1058 -24 1058 -24 954 33 c 128,-1,50
 850 90 850 90 799 200.5 c 128,-1,51
 748 311 748 311 759 472 c 0,52,53
 767 612 767 612 814.5 729 c 128,-1,54
 862 846 862 846 943 931 c 128,-1,55
 1024 1016 1024 1016 1131 1062.5 c 128,-1,56
 1238 1109 1238 1109 1365 1109 c 0,57,58
 1480 1109 1480 1109 1570 1072 c 128,-1,59
 1660 1035 1660 1035 1712 964 c 128,-1,60
 1764 893 1764 893 1764 793 c 0,61,62
 1764 694 1764 694 1706.5 628.5 c 128,-1,63
 1649 563 1649 563 1535.5 525 c 128,-1,64
 1422 487 1422 487 1255 471.5 c 128,-1,65
 1088 456 1088 456 868 456 c 1,66,-1
 894 620 l 1,67,68
 1083 620 1083 620 1205 629 c 128,-1,69
 1327 638 1327 638 1395.5 658.5 c 128,-1,70
 1464 679 1464 679 1492 712 c 128,-1,71
 1520 745 1520 745 1520 793 c 0,72,73
 1520 848 1520 848 1474 877.5 c 128,-1,74
 1428 907 1428 907 1348 907 c 0,75,76
 1260 907 1260 907 1191.5 871 c 128,-1,77
 1123 835 1123 835 1079 767 c 128,-1,78
 1035 699 1035 699 1019 605 c 0,79,80
 1013 569 1013 569 1007 534 c 128,-1,81
 1001 499 1001 499 997.5 468.5 c 128,-1,82
 994 438 994 438 994 417 c 0,83,84
 994 296 994 296 1050.5 236.5 c 128,-1,85
 1107 177 1107 177 1218 177 c 0,86,87
 1317 177 1317 177 1388 220 c 128,-1,88
 1459 263 1459 263 1490 331 c 1,89,-1
 1732 317 l 1,90,91
 1672 158 1672 158 1536 67 c 128,-1,92
 1400 -24 1400 -24 1206 -24 c 0,48,49
EndSplineSet
EndChar

StartChar: b
Encoding: 98 98 548
Width: 1241
GlyphClass: 2
Flags: W
AnchorPoint: "Anchor-1" 823 1291 basechar 0
AnchorPoint: "Anchor-0" 577 0 basechar 0
LayerCount: 2
Fore
SplineSet
628 -21 m 0,0,1
 542 -21 542 -21 481.5 6.5 c 128,-1,2
 421 34 421 34 383.5 79 c 128,-1,3
 346 124 346 124 325 177 c 1,4,-1
 316 177 l 1,5,-1
 286 0 l 1,6,-1
 35 0 l 1,7,-1
 282 1490 l 1,8,-1
 538 1490 l 1,9,-1
 445 923 l 1,10,-1
 451 923 l 1,11,12
 484 973 484 973 531 1014 c 128,-1,13
 578 1055 578 1055 641.5 1080 c 128,-1,14
 705 1105 705 1105 785 1105 c 0,15,16
 903 1105 903 1105 990 1052 c 128,-1,17
 1077 999 1077 999 1125.5 900 c 128,-1,18
 1174 801 1174 801 1174 662 c 0,19,20
 1174 541 1174 541 1138.5 419.5 c 128,-1,21
 1103 298 1103 298 1033.5 198.5 c 128,-1,22
 964 99 964 99 862 39 c 128,-1,23
 760 -21 760 -21 628 -21 c 0,0,1
568 192 m 0,24,25
 653 192 653 192 718 234.5 c 128,-1,26
 783 277 783 277 827.5 345.5 c 128,-1,27
 872 414 872 414 893.5 496 c 128,-1,28
 915 578 915 578 915 657 c 0,29,30
 915 768 915 768 863.5 831 c 128,-1,31
 812 894 812 894 713 894 c 0,32,33
 628 894 628 894 562 853 c 128,-1,34
 496 812 496 812 451.5 744.5 c 128,-1,35
 407 677 407 677 384 595.5 c 128,-1,36
 361 514 361 514 361 434 c 0,37,38
 361 322 361 322 414.5 257 c 128,-1,39
 468 192 468 192 568 192 c 0,24,25
EndSplineSet
Substitution2: "'sups' Superscript in Latin lookup 39 subtable" b.sups
Substitution2: "'subs' Subscript in Latin lookup 38 subtable" b.subs
Substitution2: "'sinf' Scientific Inferiors in Latin lookup 18 subtable" b.subs
AlternateSubs2: "'aalt' Access All Alternates in Latin lookup 1 subtable" b.sups b.subs
EndChar

StartChar: uni0183
Encoding: 387 387 550
Width: 1241
GlyphClass: 2
Flags: W
AnchorPoint: "Anchor-1" 823 1291 basechar 0
AnchorPoint: "Anchor-0" 577 0 basechar 0
LayerCount: 2
Fore
SplineSet
378 1286 m 1,0,-1
 282 1490 l 1,1,-1
 1134 1490 l 1,2,-1
 1100 1286 l 1,3,-1
 378 1286 l 1,0,-1
628 -21 m 0,4,5
 542 -21 542 -21 481.5 6.5 c 128,-1,6
 421 34 421 34 383.5 79 c 128,-1,7
 346 124 346 124 325 177 c 1,8,-1
 316 177 l 1,9,-1
 286 0 l 1,10,-1
 35 0 l 1,11,-1
 282 1490 l 1,12,-1
 538 1490 l 1,13,-1
 445 923 l 1,14,-1
 451 923 l 1,15,16
 484 973 484 973 531 1014 c 128,-1,17
 578 1055 578 1055 641.5 1080 c 128,-1,18
 705 1105 705 1105 785 1105 c 0,19,20
 903 1105 903 1105 990 1052 c 128,-1,21
 1077 999 1077 999 1125.5 900 c 128,-1,22
 1174 801 1174 801 1174 662 c 0,23,24
 1174 541 1174 541 1138.5 419.5 c 128,-1,25
 1103 298 1103 298 1033.5 198.5 c 128,-1,26
 964 99 964 99 862 39 c 128,-1,27
 760 -21 760 -21 628 -21 c 0,4,5
568 192 m 0,28,29
 653 192 653 192 718 234.5 c 128,-1,30
 783 277 783 277 827.5 345.5 c 128,-1,31
 872 414 872 414 893.5 496 c 128,-1,32
 915 578 915 578 915 657 c 0,33,34
 915 768 915 768 863.5 831 c 128,-1,35
 812 894 812 894 713 894 c 0,36,37
 628 894 628 894 562 853 c 128,-1,38
 496 812 496 812 451.5 744.5 c 128,-1,39
 407 677 407 677 384 595.5 c 128,-1,40
 361 514 361 514 361 434 c 0,41,42
 361 322 361 322 414.5 257 c 128,-1,43
 468 192 468 192 568 192 c 0,28,29
EndSplineSet
EndChar

StartChar: uni0253
Encoding: 595 595 551
Width: 1238
GlyphClass: 2
Flags: W
AnchorPoint: "Anchor-1" 582 1490 basechar 0
AnchorPoint: "Anchor-0" 550 0 basechar 0
LayerCount: 2
Fore
SplineSet
613 -21 m 0,0,1
 531 -21 531 -21 472.5 5.5 c 128,-1,2
 414 32 414 32 377 75 c 128,-1,3
 340 118 340 118 321 167 c 1,4,-1
 312 167 l 1,5,-1
 284 0 l 1,6,-1
 36 0 l 1,7,-1
 181 879 l 1,8,-1
 434 879 l 1,9,-1
 439 913 l 1,10,-1
 447 915 l 1,11,12
 481 961 481 961 529.5 1003 c 128,-1,13
 578 1045 578 1045 643 1070.5 c 128,-1,14
 708 1096 708 1096 791 1096 c 0,15,16
 925 1096 925 1096 1018 1029 c 128,-1,17
 1111 962 1111 962 1150.5 837.5 c 128,-1,18
 1190 713 1190 713 1162 540 c 0,19,20
 1134 369 1134 369 1055.5 242.5 c 128,-1,21
 977 116 977 116 863 47.5 c 128,-1,22
 749 -21 749 -21 613 -21 c 0,0,1
581 190 m 256,23,24
 665 190 665 190 731 233 c 128,-1,25
 797 276 797 276 842 355 c 128,-1,26
 887 434 887 434 904 541 c 0,27,28
 922 647 922 647 904 725.5 c 128,-1,29
 886 804 886 804 833.5 847 c 128,-1,30
 781 890 781 890 697 890 c 256,31,32
 613 890 613 890 545 847 c 128,-1,33
 477 804 477 804 432 725.5 c 128,-1,34
 387 647 387 647 368 541 c 0,35,36
 351 436 351 436 370.5 356.5 c 128,-1,37
 390 277 390 277 443.5 233.5 c 128,-1,38
 497 190 497 190 581 190 c 256,23,24
181 880 m 1,39,-1
 216 1087 l 1,40,-1
 235 1202 l 2,41,42
 259 1347 259 1347 356.5 1422 c 128,-1,43
 454 1497 454 1497 620 1497 c 0,44,45
 664 1497 664 1497 699 1495.5 c 128,-1,46
 734 1494 734 1494 759 1490 c 1,47,-1
 726 1289 l 1,48,49
 707 1291 707 1291 680 1291.5 c 128,-1,50
 653 1292 653 1292 631 1292 c 0,51,52
 566 1292 566 1292 532.5 1270 c 128,-1,53
 499 1248 499 1248 491 1198 c 2,54,-1
 473 1087 l 1,55,-1
 438 880 l 1,56,-1
 181 880 l 1,39,-1
EndSplineSet
EndChar

StartChar: thorn
Encoding: 254 254 555
Width: 1241
Flags: W
LayerCount: 2
Fore
SplineSet
613 -21 m 0,0,1
 530 -21 530 -21 473 5 c 128,-1,2
 416 31 416 31 380.5 74 c 128,-1,3
 345 117 345 117 327 168 c 1,4,-1
 320 168 l 1,5,-1
 222 -418 l 1,6,-1
 -34 -418 l 1,7,-1
 282 1490 l 1,8,-1
 538 1490 l 1,9,-1
 445 921 l 1,10,-1
 452 921 l 1,11,12
 486 970 486 970 535 1011.5 c 128,-1,13
 584 1053 584 1053 650 1079 c 128,-1,14
 716 1105 716 1105 800 1105 c 0,15,16
 933 1105 933 1105 1025 1037.5 c 128,-1,17
 1117 970 1117 970 1155.5 844.5 c 128,-1,18
 1194 719 1194 719 1165 543 c 0,19,20
 1136 369 1136 369 1056.5 242.5 c 128,-1,21
 977 116 977 116 862 47.5 c 128,-1,22
 747 -21 747 -21 613 -21 c 0,0,1
583 192 m 0,23,24
 665 192 665 192 731 235.5 c 128,-1,25
 797 279 797 279 842 358 c 128,-1,26
 887 437 887 437 905 544 c 0,27,28
 922 650 922 650 903.5 728.5 c 128,-1,29
 885 807 885 807 834 850.5 c 128,-1,30
 783 894 783 894 699 894 c 256,31,32
 615 894 615 894 548 850.5 c 128,-1,33
 481 807 481 807 435.5 729 c 128,-1,34
 390 651 390 651 372 544 c 0,35,36
 355 439 355 439 374 359.5 c 128,-1,37
 393 280 393 280 446 236 c 128,-1,38
 499 192 499 192 583 192 c 0,23,24
EndSplineSet
EndChar

StartChar: c
Encoding: 99 99 556
Width: 1154
GlyphClass: 2
Flags: W
AnchorPoint: "Anchor-3" 511 0 basechar 0
AnchorPoint: "Anchor-1" 689 1087 basechar 0
AnchorPoint: "Anchor-0" 512 0 basechar 0
LayerCount: 2
Fore
SplineSet
522 -23 m 0,0,1
 381 -23 381 -23 279.5 33.5 c 128,-1,2
 178 90 178 90 122.5 192.5 c 128,-1,3
 67 295 67 295 67 432 c 0,4,5
 67 561 67 561 108.5 681.5 c 128,-1,6
 150 802 150 802 229.5 898 c 128,-1,7
 309 994 309 994 422.5 1050 c 128,-1,8
 536 1106 536 1106 680 1106 c 0,9,10
 777 1106 777 1106 856.5 1079 c 128,-1,11
 936 1052 936 1052 993.5 1002.5 c 128,-1,12
 1051 953 1051 953 1082 883.5 c 128,-1,13
 1113 814 1113 814 1112 728 c 1,14,-1
 863 706 l 1,15,16
 862 748 862 748 850.5 782.5 c 128,-1,17
 839 817 839 817 816.5 842.5 c 128,-1,18
 794 868 794 868 759.5 882 c 128,-1,19
 725 896 725 896 677 896 c 0,20,21
 590 896 590 896 524.5 854.5 c 128,-1,22
 459 813 459 813 414.5 743.5 c 128,-1,23
 370 674 370 674 347.5 592.5 c 128,-1,24
 325 511 325 511 325 429 c 0,25,26
 325 357 325 357 347 302.5 c 128,-1,27
 369 248 369 248 415 218 c 128,-1,28
 461 188 461 188 530 188 c 0,29,30
 581 188 581 188 624.5 202 c 128,-1,31
 668 216 668 216 704 242.5 c 128,-1,32
 740 269 740 269 767 305.5 c 128,-1,33
 794 342 794 342 811 385 c 1,34,-1
 1053 357 l 1,35,36
 1027 271 1027 271 976.5 201 c 128,-1,37
 926 131 926 131 857 81.5 c 128,-1,38
 788 32 788 32 703 4.5 c 128,-1,39
 618 -23 618 -23 522 -23 c 0,0,1
EndSplineSet
Substitution2: "'sups' Superscript in Latin lookup 39 subtable" c.sups
Substitution2: "'subs' Subscript in Latin lookup 38 subtable" c.subs
Substitution2: "'sinf' Scientific Inferiors in Latin lookup 18 subtable" c.subs
AlternateSubs2: "'aalt' Access All Alternates in Latin lookup 1 subtable" c.sups c.subs
EndChar

StartChar: uni023C
Encoding: 572 572 557
Width: 1154
GlyphClass: 2
Flags: W
AnchorPoint: "Anchor-3" 511 0 basechar 0
AnchorPoint: "Anchor-1" 689 1087 basechar 0
AnchorPoint: "Anchor-0" 512 0 basechar 0
LayerCount: 2
Fore
SplineSet
28 -418 m 1,0,-1
 1006 1490 l 1,1,-1
 1156 1490 l 1,2,-1
 177 -418 l 1,3,-1
 28 -418 l 1,0,-1
522 -23 m 0,4,5
 381 -23 381 -23 279.5 33.5 c 128,-1,6
 178 90 178 90 122.5 192.5 c 128,-1,7
 67 295 67 295 67 432 c 0,8,9
 67 561 67 561 108.5 681.5 c 128,-1,10
 150 802 150 802 229.5 898 c 128,-1,11
 309 994 309 994 422.5 1050 c 128,-1,12
 536 1106 536 1106 680 1106 c 0,13,14
 777 1106 777 1106 856.5 1079 c 128,-1,15
 936 1052 936 1052 993.5 1002.5 c 128,-1,16
 1051 953 1051 953 1082 883.5 c 128,-1,17
 1113 814 1113 814 1112 728 c 1,18,-1
 863 706 l 1,19,20
 862 748 862 748 850.5 782.5 c 128,-1,21
 839 817 839 817 816.5 842.5 c 128,-1,22
 794 868 794 868 759.5 882 c 128,-1,23
 725 896 725 896 677 896 c 0,24,25
 590 896 590 896 524.5 854.5 c 128,-1,26
 459 813 459 813 414.5 743.5 c 128,-1,27
 370 674 370 674 347.5 592.5 c 128,-1,28
 325 511 325 511 325 429 c 0,29,30
 325 357 325 357 347 302.5 c 128,-1,31
 369 248 369 248 415 218 c 128,-1,32
 461 188 461 188 530 188 c 0,33,34
 581 188 581 188 624.5 202 c 128,-1,35
 668 216 668 216 704 242.5 c 128,-1,36
 740 269 740 269 767 305.5 c 128,-1,37
 794 342 794 342 811 385 c 1,38,-1
 1053 357 l 1,39,40
 1027 271 1027 271 976.5 201 c 128,-1,41
 926 131 926 131 857 81.5 c 128,-1,42
 788 32 788 32 703 4.5 c 128,-1,43
 618 -23 618 -23 522 -23 c 0,4,5
EndSplineSet
Ligature2: "'ccmp' Glyph Composition/Decomposition in Latin lookup 6 subtable" c uni0338
EndChar

StartChar: uni0188
Encoding: 392 392 558
Width: 1154
GlyphClass: 2
Flags: W
AnchorPoint: "Anchor-3" 511 0 basechar 0
AnchorPoint: "Anchor-1" 689 1087 basechar 0
AnchorPoint: "Anchor-0" 512 0 basechar 0
LayerCount: 2
Fore
SplineSet
895 720 m 1,0,-1
 903 976 l 1,1,2
 903 1134 903 1134 986.5 1210 c 128,-1,3
 1070 1286 1070 1286 1238 1286 c 0,4,5
 1278 1286 1278 1286 1309 1284.5 c 128,-1,6
 1340 1283 1340 1283 1363 1281 c 1,7,-1
 1327 1078 l 1,8,9
 1309 1080 1309 1080 1280 1081 c 128,-1,10
 1251 1082 1251 1082 1230 1082 c 0,11,12
 1173 1082 1173 1082 1147.5 1057 c 128,-1,13
 1122 1032 1122 1032 1122 977 c 2,14,-1
 1112 728 l 1,15,-1
 895 720 l 1,0,-1
522 -23 m 0,16,17
 381 -23 381 -23 279.5 33.5 c 128,-1,18
 178 90 178 90 122.5 192.5 c 128,-1,19
 67 295 67 295 67 432 c 0,20,21
 67 561 67 561 108.5 681.5 c 128,-1,22
 150 802 150 802 229.5 898 c 128,-1,23
 309 994 309 994 422.5 1050 c 128,-1,24
 536 1106 536 1106 680 1106 c 0,25,26
 777 1106 777 1106 856.5 1079 c 128,-1,27
 936 1052 936 1052 993.5 1002.5 c 128,-1,28
 1051 953 1051 953 1082 883.5 c 128,-1,29
 1113 814 1113 814 1112 728 c 1,30,-1
 863 706 l 1,31,32
 862 748 862 748 850.5 782.5 c 128,-1,33
 839 817 839 817 816.5 842.5 c 128,-1,34
 794 868 794 868 759.5 882 c 128,-1,35
 725 896 725 896 677 896 c 0,36,37
 590 896 590 896 524.5 854.5 c 128,-1,38
 459 813 459 813 414.5 743.5 c 128,-1,39
 370 674 370 674 347.5 592.5 c 128,-1,40
 325 511 325 511 325 429 c 0,41,42
 325 357 325 357 347 302.5 c 128,-1,43
 369 248 369 248 415 218 c 128,-1,44
 461 188 461 188 530 188 c 0,45,46
 581 188 581 188 624.5 202 c 128,-1,47
 668 216 668 216 704 242.5 c 128,-1,48
 740 269 740 269 767 305.5 c 128,-1,49
 794 342 794 342 811 385 c 1,50,-1
 1053 357 l 1,51,52
 1027 271 1027 271 976.5 201 c 128,-1,53
 926 131 926 131 857 81.5 c 128,-1,54
 788 32 788 32 703 4.5 c 128,-1,55
 618 -23 618 -23 522 -23 c 0,16,17
EndSplineSet
EndChar

StartChar: d
Encoding: 100 100 567
Width: 1240
GlyphClass: 2
Flags: W
AnchorPoint: "Anchor-1" 644 1291 basechar 0
AnchorPoint: "Anchor-0" 510 0 basechar 0
LayerCount: 2
Fore
SplineSet
456 -21 m 0,0,1
 278 -21 278 -21 172 96.5 c 128,-1,2
 66 214 66 214 66 418 c 0,3,4
 66 545 66 545 103 667.5 c 128,-1,5
 140 790 140 790 210.5 888.5 c 128,-1,6
 281 987 281 987 382.5 1046 c 128,-1,7
 484 1105 484 1105 612 1105 c 0,8,9
 700 1105 700 1105 760 1077.5 c 128,-1,10
 820 1050 820 1050 857.5 1005.5 c 128,-1,11
 895 961 895 961 914 911 c 1,12,-1
 920 911 l 1,13,-1
 1015 1490 l 1,14,-1
 1272 1490 l 1,15,-1
 1025 0 l 1,16,-1
 774 0 l 1,17,-1
 801 166 l 1,18,-1
 793 166 l 1,19,20
 758 112 758 112 709.5 70 c 128,-1,21
 661 28 661 28 598 3.5 c 128,-1,22
 535 -21 535 -21 456 -21 c 0,0,1
528 192 m 0,23,24
 612 192 612 192 677.5 232.5 c 128,-1,25
 743 273 743 273 788 341 c 128,-1,26
 833 409 833 409 856.5 490.5 c 128,-1,27
 880 572 880 572 880 653 c 0,28,29
 880 765 880 765 826.5 829.5 c 128,-1,30
 773 894 773 894 672 894 c 0,31,32
 588 894 588 894 523.5 852.5 c 128,-1,33
 459 811 459 811 414.5 743 c 128,-1,34
 370 675 370 675 347.5 593.5 c 128,-1,35
 325 512 325 512 325 431 c 0,36,37
 325 319 325 319 377 255.5 c 128,-1,38
 429 192 429 192 528 192 c 0,23,24
EndSplineSet
Substitution2: "'sups' Superscript in Latin lookup 39 subtable" d.sups
Substitution2: "'subs' Subscript in Latin lookup 38 subtable" d.subs
Substitution2: "'sinf' Scientific Inferiors in Latin lookup 18 subtable" d.subs
AlternateSubs2: "'aalt' Access All Alternates in Latin lookup 1 subtable" d.sups d.subs
EndChar

StartChar: drthook
Encoding: 598 598 569
Width: 1240
GlyphClass: 2
Flags: W
AnchorPoint: "Anchor-1" 644 1291 basechar 0
AnchorPoint: "Anchor-0" 510 0 basechar 0
LayerCount: 2
Fore
SplineSet
1031 -425 m 0,0,1
 866 -425 866 -425 796.5 -350 c 128,-1,2
 727 -275 727 -275 751 -129 c 2,3,-1
 804 194 l 1,4,-1
 1058 194 l 1,5,-1
 1005 -125 l 2,6,7
 996 -175 996 -175 1020.5 -197.5 c 128,-1,8
 1045 -220 1045 -220 1109 -220 c 0,9,10
 1132 -220 1132 -220 1159.5 -219 c 128,-1,11
 1187 -218 1187 -218 1206 -217 c 1,12,-1
 1173 -418 l 1,13,14
 1146 -421 1146 -421 1110.5 -423 c 128,-1,15
 1075 -425 1075 -425 1031 -425 c 0,0,1
456 -21 m 0,16,17
 278 -21 278 -21 172 96.5 c 128,-1,18
 66 214 66 214 66 418 c 0,19,20
 66 545 66 545 103 667.5 c 128,-1,21
 140 790 140 790 210.5 888.5 c 128,-1,22
 281 987 281 987 382.5 1046 c 128,-1,23
 484 1105 484 1105 612 1105 c 0,24,25
 700 1105 700 1105 760 1077.5 c 128,-1,26
 820 1050 820 1050 857.5 1005.5 c 128,-1,27
 895 961 895 961 914 911 c 1,28,-1
 920 911 l 1,29,-1
 1015 1490 l 1,30,-1
 1272 1490 l 1,31,-1
 1025 0 l 1,32,-1
 774 0 l 1,33,-1
 801 166 l 1,34,-1
 793 166 l 1,35,36
 758 112 758 112 709.5 70 c 128,-1,37
 661 28 661 28 598 3.5 c 128,-1,38
 535 -21 535 -21 456 -21 c 0,16,17
528 192 m 0,39,40
 612 192 612 192 677.5 232.5 c 128,-1,41
 743 273 743 273 788 341 c 128,-1,42
 833 409 833 409 856.5 490.5 c 128,-1,43
 880 572 880 572 880 653 c 0,44,45
 880 765 880 765 826.5 829.5 c 128,-1,46
 773 894 773 894 672 894 c 0,47,48
 588 894 588 894 523.5 852.5 c 128,-1,49
 459 811 459 811 414.5 743 c 128,-1,50
 370 675 370 675 347.5 593.5 c 128,-1,51
 325 512 325 512 325 431 c 0,52,53
 325 319 325 319 377 255.5 c 128,-1,54
 429 192 429 192 528 192 c 0,39,40
EndSplineSet
EndChar

StartChar: uni0257
Encoding: 599 599 570
Width: 1240
GlyphClass: 2
Flags: W
AnchorPoint: "Anchor-4" 1025 0 basechar 0
AnchorPoint: "Anchor-1" 709 1087 basechar 0
AnchorPoint: "Anchor-0" 525 0 basechar 0
LayerCount: 2
Fore
SplineSet
914 880 m 1,0,-1
 949 1087 l 1,1,-1
 967 1202 l 2,2,3
 991 1347 991 1347 1088.5 1422 c 128,-1,4
 1186 1497 1186 1497 1353 1497 c 0,5,6
 1397 1497 1397 1497 1432 1495.5 c 128,-1,7
 1467 1494 1467 1494 1492 1490 c 1,8,-1
 1459 1289 l 1,9,10
 1440 1291 1440 1291 1412.5 1291.5 c 128,-1,11
 1385 1292 1385 1292 1363 1292 c 0,12,13
 1298 1292 1298 1292 1264.5 1270 c 128,-1,14
 1231 1248 1231 1248 1224 1198 c 2,15,-1
 1205 1087 l 1,16,-1
 1171 880 l 1,17,-1
 914 880 l 1,0,-1
441 -21 m 0,18,19
 307 -21 307 -21 214.5 47.5 c 128,-1,20
 122 116 122 116 84.5 243 c 128,-1,21
 47 370 47 370 76 544 c 0,22,23
 104 718 104 718 185 843.5 c 128,-1,24
 266 969 266 969 381 1037 c 128,-1,25
 496 1105 496 1105 628 1105 c 0,26,27
 711 1105 711 1105 769 1079 c 128,-1,28
 827 1053 827 1053 863 1011.5 c 128,-1,29
 899 970 899 970 917 921 c 1,30,-1
 924 921 l 1,31,-1
 952 1087 l 1,32,-1
 1205 1087 l 1,33,-1
 1025 0 l 1,34,-1
 774 0 l 1,35,-1
 802 168 l 1,36,-1
 792 168 l 1,37,38
 757 117 757 117 706.5 74 c 128,-1,39
 656 31 656 31 590.5 5 c 128,-1,40
 525 -21 525 -21 441 -21 c 0,18,19
543 192 m 0,41,42
 627 192 627 192 694 236 c 128,-1,43
 761 280 761 280 806.5 359 c 128,-1,44
 852 438 852 438 869 544 c 0,45,46
 886 651 886 651 867 729 c 128,-1,47
 848 807 848 807 795 850.5 c 128,-1,48
 742 894 742 894 658 894 c 0,49,50
 575 894 575 894 509 850.5 c 128,-1,51
 443 807 443 807 398.5 728.5 c 128,-1,52
 354 650 354 650 336 544 c 0,53,54
 319 438 319 438 337.5 358.5 c 128,-1,55
 356 279 356 279 408 235.5 c 128,-1,56
 460 192 460 192 543 192 c 0,41,42
EndSplineSet
EndChar

StartChar: uni018C
Encoding: 396 396 571
Width: 1240
GlyphClass: 2
Flags: W
AnchorPoint: "Anchor-1" 644 1291 basechar 0
AnchorPoint: "Anchor-0" 510 0 basechar 0
LayerCount: 2
Fore
SplineSet
1108 1286 m 1,0,-1
 386 1286 l 1,1,-1
 420 1490 l 1,2,-1
 1272 1490 l 1,3,-1
 1108 1286 l 1,0,-1
456 -21 m 0,4,5
 278 -21 278 -21 172 96.5 c 128,-1,6
 66 214 66 214 66 418 c 0,7,8
 66 545 66 545 103 667.5 c 128,-1,9
 140 790 140 790 210.5 888.5 c 128,-1,10
 281 987 281 987 382.5 1046 c 128,-1,11
 484 1105 484 1105 612 1105 c 0,12,13
 700 1105 700 1105 760 1077.5 c 128,-1,14
 820 1050 820 1050 857.5 1005.5 c 128,-1,15
 895 961 895 961 914 911 c 1,16,-1
 920 911 l 1,17,-1
 1015 1490 l 1,18,-1
 1272 1490 l 1,19,-1
 1025 0 l 1,20,-1
 774 0 l 1,21,-1
 801 166 l 1,22,-1
 793 166 l 1,23,24
 758 112 758 112 709.5 70 c 128,-1,25
 661 28 661 28 598 3.5 c 128,-1,26
 535 -21 535 -21 456 -21 c 0,4,5
528 192 m 0,27,28
 612 192 612 192 677.5 232.5 c 128,-1,29
 743 273 743 273 788 341 c 128,-1,30
 833 409 833 409 856.5 490.5 c 128,-1,31
 880 572 880 572 880 653 c 0,32,33
 880 765 880 765 826.5 829.5 c 128,-1,34
 773 894 773 894 672 894 c 0,35,36
 588 894 588 894 523.5 852.5 c 128,-1,37
 459 811 459 811 414.5 743 c 128,-1,38
 370 675 370 675 347.5 593.5 c 128,-1,39
 325 512 325 512 325 431 c 0,40,41
 325 319 325 319 377 255.5 c 128,-1,42
 429 192 429 192 528 192 c 0,27,28
EndSplineSet
EndChar

StartChar: uni0221
Encoding: 545 545 572
Width: 1560
GlyphClass: 2
Flags: W
AnchorPoint: "Anchor-1" 644 1291 basechar 0
AnchorPoint: "Anchor-0" 510 0 basechar 0
LayerCount: 2
Fore
SplineSet
1071 -418 m 0,0,1
 938 -418 938 -418 864.5 -372 c 128,-1,2
 791 -326 791 -326 766.5 -247 c 128,-1,3
 742 -168 742 -168 758 -70 c 2,4,-1
 806 225 l 1,5,-1
 1063 225 l 1,6,-1
 1005 -121 l 2,7,8
 995 -182 995 -182 1025 -213 c 128,-1,9
 1055 -244 1055 -244 1103 -244 c 0,10,11
 1148 -244 1148 -244 1181 -217.5 c 128,-1,12
 1214 -191 1214 -191 1221 -150 c 0,13,14
 1227 -111 1227 -111 1207 -85 c 128,-1,15
 1187 -59 1187 -59 1139 -54 c 0,16,17
 1108 -50 1108 -50 1075 -58 c 128,-1,18
 1042 -66 1042 -66 1002.5 -87 c 128,-1,19
 963 -108 963 -108 912 -144 c 2,20,-1
 581 -400 l 1,21,-1
 474 -245 l 1,22,-1
 781 -12 l 2,23,24
 864 52 864 52 964 90.5 c 128,-1,25
 1064 129 1064 129 1160 129 c 0,26,27
 1315 129 1315 129 1394.5 49 c 128,-1,28
 1474 -31 1474 -31 1453 -156 c 0,29,30
 1434 -277 1434 -277 1333 -347.5 c 128,-1,31
 1232 -418 1232 -418 1071 -418 c 0,0,1
456 -21 m 0,32,33
 278 -21 278 -21 172 96.5 c 128,-1,34
 66 214 66 214 66 418 c 0,35,36
 66 545 66 545 103 667.5 c 128,-1,37
 140 790 140 790 210.5 888.5 c 128,-1,38
 281 987 281 987 382.5 1046 c 128,-1,39
 484 1105 484 1105 612 1105 c 0,40,41
 700 1105 700 1105 760 1077.5 c 128,-1,42
 820 1050 820 1050 857.5 1005.5 c 128,-1,43
 895 961 895 961 914 911 c 1,44,-1
 920 911 l 1,45,-1
 1015 1490 l 1,46,-1
 1272 1490 l 1,47,-1
 1025 0 l 1,48,-1
 774 0 l 1,49,-1
 801 166 l 1,50,-1
 793 166 l 1,51,52
 758 112 758 112 709.5 70 c 128,-1,53
 661 28 661 28 598 3.5 c 128,-1,54
 535 -21 535 -21 456 -21 c 0,32,33
528 192 m 0,55,56
 612 192 612 192 677.5 232.5 c 128,-1,57
 743 273 743 273 788 341 c 128,-1,58
 833 409 833 409 856.5 490.5 c 128,-1,59
 880 572 880 572 880 653 c 0,60,61
 880 765 880 765 826.5 829.5 c 128,-1,62
 773 894 773 894 672 894 c 0,63,64
 588 894 588 894 523.5 852.5 c 128,-1,65
 459 811 459 811 414.5 743 c 128,-1,66
 370 675 370 675 347.5 593.5 c 128,-1,67
 325 512 325 512 325 431 c 0,68,69
 325 319 325 319 377 255.5 c 128,-1,70
 429 192 429 192 528 192 c 0,55,56
EndSplineSet
EndChar

StartChar: uni02A3
Encoding: 675 675 580
Width: 2225
GlyphClass: 2
Flags: W
AnchorPoint: "Anchor-1" 644 1291 basechar 0
AnchorPoint: "Anchor-0" 510 0 basechar 0
LayerCount: 2
Fore
SplineSet
1112 0 m 1,0,-1
 1139 163 l 1,1,-1
 1842 896 l 1,2,-1
 1844 905 l 1,3,-1
 1079 905 l 1,4,-1
 1114 1118 l 1,5,-1
 2192 1118 l 1,6,-1
 2164 941 l 1,7,-1
 1489 222 l 1,8,-1
 1486 213 l 1,9,-1
 2060 213 l 1,10,-1
 2026 0 l 1,11,-1
 1112 0 l 1,0,-1
456 -21 m 0,12,13
 278 -21 278 -21 172 96.5 c 128,-1,14
 66 214 66 214 66 418 c 0,15,16
 66 545 66 545 103 667.5 c 128,-1,17
 140 790 140 790 210.5 888.5 c 128,-1,18
 281 987 281 987 382.5 1046 c 128,-1,19
 484 1105 484 1105 612 1105 c 0,20,21
 700 1105 700 1105 760 1077.5 c 128,-1,22
 820 1050 820 1050 857.5 1005.5 c 128,-1,23
 895 961 895 961 914 911 c 1,24,-1
 920 911 l 1,25,-1
 1015 1490 l 1,26,-1
 1272 1490 l 1,27,-1
 1025 0 l 1,28,-1
 774 0 l 1,29,-1
 801 166 l 1,30,-1
 793 166 l 1,31,32
 758 112 758 112 709.5 70 c 128,-1,33
 661 28 661 28 598 3.5 c 128,-1,34
 535 -21 535 -21 456 -21 c 0,12,13
528 192 m 0,35,36
 612 192 612 192 677.5 232.5 c 128,-1,37
 743 273 743 273 788 341 c 128,-1,38
 833 409 833 409 856.5 490.5 c 128,-1,39
 880 572 880 572 880 653 c 0,40,41
 880 765 880 765 826.5 829.5 c 128,-1,42
 773 894 773 894 672 894 c 0,43,44
 588 894 588 894 523.5 852.5 c 128,-1,45
 459 811 459 811 414.5 743 c 128,-1,46
 370 675 370 675 347.5 593.5 c 128,-1,47
 325 512 325 512 325 431 c 0,48,49
 325 319 325 319 377 255.5 c 128,-1,50
 429 192 429 192 528 192 c 0,35,36
EndSplineSet
EndChar

StartChar: dyogh
Encoding: 676 676 582
Width: 2040
GlyphClass: 2
Flags: W
AnchorPoint: "Anchor-1" 644 1291 basechar 0
AnchorPoint: "Anchor-0" 510 0 basechar 0
LayerCount: 2
Fore
SplineSet
1023 -79 m 1,0,1
 1028 -125 1028 -125 1061.5 -157 c 128,-1,2
 1095 -189 1095 -189 1149.5 -206.5 c 128,-1,3
 1204 -224 1204 -224 1270 -224 c 0,4,5
 1356 -224 1356 -224 1426.5 -194 c 128,-1,6
 1497 -164 1497 -164 1543.5 -108.5 c 128,-1,7
 1590 -53 1590 -53 1603 23 c 0,8,9
 1614 97 1614 97 1587.5 153.5 c 128,-1,10
 1561 210 1561 210 1495 241.5 c 128,-1,11
 1429 273 1429 273 1322 273 c 2,12,-1
 1205 273 l 1,13,-1
 1238 477 l 1,14,-1
 1638 860 l 1,15,-1
 1640 866 l 1,16,-1
 1076 866 l 1,17,-1
 1112 1088 l 1,18,-1
 1990 1088 l 1,19,-1
 1959 898 l 1,20,-1
 1475 449 l 1,21,-1
 1474 442 l 1,22,23
 1584 433 1584 433 1664.5 396 c 128,-1,24
 1745 359 1745 359 1793.5 300 c 128,-1,25
 1842 241 1842 241 1860 167.5 c 128,-1,26
 1878 94 1878 94 1865 11 c 0,27,28
 1843 -121 1843 -121 1754 -221.5 c 128,-1,29
 1665 -322 1665 -322 1530 -378 c 128,-1,30
 1395 -434 1395 -434 1234 -434 c 0,31,32
 1092 -434 1092 -434 986 -390 c 128,-1,33
 880 -346 880 -346 821.5 -266 c 128,-1,34
 763 -186 763 -186 763 -79 c 1,35,-1
 1023 -79 l 1,0,1
456 -21 m 0,36,37
 278 -21 278 -21 172 96.5 c 128,-1,38
 66 214 66 214 66 418 c 0,39,40
 66 545 66 545 103 667.5 c 128,-1,41
 140 790 140 790 210.5 888.5 c 128,-1,42
 281 987 281 987 382.5 1046 c 128,-1,43
 484 1105 484 1105 612 1105 c 0,44,45
 700 1105 700 1105 760 1077.5 c 128,-1,46
 820 1050 820 1050 857.5 1005.5 c 128,-1,47
 895 961 895 961 914 911 c 1,48,-1
 920 911 l 1,49,-1
 1015 1490 l 1,50,-1
 1272 1490 l 1,51,-1
 1025 0 l 1,52,-1
 774 0 l 1,53,-1
 801 166 l 1,54,-1
 793 166 l 1,55,56
 758 112 758 112 709.5 70 c 128,-1,57
 661 28 661 28 598 3.5 c 128,-1,58
 535 -21 535 -21 456 -21 c 0,36,37
528 192 m 0,59,60
 612 192 612 192 677.5 232.5 c 128,-1,61
 743 273 743 273 788 341 c 128,-1,62
 833 409 833 409 856.5 490.5 c 128,-1,63
 880 572 880 572 880 653 c 0,64,65
 880 765 880 765 826.5 829.5 c 128,-1,66
 773 894 773 894 672 894 c 0,67,68
 588 894 588 894 523.5 852.5 c 128,-1,69
 459 811 459 811 414.5 743 c 128,-1,70
 370 675 370 675 347.5 593.5 c 128,-1,71
 325 512 325 512 325 431 c 0,72,73
 325 319 325 319 377 255.5 c 128,-1,74
 429 192 429 192 528 192 c 0,59,60
EndSplineSet
EndChar

StartChar: e
Encoding: 101 101 584
Width: 1161
GlyphClass: 2
Flags: W
AnchorPoint: "Anchor-4" 1051 309 basechar 0
AnchorPoint: "Anchor-3" 519 0 basechar 0
AnchorPoint: "Anchor-1" 694 1087 basechar 0
AnchorPoint: "Anchor-0" 519 0 basechar 0
LayerCount: 2
Fore
SplineSet
526 -24 m 0,0,1
 382 -24 382 -24 277.5 29.5 c 128,-1,2
 173 83 173 83 118 188 c 128,-1,3
 63 293 63 293 68 447 c 0,4,5
 72 589 72 589 120 710 c 128,-1,6
 168 831 168 831 252 920.5 c 128,-1,7
 336 1010 336 1010 447.5 1059.5 c 128,-1,8
 559 1109 559 1109 691 1109 c 0,9,10
 806 1109 806 1109 895.5 1072 c 128,-1,11
 985 1035 985 1035 1036 964.5 c 128,-1,12
 1087 894 1087 894 1087 792 c 0,13,14
 1087 689 1087 689 1029.5 622 c 128,-1,15
 972 555 972 555 858.5 517.5 c 128,-1,16
 745 480 745 480 578 465 c 128,-1,17
 411 450 411 450 190 450 c 1,18,-1
 218 621 l 1,19,20
 407 621 407 621 529 630 c 128,-1,21
 651 639 651 639 719.5 658 c 128,-1,22
 788 677 788 677 815.5 709 c 128,-1,23
 843 741 843 741 843 786 c 0,24,25
 843 843 843 843 796.5 875 c 128,-1,26
 750 907 750 907 665 907 c 0,27,28
 565 907 565 907 499 863 c 128,-1,29
 433 819 433 819 393.5 749 c 128,-1,30
 354 679 354 679 336.5 597.5 c 128,-1,31
 319 516 319 516 318 440 c 0,32,33
 316 368 316 368 334 308 c 128,-1,34
 352 248 352 248 402.5 212.5 c 128,-1,35
 453 177 453 177 544 177 c 0,36,37
 643 177 643 177 713 219 c 128,-1,38
 783 261 783 261 814 330 c 1,39,-1
 1051 309 l 1,40,41
 995 159 995 159 857.5 67.5 c 128,-1,42
 720 -24 720 -24 526 -24 c 0,0,1
EndSplineSet
Substitution2: "'sups' Superscript in Latin lookup 39 subtable" e.sups
Substitution2: "'subs' Subscript in Latin lookup 38 subtable" e.subs
Substitution2: "'sinf' Scientific Inferiors in Latin lookup 18 subtable" e.subs
AlternateSubs2: "'aalt' Access All Alternates in Latin lookup 1 subtable" e.sups e.subs
EndChar

StartChar: uni0247
Encoding: 583 583 586
Width: 1161
GlyphClass: 2
Flags: W
AnchorPoint: "Anchor-4" 1051 309 basechar 0
AnchorPoint: "Anchor-3" 519 0 basechar 0
AnchorPoint: "Anchor-1" 694 1087 basechar 0
AnchorPoint: "Anchor-0" 519 0 basechar 0
LayerCount: 2
Fore
SplineSet
5 -418 m 1,0,-1
 1021 1490 l 1,1,-1
 1167 1490 l 1,2,-1
 152 -418 l 1,3,-1
 5 -418 l 1,0,-1
526 -24 m 0,4,5
 382 -24 382 -24 277.5 29.5 c 128,-1,6
 173 83 173 83 118 188 c 128,-1,7
 63 293 63 293 68 447 c 0,8,9
 72 589 72 589 120 710 c 128,-1,10
 168 831 168 831 252 920.5 c 128,-1,11
 336 1010 336 1010 447.5 1059.5 c 128,-1,12
 559 1109 559 1109 691 1109 c 0,13,14
 806 1109 806 1109 895.5 1072 c 128,-1,15
 985 1035 985 1035 1036 964.5 c 128,-1,16
 1087 894 1087 894 1087 792 c 0,17,18
 1087 689 1087 689 1029.5 622 c 128,-1,19
 972 555 972 555 858.5 517.5 c 128,-1,20
 745 480 745 480 578 465 c 128,-1,21
 411 450 411 450 190 450 c 1,22,-1
 218 621 l 1,23,24
 407 621 407 621 529 630 c 128,-1,25
 651 639 651 639 719.5 658 c 128,-1,26
 788 677 788 677 815.5 709 c 128,-1,27
 843 741 843 741 843 786 c 0,28,29
 843 843 843 843 796.5 875 c 128,-1,30
 750 907 750 907 665 907 c 0,31,32
 565 907 565 907 499 863 c 128,-1,33
 433 819 433 819 393.5 749 c 128,-1,34
 354 679 354 679 336.5 597.5 c 128,-1,35
 319 516 319 516 318 440 c 0,36,37
 316 368 316 368 334 308 c 128,-1,38
 352 248 352 248 402.5 212.5 c 128,-1,39
 453 177 453 177 544 177 c 0,40,41
 643 177 643 177 713 219 c 128,-1,42
 783 261 783 261 814 330 c 1,43,-1
 1051 309 l 1,44,45
 995 159 995 159 857.5 67.5 c 128,-1,46
 720 -24 720 -24 526 -24 c 0,4,5
EndSplineSet
EndChar

StartChar: eturn
Encoding: 477 477 615
Width: 1161
GlyphClass: 2
Flags: W
AnchorPoint: "Anchor-4" 110 778 basechar 0
AnchorPoint: "Anchor-3" 642 1087 basechar 0
AnchorPoint: "Anchor-1" 658 1087 basechar 0
AnchorPoint: "Anchor-0" 480 3 basechar 0
LayerCount: 2
Fore
SplineSet
635 1111 m 0,0,1
 779 1111 779 1111 884 1057.5 c 128,-1,2
 989 1004 989 1004 1043.5 899.5 c 128,-1,3
 1098 795 1098 795 1093 640 c 0,4,5
 1089 498 1089 498 1041.5 377.5 c 128,-1,6
 994 257 994 257 910 167.5 c 128,-1,7
 826 78 826 78 714 28 c 128,-1,8
 602 -22 602 -22 470 -22 c 0,9,10
 355 -22 355 -22 266 15 c 128,-1,11
 177 52 177 52 126 123.5 c 128,-1,12
 75 195 75 195 75 295 c 0,13,14
 75 398 75 398 132 465 c 128,-1,15
 189 532 189 532 302.5 570 c 128,-1,16
 416 608 416 608 583.5 623 c 128,-1,17
 751 638 751 638 972 638 c 1,18,-1
 943 467 l 1,19,20
 754 467 754 467 632.5 458 c 128,-1,21
 511 449 511 449 442 429.5 c 128,-1,22
 373 410 373 410 345.5 378 c 128,-1,23
 318 346 318 346 318 301 c 0,24,25
 318 245 318 245 365 212.5 c 128,-1,26
 412 180 412 180 496 180 c 0,27,28
 596 180 596 180 662 224 c 128,-1,29
 728 268 728 268 767.5 338.5 c 128,-1,30
 807 409 807 409 824.5 490.5 c 128,-1,31
 842 572 842 572 843 648 c 0,32,33
 846 721 846 721 827.5 780.5 c 128,-1,34
 809 840 809 840 759 875 c 128,-1,35
 709 910 709 910 617 910 c 0,36,37
 519 910 519 910 449.5 868.5 c 128,-1,38
 380 827 380 827 348 759 c 1,39,-1
 110 778 l 1,40,41
 167 929 167 929 304 1020 c 128,-1,42
 441 1111 441 1111 635 1111 c 0,0,1
EndSplineSet
EndChar

StartChar: _part.f_base
Encoding: 1114123 -1 616
Width: 758
GlyphClass: 2
Flags: W
AnchorPoint: "Anchor-1" 611 1518 basechar 0
LayerCount: 2
Fore
SplineSet
-45 -434 m 0,0,1
 -71 -434 -71 -434 -94 -433.5 c 128,-1,2
 -117 -433 -117 -433 -138.5 -431 c 128,-1,3
 -160 -429 -160 -429 -184 -426 c 1,4,-1
 -137 -216 l 1,5,6
 -118 -217 -118 -217 -96.5 -219 c 128,-1,7
 -75 -221 -75 -221 -53 -221 c 0,8,9
 16 -221 16 -221 50.5 -188.5 c 128,-1,10
 85 -156 85 -156 97 -81 c 2,11,-1
 308 1184 l 2,12,13
 326 1295 326 1295 378.5 1370.5 c 128,-1,14
 431 1446 431 1446 516.5 1485.5 c 128,-1,15
 602 1525 602 1525 715 1525 c 0,16,17
 759 1525 759 1525 798 1522 c 128,-1,18
 837 1519 837 1519 871 1514 c 1,19,-1
 820 1312 l 1,20,21
 801 1314 801 1314 772 1315 c 128,-1,22
 743 1316 743 1316 714 1316 c 0,23,24
 646 1316 646 1316 610.5 1282 c 128,-1,25
 575 1248 575 1248 562 1175 c 2,26,-1
 353 -87 l 2,27,28
 335 -201 335 -201 285.5 -278 c 128,-1,29
 236 -355 236 -355 153.5 -394.5 c 128,-1,30
 71 -434 71 -434 -45 -434 c 0,0,1
EndSplineSet
EndChar

StartChar: f
Encoding: 102 102 617
Width: 763
GlyphClass: 2
Flags: W
AnchorPoint: "Anchor-1" 628 1518 basechar 0
AnchorPoint: "Anchor-0" 256 0 basechar 0
LayerCount: 2
Fore
SplineSet
797 1087 m 1,0,-1
 763 886 l 1,1,-1
 76 886 l 1,2,-1
 109 1087 l 1,3,-1
 797 1087 l 1,0,-1
-27 -434 m 0,4,5
 -54 -434 -54 -434 -77 -433.5 c 128,-1,6
 -100 -433 -100 -433 -121.5 -431 c 128,-1,7
 -143 -429 -143 -429 -167 -426 c 1,8,-1
 -121 -216 l 1,9,10
 -100 -217 -100 -217 -78.5 -219 c 128,-1,11
 -57 -221 -57 -221 -36 -221 c 0,12,13
 33 -221 33 -221 68 -188.5 c 128,-1,14
 103 -156 103 -156 115 -81 c 2,15,-1
 324 1184 l 2,16,17
 344 1295 344 1295 396.5 1370.5 c 128,-1,18
 449 1446 449 1446 534 1485.5 c 128,-1,19
 619 1525 619 1525 732 1525 c 0,20,21
 775 1525 775 1525 815 1522 c 128,-1,22
 855 1519 855 1519 888 1514 c 1,23,-1
 838 1312 l 1,24,25
 817 1314 817 1314 788.5 1315 c 128,-1,26
 760 1316 760 1316 731 1316 c 0,27,28
 664 1316 664 1316 628 1282 c 128,-1,29
 592 1248 592 1248 580 1175 c 2,30,-1
 370 -87 l 2,31,32
 352 -201 352 -201 302 -278 c 128,-1,33
 252 -355 252 -355 170.5 -394.5 c 128,-1,34
 89 -434 89 -434 -27 -434 c 0,4,5
EndSplineSet
Substitution2: "'cv12' Character Variants 12 in Latin lookup 65 subtable" f.1
Substitution2: "'salt' Stylistic Alternatives in Latin lookup 46 subtable" f.1
Substitution2: "'sups' Superscript in Latin lookup 39 subtable" f.sups
Substitution2: "'subs' Subscript in Latin lookup 38 subtable" f.subs
Substitution2: "Single Substitution lookup 36 subtable" f.1
Substitution2: "Single Substitution lookup 35 subtable" f.i.1
Substitution2: "Single Substitution lookup 34 subtable" f.i
Substitution2: "'sinf' Scientific Inferiors in Latin lookup 18 subtable" f.subs
AlternateSubs2: "'aalt' Access All Alternates in Latin lookup 1 subtable" f.sups f.subs
EndChar

StartChar: f.1
Encoding: 60941 60941 618
Width: 669
GlyphClass: 2
Flags: W
AnchorPoint: "Anchor-1" 534 1518 basechar 0
AnchorPoint: "Anchor-0" 163 0 basechar 0
LayerCount: 2
Fore
SplineSet
704 1087 m 1,0,-1
 671 886 l 1,1,-1
 307 886 l 1,2,-1
 340 1087 l 1,3,-1
 704 1087 l 1,0,-1
-120 -434 m 0,4,5
 -147 -434 -147 -434 -170 -433.5 c 128,-1,6
 -193 -433 -193 -433 -214.5 -431 c 128,-1,7
 -236 -429 -236 -429 -260 -426 c 1,8,-1
 -213 -216 l 1,9,10
 -193 -217 -193 -217 -171.5 -219 c 128,-1,11
 -150 -221 -150 -221 -129 -221 c 0,12,13
 -60 -221 -60 -221 -25 -188.5 c 128,-1,14
 10 -156 10 -156 22 -81 c 2,15,-1
 232 1184 l 2,16,17
 251 1295 251 1295 303.5 1370.5 c 128,-1,18
 356 1446 356 1446 441 1485.5 c 128,-1,19
 526 1525 526 1525 640 1525 c 0,20,21
 682 1525 682 1525 721.5 1522 c 128,-1,22
 761 1519 761 1519 795 1514 c 1,23,-1
 745 1312 l 1,24,25
 725 1314 725 1314 696 1315 c 128,-1,26
 667 1316 667 1316 638 1316 c 0,27,28
 571 1316 571 1316 535.5 1282 c 128,-1,29
 500 1248 500 1248 487 1175 c 2,30,-1
 277 -87 l 2,31,32
 259 -201 259 -201 209.5 -278 c 128,-1,33
 160 -355 160 -355 78 -394.5 c 128,-1,34
 -4 -434 -4 -434 -120 -434 c 0,4,5
EndSplineSet
EndChar

StartChar: f.i
Encoding: 60942 60942 619
Width: 672
GlyphClass: 2
Flags: W
AnchorPoint: "Anchor-1" 600 1518 basechar 0
AnchorPoint: "Anchor-0" 230 0 basechar 0
LayerCount: 2
Fore
SplineSet
-56 -434 m 0,0,1
 -82 -434 -82 -434 -105 -433.5 c 128,-1,2
 -128 -433 -128 -433 -149.5 -431 c 128,-1,3
 -171 -429 -171 -429 -194 -426 c 1,4,-1
 -148 -216 l 1,5,6
 -129 -217 -129 -217 -107.5 -219 c 128,-1,7
 -86 -221 -86 -221 -64 -221 c 0,8,9
 5 -221 5 -221 39.5 -188.5 c 128,-1,10
 74 -156 74 -156 87 -81 c 2,11,-1
 297 1184 l 2,12,13
 315 1295 315 1295 368 1370.5 c 128,-1,14
 421 1446 421 1446 506 1485.5 c 128,-1,15
 591 1525 591 1525 704 1525 c 0,16,17
 727 1525 727 1525 748 1525 c 128,-1,18
 769 1525 769 1525 789 1523 c 1,19,-1
 758 1315 l 1,20,21
 743 1316 743 1316 728.5 1316 c 128,-1,22
 714 1316 714 1316 700 1316 c 0,23,24
 634 1316 634 1316 599 1283.5 c 128,-1,25
 564 1251 564 1251 552 1180 c 2,26,-1
 343 -87 l 2,27,28
 323 -201 323 -201 274 -278 c 128,-1,29
 225 -355 225 -355 142.5 -394.5 c 128,-1,30
 60 -434 60 -434 -56 -434 c 0,0,1
87 885 m 1,31,-1
 120 1087 l 1,32,-1
 1006 1087 l 1,33,-1
 973 885 l 1,34,-1
 87 885 l 1,31,-1
EndSplineSet
Substitution2: "Single Substitution lookup 35 subtable" f.i.1
EndChar

StartChar: f.i.1
Encoding: 60943 60943 620
Width: 608
GlyphClass: 2
Flags: W
AnchorPoint: "Anchor-1" 534 1518 basechar 0
AnchorPoint: "Anchor-0" 165 0 basechar 0
LayerCount: 2
Fore
SplineSet
-120 -434 m 0,0,1
 -147 -434 -147 -434 -170 -433.5 c 128,-1,2
 -193 -433 -193 -433 -214.5 -431 c 128,-1,3
 -236 -429 -236 -429 -260 -426 c 1,4,-1
 -213 -216 l 1,5,6
 -193 -217 -193 -217 -171.5 -219 c 128,-1,7
 -150 -221 -150 -221 -129 -221 c 0,8,9
 -60 -221 -60 -221 -25 -188.5 c 128,-1,10
 10 -156 10 -156 22 -81 c 2,11,-1
 232 1184 l 2,12,13
 251 1295 251 1295 303.5 1370.5 c 128,-1,14
 356 1446 356 1446 441 1485.5 c 128,-1,15
 526 1525 526 1525 640 1525 c 0,16,17
 661 1525 661 1525 682 1525 c 128,-1,18
 703 1525 703 1525 724 1523 c 1,19,-1
 692 1315 l 1,20,21
 677 1316 677 1316 662.5 1316 c 128,-1,22
 648 1316 648 1316 635 1316 c 0,23,24
 569 1316 569 1316 534.5 1283.5 c 128,-1,25
 500 1251 500 1251 488 1180 c 2,26,-1
 277 -87 l 2,27,28
 259 -201 259 -201 209.5 -278 c 128,-1,29
 160 -355 160 -355 77.5 -394.5 c 128,-1,30
 -5 -434 -5 -434 -120 -434 c 0,0,1
305 885 m 1,31,-1
 339 1087 l 1,32,-1
 941 1087 l 1,33,-1
 908 885 l 1,34,-1
 305 885 l 1,31,-1
EndSplineSet
EndChar

StartChar: g
Encoding: 103 103 628
Width: 1242
GlyphClass: 2
Flags: W
AnchorPoint: "Anchor-1" 689 1087 basechar 0
AnchorPoint: "Anchor-0" 448 -429 basechar 0
LayerCount: 2
Fore
SplineSet
458 -437 m 0,0,1
 317 -437 317 -437 220 -398.5 c 128,-1,2
 123 -360 123 -360 71 -292 c 128,-1,3
 19 -224 19 -224 12 -136 c 1,4,-1
 247 -104 l 1,5,6
 255 -143 255 -143 279 -173.5 c 128,-1,7
 303 -204 303 -204 347.5 -222 c 128,-1,8
 392 -240 392 -240 460 -240 c 0,9,10
 586 -240 586 -240 670.5 -175.5 c 128,-1,11
 755 -111 755 -111 774 9 c 2,12,-1
 803 187 l 1,13,-1
 791 186 l 1,14,15
 755 134 755 134 708.5 93 c 128,-1,16
 662 52 662 52 601 28.5 c 128,-1,17
 540 5 540 5 460 5 c 0,18,19
 342 5 342 5 253.5 55.5 c 128,-1,20
 165 106 165 106 116 201.5 c 128,-1,21
 67 297 67 297 67 430 c 0,22,23
 67 556 67 556 105 676 c 128,-1,24
 143 796 143 796 214 892.5 c 128,-1,25
 285 989 285 989 385.5 1047 c 128,-1,26
 486 1105 486 1105 614 1105 c 0,27,28
 679 1105 679 1105 729 1089 c 128,-1,29
 779 1073 779 1073 816 1045 c 128,-1,30
 853 1017 853 1017 877.5 982.5 c 128,-1,31
 902 948 902 948 917 911 c 1,32,-1
 925 912 l 1,33,-1
 954 1087 l 1,34,-1
 1207 1087 l 1,35,-1
 1027 4 l 2,36,37
 1002 -152 1002 -152 921.5 -249 c 128,-1,38
 841 -346 841 -346 721 -391.5 c 128,-1,39
 601 -437 601 -437 458 -437 c 0,0,1
531 212 m 0,40,41
 616 212 616 212 681 251 c 128,-1,42
 746 290 746 290 790.5 355 c 128,-1,43
 835 420 835 420 857.5 498.5 c 128,-1,44
 880 577 880 577 880 657 c 0,45,46
 880 768 880 768 827 831.5 c 128,-1,47
 774 895 774 895 672 895 c 0,48,49
 590 895 590 895 525.5 855 c 128,-1,50
 461 815 461 815 416.5 749 c 128,-1,51
 372 683 372 683 349.5 602.5 c 128,-1,52
 327 522 327 522 327 442 c 0,53,54
 327 332 327 332 379.5 272 c 128,-1,55
 432 212 432 212 531 212 c 0,40,41
EndSplineSet
Substitution2: "'smcp' Lowercase to Small Capitals in Latin lookup 68 subtable" g.sc
Substitution2: "'sups' Superscript in Latin lookup 39 subtable" g.sups
Substitution2: "'subs' Subscript in Latin lookup 38 subtable" g.subs
Substitution2: "'sinf' Scientific Inferiors in Latin lookup 18 subtable" g.subs
AlternateSubs2: "'aalt' Access All Alternates in Latin lookup 1 subtable" g.sc g.sups g.subs
EndChar

StartChar: uni0260
Encoding: 608 608 629
Width: 1242
GlyphClass: 2
Flags: W
AnchorPoint: "Anchor-1" 689 1087 basechar 0
AnchorPoint: "Anchor-0" 448 -429 basechar 0
LayerCount: 2
Fore
SplineSet
915 880 m 1,0,-1
 950 1087 l 1,1,-1
 969 1202 l 2,2,3
 994 1347 994 1347 1091 1422 c 128,-1,4
 1188 1497 1188 1497 1354 1497 c 0,5,6
 1398 1497 1398 1497 1433 1495.5 c 128,-1,7
 1468 1494 1468 1494 1494 1490 c 1,8,-1
 1460 1289 l 1,9,10
 1441 1291 1441 1291 1414 1291.5 c 128,-1,11
 1387 1292 1387 1292 1365 1292 c 0,12,13
 1300 1292 1300 1292 1267 1270 c 128,-1,14
 1234 1248 1234 1248 1225 1198 c 2,15,-1
 1207 1087 l 1,16,-1
 1172 880 l 1,17,-1
 915 880 l 1,0,-1
458 -437 m 0,18,19
 317 -437 317 -437 220 -398.5 c 128,-1,20
 123 -360 123 -360 71 -292 c 128,-1,21
 19 -224 19 -224 12 -136 c 1,22,-1
 247 -104 l 1,23,24
 255 -143 255 -143 279 -173.5 c 128,-1,25
 303 -204 303 -204 347.5 -222 c 128,-1,26
 392 -240 392 -240 460 -240 c 0,27,28
 586 -240 586 -240 670.5 -175.5 c 128,-1,29
 755 -111 755 -111 774 9 c 2,30,-1
 803 187 l 1,31,-1
 791 186 l 1,32,33
 755 134 755 134 708.5 93 c 128,-1,34
 662 52 662 52 601 28.5 c 128,-1,35
 540 5 540 5 460 5 c 0,36,37
 342 5 342 5 253.5 55.5 c 128,-1,38
 165 106 165 106 116 201.5 c 128,-1,39
 67 297 67 297 67 430 c 0,40,41
 67 556 67 556 105 676 c 128,-1,42
 143 796 143 796 214 892.5 c 128,-1,43
 285 989 285 989 385.5 1047 c 128,-1,44
 486 1105 486 1105 614 1105 c 0,45,46
 679 1105 679 1105 729 1089 c 128,-1,47
 779 1073 779 1073 816 1045 c 128,-1,48
 853 1017 853 1017 877.5 982.5 c 128,-1,49
 902 948 902 948 917 911 c 1,50,-1
 925 912 l 1,51,-1
 954 1087 l 1,52,-1
 1207 1087 l 1,53,-1
 1027 4 l 2,54,55
 1002 -152 1002 -152 921.5 -249 c 128,-1,56
 841 -346 841 -346 721 -391.5 c 128,-1,57
 601 -437 601 -437 458 -437 c 0,18,19
531 212 m 0,58,59
 616 212 616 212 681 251 c 128,-1,60
 746 290 746 290 790.5 355 c 128,-1,61
 835 420 835 420 857.5 498.5 c 128,-1,62
 880 577 880 577 880 657 c 0,63,64
 880 768 880 768 827 831.5 c 128,-1,65
 774 895 774 895 672 895 c 0,66,67
 590 895 590 895 525.5 855 c 128,-1,68
 461 815 461 815 416.5 749 c 128,-1,69
 372 683 372 683 349.5 602.5 c 128,-1,70
 327 522 327 522 327 442 c 0,71,72
 327 332 327 332 379.5 272 c 128,-1,73
 432 212 432 212 531 212 c 0,58,59
EndSplineSet
Substitution2: "'smcp' Lowercase to Small Capitals in Latin lookup 68 subtable" uni0260.sc
Substitution2: "'c2sc' Capitals to Small Capitals in Latin lookup 67 subtable" uni0260.sc
Substitution2: "'aalt' Access All Alternates in Latin lookup 0 subtable" uni0260.sc
EndChar

StartChar: g.sc
Encoding: 610 610 638
Width: 1141
GlyphClass: 2
Flags: W
AnchorPoint: "Anchor-1" 680 1087 basechar 0
AnchorPoint: "Anchor-0" 499 0 basechar 0
LayerCount: 2
Fore
SplineSet
520 -16 m 0,0,1
 380 -16 380 -16 279 39 c 128,-1,2
 178 94 178 94 122.5 195 c 128,-1,3
 67 296 67 296 67 434 c 0,4,5
 67 568 67 568 111 688.5 c 128,-1,6
 155 809 155 809 235.5 902.5 c 128,-1,7
 316 996 316 996 428 1049.5 c 128,-1,8
 540 1103 540 1103 675 1103 c 0,9,10
 798 1103 798 1103 896.5 1058 c 128,-1,11
 995 1013 995 1013 1051.5 929 c 128,-1,12
 1108 845 1108 845 1103 728 c 1,13,-1
 848 728 l 1,14,15
 845 777 845 777 823 811.5 c 128,-1,16
 801 846 801 846 762.5 864 c 128,-1,17
 724 882 724 882 670 882 c 0,18,19
 586 882 586 882 520 843.5 c 128,-1,20
 454 805 454 805 409.5 740 c 128,-1,21
 365 675 365 675 342.5 596 c 128,-1,22
 320 517 320 517 320 438 c 0,23,24
 320 326 320 326 375.5 265.5 c 128,-1,25
 431 205 431 205 534 205 c 0,26,27
 610 205 610 205 670.5 232.5 c 128,-1,28
 731 260 731 260 769.5 308 c 128,-1,29
 808 356 808 356 817 416 c 1,30,-1
 867 403 l 1,31,-1
 595 403 l 1,32,-1
 627 590 l 1,33,-1
 1090 590 l 1,34,-1
 1064 436 l 2,35,36
 1041 296 1041 296 964 194.5 c 128,-1,37
 887 93 887 93 772.5 38.5 c 128,-1,38
 658 -16 658 -16 520 -16 c 0,0,1
EndSplineSet
EndChar

StartChar: uni0260.sc
Encoding: 60947 60947 639
Width: 1238
GlyphClass: 2
Flags: W
AnchorPoint: "Anchor-1" 680 1087 basechar 0
AnchorPoint: "Anchor-0" 499 0 basechar 0
LayerCount: 2
Fore
SplineSet
936 728 m 1,0,-1
 937 942 l 2,1,2
 936 1038 936 1038 967.5 1109 c 128,-1,3
 999 1180 999 1180 1066 1219.5 c 128,-1,4
 1133 1259 1133 1259 1235 1259 c 0,5,6
 1273 1259 1273 1259 1301.5 1257 c 128,-1,7
 1330 1255 1330 1255 1356 1252 c 1,8,-1
 1322 1052 l 1,9,10
 1304 1053 1304 1053 1283 1053.5 c 128,-1,11
 1262 1054 1262 1054 1245 1054 c 0,12,13
 1179 1054 1179 1054 1150 1018 c 128,-1,14
 1121 982 1121 982 1123 888 c 1,15,-1
 1103 728 l 1,16,-1
 936 728 l 1,0,-1
520 -16 m 0,17,18
 380 -16 380 -16 279 39 c 128,-1,19
 178 94 178 94 122.5 195 c 128,-1,20
 67 296 67 296 67 434 c 0,21,22
 67 568 67 568 111 688.5 c 128,-1,23
 155 809 155 809 235.5 902.5 c 128,-1,24
 316 996 316 996 428 1049.5 c 128,-1,25
 540 1103 540 1103 675 1103 c 0,26,27
 798 1103 798 1103 896.5 1058 c 128,-1,28
 995 1013 995 1013 1051.5 929 c 128,-1,29
 1108 845 1108 845 1103 728 c 1,30,-1
 848 728 l 1,31,32
 845 777 845 777 823 811.5 c 128,-1,33
 801 846 801 846 762.5 864 c 128,-1,34
 724 882 724 882 670 882 c 0,35,36
 586 882 586 882 520 843.5 c 128,-1,37
 454 805 454 805 409.5 740 c 128,-1,38
 365 675 365 675 342.5 596 c 128,-1,39
 320 517 320 517 320 438 c 0,40,41
 320 326 320 326 375.5 265.5 c 128,-1,42
 431 205 431 205 534 205 c 0,43,44
 610 205 610 205 670.5 232.5 c 128,-1,45
 731 260 731 260 769.5 308 c 128,-1,46
 808 356 808 356 817 416 c 1,47,-1
 867 403 l 1,48,-1
 595 403 l 1,49,-1
 627 590 l 1,50,-1
 1090 590 l 1,51,-1
 1064 436 l 2,52,53
 1041 296 1041 296 964 194.5 c 128,-1,54
 887 93 887 93 772.5 38.5 c 128,-1,55
 658 -16 658 -16 520 -16 c 0,17,18
EndSplineSet
EndChar

StartChar: h
Encoding: 104 104 640
Width: 1214
GlyphClass: 2
Flags: W
AnchorPoint: "Anchor-3" 166 0 basechar 0
AnchorPoint: "Anchor-1" 409 1490 basechar 0
AnchorPoint: "Anchor-0" 517 0 basechar 0
LayerCount: 2
Fore
SplineSet
395 626 m 2,0,-1
 291 0 l 1,1,-1
 35 0 l 1,2,-1
 282 1490 l 1,3,-1
 536 1490 l 1,4,-1
 424 815 l 1,5,-1
 384 815 l 1,6,7
 433 911 433 911 492.5 975 c 128,-1,8
 552 1039 552 1039 626 1072 c 128,-1,9
 700 1105 700 1105 791 1105 c 0,10,11
 904 1105 904 1105 984 1056.5 c 128,-1,12
 1064 1008 1064 1008 1099.5 914.5 c 128,-1,13
 1135 821 1135 821 1112 685 c 2,14,-1
 999 0 l 1,15,-1
 742 0 l 1,16,-1
 849 646 l 2,17,18
 868 761 868 761 821 822 c 128,-1,19
 774 883 774 883 672 883 c 0,20,21
 605 883 605 883 547 854.5 c 128,-1,22
 489 826 489 826 449.5 769.5 c 128,-1,23
 410 713 410 713 395 626 c 2,0,-1
EndSplineSet
Substitution2: "'smcp' Lowercase to Small Capitals in Latin lookup 68 subtable" h.sc
Substitution2: "'sups' Superscript in Latin lookup 39 subtable" h.sups
Substitution2: "'subs' Subscript in Latin lookup 38 subtable" h.subs
Substitution2: "'sinf' Scientific Inferiors in Latin lookup 18 subtable" h.subs
AlternateSubs2: "'aalt' Access All Alternates in Latin lookup 1 subtable" h.sups h.subs h.sc
EndChar

StartChar: uni0452
Encoding: 1106 1106 643
Width: 1214
GlyphClass: 2
Flags: W
AnchorPoint: "Anchor-3" 166 0 basechar 0
AnchorPoint: "Anchor-1" 409 1490 basechar 0
AnchorPoint: "Anchor-0" 517 0 basechar 0
LayerCount: 2
Fore
SplineSet
598 -425 m 0,0,1
 554 -425 554 -425 518 -423 c 128,-1,2
 482 -421 482 -421 457 -418 c 1,3,-1
 491 -217 l 1,4,5
 509 -218 509 -218 536.5 -219 c 128,-1,6
 564 -220 564 -220 586 -220 c 0,7,8
 652 -220 652 -220 683 -197 c 128,-1,9
 714 -174 714 -174 721 -125 c 2,10,-1
 742 0 l 1,11,-1
 999 0 l 1,12,-1
 977 -129 l 2,13,14
 952 -276 952 -276 857 -350.5 c 128,-1,15
 762 -425 762 -425 598 -425 c 0,0,1
395 626 m 2,16,-1
 291 0 l 1,17,-1
 35 0 l 1,18,-1
 282 1490 l 1,19,-1
 536 1490 l 1,20,-1
 424 815 l 1,21,-1
 384 815 l 1,22,23
 433 911 433 911 492.5 975 c 128,-1,24
 552 1039 552 1039 626 1072 c 128,-1,25
 700 1105 700 1105 791 1105 c 0,26,27
 904 1105 904 1105 984 1056.5 c 128,-1,28
 1064 1008 1064 1008 1099.5 914.5 c 128,-1,29
 1135 821 1135 821 1112 685 c 2,30,-1
 999 0 l 1,31,-1
 742 0 l 1,32,-1
 849 646 l 2,33,34
 868 761 868 761 821 822 c 128,-1,35
 774 883 774 883 672 883 c 0,36,37
 605 883 605 883 547 854.5 c 128,-1,38
 489 826 489 826 449.5 769.5 c 128,-1,39
 410 713 410 713 395 626 c 2,16,-1
90 1199 m 1,40,-1
 119 1367 l 1,41,-1
 826 1367 l 1,42,-1
 798 1199 l 1,43,-1
 90 1199 l 1,40,-1
EndSplineSet
EndChar

StartChar: uni0266
Encoding: 614 614 644
Width: 1214
GlyphClass: 2
Flags: W
AnchorPoint: "Anchor-1" 697 1087 basechar 0
AnchorPoint: "Anchor-0" 517 0 basechar 0
LayerCount: 2
Fore
SplineSet
181 880 m 1,0,-1
 215 1087 l 1,1,-1
 234 1202 l 2,2,3
 258 1347 258 1347 355.5 1422 c 128,-1,4
 453 1497 453 1497 620 1497 c 0,5,6
 663 1497 663 1497 698.5 1495.5 c 128,-1,7
 734 1494 734 1494 759 1490 c 1,8,-1
 725 1289 l 1,9,10
 707 1291 707 1291 679 1291.5 c 128,-1,11
 651 1292 651 1292 629 1292 c 0,12,13
 565 1292 565 1292 531.5 1270 c 128,-1,14
 498 1248 498 1248 490 1198 c 2,15,-1
 471 1087 l 1,16,-1
 437 880 l 1,17,-1
 181 880 l 1,0,-1
393 617 m 2,18,-1
 291 0 l 1,19,-1
 35 0 l 1,20,-1
 215 1087 l 1,21,-1
 462 1087 l 1,22,-1
 420 815 l 1,23,-1
 383 823 l 1,24,25
 455 965 455 965 555 1035 c 128,-1,26
 655 1105 655 1105 788 1105 c 0,27,28
 904 1105 904 1105 984.5 1054 c 128,-1,29
 1065 1003 1065 1003 1099.5 908 c 128,-1,30
 1134 813 1134 813 1111 677 c 2,31,-1
 999 0 l 1,32,-1
 742 0 l 1,33,-1
 850 654 l 2,34,35
 870 769 870 769 823.5 826 c 128,-1,36
 777 883 777 883 681 883 c 0,37,38
 610 883 610 883 550 852.5 c 128,-1,39
 490 822 490 822 449 763 c 128,-1,40
 408 704 408 704 393 617 c 2,18,-1
EndSplineSet
EndChar

StartChar: uni0267
Encoding: 615 615 645
Width: 1214
GlyphClass: 2
Flags: W
AnchorPoint: "Anchor-1" 697 1087 basechar 0
AnchorPoint: "Anchor-0" 517 0 basechar 0
LayerCount: 2
Fore
SplineSet
598 -425 m 0,0,1
 554 -425 554 -425 518 -423 c 128,-1,2
 482 -421 482 -421 457 -418 c 1,3,-1
 491 -217 l 1,4,5
 509 -218 509 -218 536.5 -219 c 128,-1,6
 564 -220 564 -220 586 -220 c 0,7,8
 652 -220 652 -220 683 -197 c 128,-1,9
 714 -174 714 -174 721 -125 c 2,10,-1
 742 0 l 1,11,-1
 999 0 l 1,12,-1
 977 -129 l 2,13,14
 952 -276 952 -276 857 -350.5 c 128,-1,15
 762 -425 762 -425 598 -425 c 0,0,1
393 617 m 2,16,-1
 291 0 l 1,17,-1
 35 0 l 1,18,-1
 215 1087 l 1,19,-1
 462 1087 l 1,20,-1
 420 815 l 1,21,-1
 383 823 l 1,22,23
 455 965 455 965 555 1035 c 128,-1,24
 655 1105 655 1105 788 1105 c 0,25,26
 904 1105 904 1105 984.5 1054 c 128,-1,27
 1065 1003 1065 1003 1099.5 908 c 128,-1,28
 1134 813 1134 813 1111 677 c 2,29,-1
 999 0 l 1,30,-1
 742 0 l 1,31,-1
 850 654 l 2,32,33
 870 769 870 769 823.5 826 c 128,-1,34
 777 883 777 883 681 883 c 0,35,36
 610 883 610 883 550 852.5 c 128,-1,37
 490 822 490 822 449 763 c 128,-1,38
 408 704 408 704 393 617 c 2,16,-1
181 880 m 1,39,-1
 215 1087 l 1,40,-1
 234 1202 l 2,41,42
 258 1347 258 1347 355.5 1422 c 128,-1,43
 453 1497 453 1497 620 1497 c 0,44,45
 663 1497 663 1497 698.5 1495.5 c 128,-1,46
 734 1494 734 1494 759 1490 c 1,47,-1
 725 1289 l 1,48,49
 707 1291 707 1291 679 1291.5 c 128,-1,50
 651 1292 651 1292 629 1292 c 0,51,52
 565 1292 565 1292 531.5 1270 c 128,-1,53
 498 1248 498 1248 490 1198 c 2,54,-1
 471 1087 l 1,55,-1
 437 880 l 1,56,-1
 181 880 l 1,39,-1
EndSplineSet
EndChar

StartChar: uni0195
Encoding: 405 405 646
Width: 1961
Flags: W
LayerCount: 2
Fore
SplineSet
35 0 m 1,0,-1
 282 1490 l 1,1,-1
 533 1490 l 1,2,-1
 441 928 l 1,3,-1
 455 928 l 1,4,5
 509 1024 509 1024 600 1078 c 128,-1,6
 691 1132 691 1132 821 1132 c 0,7,8
 936 1132 936 1132 1014 1083.5 c 128,-1,9
 1092 1035 1092 1035 1125 941.5 c 128,-1,10
 1158 848 1158 848 1135 711 c 2,11,-1
 1110 558 l 1,12,-1
 852 558 l 1,13,-1
 871 673 l 2,14,15
 889 787 889 787 841 850.5 c 128,-1,16
 793 914 793 914 688 914 c 0,17,18
 618 914 618 914 557.5 884 c 128,-1,19
 497 854 497 854 455.5 796 c 128,-1,20
 414 738 414 738 401 656 c 2,21,-1
 292 0 l 1,22,-1
 35 0 l 1,0,-1
1177 -20 m 0,23,24
 1048 -20 1048 -20 962 32 c 128,-1,25
 876 84 876 84 841.5 185.5 c 128,-1,26
 807 287 807 287 832 438 c 2,27,-1
 852 558 l 1,28,-1
 1110 558 l 1,29,-1
 1090 438 l 2,30,31
 1073 342 1073 342 1091.5 289.5 c 128,-1,32
 1110 237 1110 237 1147.5 217 c 128,-1,33
 1185 197 1185 197 1226 196 c 0,34,35
 1313 197 1313 197 1393 279 c 128,-1,36
 1473 361 1473 361 1539.5 534.5 c 128,-1,37
 1606 708 1606 708 1652 983 c 2,38,-1
 1675 1118 l 1,39,-1
 1932 1118 l 1,40,-1
 1910 983 l 2,41,42
 1852 638 1852 638 1749.5 416 c 128,-1,43
 1647 194 1647 194 1502.5 87 c 128,-1,44
 1358 -20 1358 -20 1177 -20 c 0,23,24
EndSplineSet
EndChar

StartChar: hturn
Encoding: 613 613 647
Width: 1214
GlyphClass: 2
Flags: W
AnchorPoint: "Anchor-3" 1049 1087 basechar 0
AnchorPoint: "Anchor-1" 698 1087 basechar 0
AnchorPoint: "Anchor-0" 698 1087 basechar 0
LayerCount: 2
Fore
SplineSet
819 461 m 2,0,-1
 922 1087 l 1,1,-1
 1179 1087 l 1,2,-1
 932 -403 l 1,3,-1
 677 -403 l 1,4,-1
 790 273 l 1,5,-1
 830 273 l 1,6,7
 782 177 782 177 722 112.5 c 128,-1,8
 662 48 662 48 588 15 c 128,-1,9
 514 -18 514 -18 424 -18 c 0,10,11
 311 -18 311 -18 230.5 31 c 128,-1,12
 150 80 150 80 114.5 174 c 128,-1,13
 79 268 79 268 101 402 c 2,14,-1
 216 1087 l 1,15,-1
 472 1087 l 1,16,-1
 365 442 l 2,17,18
 346 327 346 327 393.5 265.5 c 128,-1,19
 441 204 441 204 542 204 c 0,20,21
 609 204 609 204 667 232.5 c 128,-1,22
 725 261 725 261 765 318 c 128,-1,23
 805 375 805 375 819 461 c 2,0,-1
EndSplineSet
EndChar

StartChar: hturnlthook
Encoding: 686 686 648
Width: 1336
Flags: W
LayerCount: 2
Fore
SplineSet
797 -418 m 1,0,-1
 911 273 l 1,1,-1
 952 273 l 1,2,3
 880 130 880 130 775.5 56 c 128,-1,4
 671 -18 671 -18 534 -18 c 0,5,6
 422 -18 422 -18 344 31 c 128,-1,7
 266 80 266 80 234 174 c 128,-1,8
 202 268 202 268 224 402 c 2,9,-1
 284 768 l 2,10,11
 296 839 296 839 260 864 c 128,-1,12
 224 889 224 889 156 889 c 0,13,14
 144 889 144 889 129.5 888.5 c 128,-1,15
 115 888 115 888 100.5 887.5 c 128,-1,16
 86 887 86 887 75 886 c 1,17,-1
 109 1089 l 1,18,19
 137 1092 137 1092 171 1093 c 128,-1,20
 205 1094 205 1094 245 1094 c 0,21,22
 323 1094 323 1094 384 1075.5 c 128,-1,23
 445 1057 445 1057 485.5 1019 c 128,-1,24
 526 981 526 981 541 921.5 c 128,-1,25
 556 862 556 862 542 780 c 2,26,-1
 487 442 l 2,27,28
 468 329 468 329 514.5 266.5 c 128,-1,29
 561 204 561 204 664 204 c 0,30,31
 731 204 731 204 788.5 232.5 c 128,-1,32
 846 261 846 261 886 318 c 128,-1,33
 926 375 926 375 941 461 c 2,34,-1
 1044 1087 l 1,35,-1
 1300 1087 l 1,36,-1
 1051 -418 l 1,37,-1
 797 -418 l 1,0,-1
EndSplineSet
EndChar

StartChar: hturnhook2
Encoding: 687 687 649
Width: 1338
Flags: W
LayerCount: 2
Fore
SplineSet
1112 -425 m 0,0,1
 958 -425 958 -425 889 -352.5 c 128,-1,2
 820 -280 820 -280 843 -140 c 2,3,-1
 911 273 l 1,4,-1
 951 273 l 1,5,6
 880 130 880 130 775.5 56 c 128,-1,7
 671 -18 671 -18 534 -18 c 0,8,9
 422 -18 422 -18 344 31 c 128,-1,10
 266 80 266 80 234 174 c 128,-1,11
 202 268 202 268 224 402 c 2,12,-1
 284 768 l 2,13,14
 296 839 296 839 260 864 c 128,-1,15
 224 889 224 889 156 889 c 0,16,17
 144 889 144 889 129.5 888.5 c 128,-1,18
 115 888 115 888 100.5 887.5 c 128,-1,19
 86 887 86 887 75 886 c 1,20,-1
 109 1089 l 1,21,22
 137 1092 137 1092 171 1093 c 128,-1,23
 205 1094 205 1094 245 1094 c 0,24,25
 323 1094 323 1094 384 1075.5 c 128,-1,26
 445 1057 445 1057 485.5 1019 c 128,-1,27
 526 981 526 981 541 921.5 c 128,-1,28
 556 862 556 862 542 780 c 2,29,-1
 486 442 l 2,30,31
 468 329 468 329 514.5 266.5 c 128,-1,32
 561 204 561 204 664 204 c 0,33,34
 731 204 731 204 788.5 232.5 c 128,-1,35
 846 261 846 261 886 318 c 128,-1,36
 926 375 926 375 941 461 c 2,37,-1
 1044 1087 l 1,38,-1
 1300 1087 l 1,39,-1
 1099 -130 l 2,40,41
 1091 -179 1091 -179 1115 -200 c 128,-1,42
 1139 -221 1139 -221 1201 -221 c 0,43,44
 1223 -221 1223 -221 1253 -220.5 c 128,-1,45
 1283 -220 1283 -220 1302 -219 c 1,46,-1
 1270 -418 l 1,47,48
 1253 -420 1253 -420 1226.5 -421.5 c 128,-1,49
 1200 -423 1200 -423 1171 -424 c 128,-1,50
 1142 -425 1142 -425 1112 -425 c 0,0,1
EndSplineSet
EndChar

StartChar: dotlessi
Encoding: 305 305 660
Width: 507
GlyphClass: 2
Flags: W
AnchorPoint: "Anchor-4" 292 0 basechar 0
AnchorPoint: "Anchor-1" 344 1087 basechar 0
AnchorPoint: "Anchor-0" 165 0 basechar 0
LayerCount: 2
Fore
SplineSet
36 0 m 1,0,-1
 215 1087 l 1,1,-1
 472 1087 l 1,2,-1
 292 0 l 1,3,-1
 36 0 l 1,0,-1
EndSplineSet
EndChar

StartChar: uni0237
Encoding: 567 567 682
Width: 507
GlyphClass: 2
Flags: W
AnchorPoint: "Anchor-1" 344 1087 basechar 0
AnchorPoint: "Anchor-0" 34 -436 basechar 0
LayerCount: 2
Fore
SplineSet
215 1087 m 1,0,-1
 471 1087 l 1,1,-1
 277 -87 l 2,2,3
 260 -194 260 -194 206 -268 c 128,-1,4
 152 -342 152 -342 66 -380 c 128,-1,5
 -20 -418 -20 -418 -136 -418 c 2,6,-1
 -213 -418 l 1,7,-1
 -179 -209 l 1,8,-1
 -128 -209 l 2,9,10
 -60 -209 -60 -209 -24 -175 c 128,-1,11
 12 -141 12 -141 23 -70 c 2,12,-1
 215 1087 l 1,0,-1
EndSplineSet
EndChar

StartChar: i.sc
Encoding: 60950 60950 689
Width: 679
GlyphClass: 2
Flags: W
AnchorPoint: "Anchor-4" 542 0 basechar 0
AnchorPoint: "Anchor-1" 429 1087 basechar 0
AnchorPoint: "Anchor-0" 249 0 basechar 0
LayerCount: 2
Fore
SplineSet
-43 0 m 1,0,-1
 -9 208 l 1,1,-1
 156 208 l 1,2,-1
 267 880 l 1,3,-1
 102 880 l 1,4,-1
 137 1087 l 1,5,-1
 722 1087 l 1,6,-1
 687 880 l 1,7,-1
 523 880 l 1,8,-1
 412 208 l 1,9,-1
 576 208 l 1,10,-1
 542 0 l 1,11,-1
 -43 0 l 1,0,-1
EndSplineSet
EndChar

StartChar: jcrosstail.ccmp
Encoding: 57423 57423 691
Width: 838
GlyphClass: 2
Flags: W
AnchorPoint: "Anchor-4" 597 0 basechar 0
AnchorPoint: "Anchor-1" 649 1087 basechar 0
AnchorPoint: "Anchor-0" 393 -460 basechar 0
LayerCount: 2
Fore
SplineSet
172 -427 m 0,0,1
 62 -427 62 -427 -6 -391.5 c 128,-1,2
 -74 -356 -74 -356 -102 -294 c 128,-1,3
 -130 -232 -130 -232 -118 -153 c 0,4,5
 -105 -70 -105 -70 -54 -8 c 128,-1,6
 -3 54 -3 54 76.5 88 c 128,-1,7
 156 122 156 122 254 122 c 2,8,-1
 863 122 l 1,9,-1
 832 -69 l 1,10,-1
 239 -69 l 2,11,12
 193 -70 193 -70 157 -93 c 128,-1,13
 121 -116 121 -116 114 -161 c 0,14,15
 107 -202 107 -202 131.5 -224.5 c 128,-1,16
 156 -247 156 -247 199 -248 c 0,17,18
 257 -247 257 -247 285 -206 c 128,-1,19
 313 -165 313 -165 321 -120 c 2,20,-1
 361 124 l 1,21,-1
 615 124 l 1,22,-1
 583 -69 l 2,23,24
 572 -137 572 -137 542.5 -201 c 128,-1,25
 513 -265 513 -265 463 -316 c 128,-1,26
 413 -367 413 -367 340.5 -397 c 128,-1,27
 268 -427 268 -427 172 -427 c 0,0,1
341 0 m 1,28,-1
 521 1087 l 1,29,-1
 777 1087 l 1,30,-1
 597 0 l 1,31,-1
 341 0 l 1,28,-1
EndSplineSet
EndChar

StartChar: k
Encoding: 107 107 698
Width: 1132
GlyphClass: 2
Flags: W
AnchorPoint: "Anchor-1" 410 1490 basechar 0
AnchorPoint: "Anchor-0" 494 0 basechar 0
LayerCount: 2
Fore
SplineSet
326 341 m 1,0,-1
 376 648 l 1,1,-1
 410 648 l 1,2,-1
 890 1087 l 1,3,-1
 1193 1087 l 1,4,-1
 612 552 l 1,5,-1
 560 552 l 1,6,-1
 326 341 l 1,0,-1
35 0 m 1,7,-1
 282 1490 l 1,8,-1
 538 1490 l 1,9,-1
 291 0 l 1,10,-1
 35 0 l 1,7,-1
732 0 m 1,11,-1
 448 495 l 1,12,-1
 651 674 l 1,13,-1
 1040 0 l 1,14,-1
 732 0 l 1,11,-1
EndSplineSet
Substitution2: "'sups' Superscript in Latin lookup 39 subtable" k.sups
Substitution2: "'subs' Subscript in Latin lookup 38 subtable" k.subs
Substitution2: "'sinf' Scientific Inferiors in Latin lookup 18 subtable" k.subs
AlternateSubs2: "'aalt' Access All Alternates in Latin lookup 1 subtable" k.sups k.subs
EndChar

StartChar: uni0199
Encoding: 409 409 699
Width: 1133
GlyphClass: 2
Flags: W
AnchorPoint: "Anchor-1" 344 1087 basechar 0
AnchorPoint: "Anchor-0" 495 0 basechar 0
LayerCount: 2
Fore
SplineSet
181 880 m 1,0,-1
 216 1087 l 1,1,-1
 235 1202 l 2,2,3
 258 1347 258 1347 356 1422 c 128,-1,4
 454 1497 454 1497 620 1497 c 0,5,6
 664 1497 664 1497 699.5 1495.5 c 128,-1,7
 735 1494 735 1494 759 1490 c 1,8,-1
 726 1289 l 1,9,10
 707 1291 707 1291 679.5 1291.5 c 128,-1,11
 652 1292 652 1292 630 1292 c 0,12,13
 566 1292 566 1292 532.5 1270 c 128,-1,14
 499 1248 499 1248 491 1198 c 2,15,-1
 472 1087 l 1,16,-1
 438 880 l 1,17,-1
 181 880 l 1,0,-1
327 341 m 1,18,-1
 377 648 l 1,19,-1
 410 648 l 1,20,-1
 890 1087 l 1,21,-1
 1194 1087 l 1,22,-1
 613 552 l 1,23,-1
 561 552 l 1,24,-1
 327 341 l 1,18,-1
36 0 m 1,25,-1
 216 1087 l 1,26,-1
 472 1087 l 1,27,-1
 292 0 l 1,28,-1
 36 0 l 1,25,-1
733 0 m 1,29,-1
 449 495 l 1,30,-1
 652 674 l 1,31,-1
 1041 0 l 1,32,-1
 733 0 l 1,29,-1
EndSplineSet
EndChar

StartChar: kturn
Encoding: 670 670 705
Width: 1132
GlyphClass: 2
Flags: W
AnchorPoint: "Anchor-1" 658 1087 basechar 0
AnchorPoint: "Anchor-0" 640 1087 basechar 0
LayerCount: 2
Fore
SplineSet
807 746 m 1,0,-1
 756 439 l 1,1,-1
 723 439 l 1,2,-1
 244 0 l 1,3,-1
 -61 0 l 1,4,-1
 520 537 l 1,5,-1
 572 537 l 1,6,-1
 807 746 l 1,0,-1
1098 1087 m 1,7,-1
 851 -403 l 1,8,-1
 594 -403 l 1,9,-1
 841 1087 l 1,10,-1
 1098 1087 l 1,7,-1
400 1087 m 1,11,-1
 685 594 l 1,12,-1
 482 413 l 1,13,-1
 94 1087 l 1,14,-1
 400 1087 l 1,11,-1
EndSplineSet
EndChar

StartChar: k.base
Encoding: 60951 60951 706
Width: 1133
GlyphClass: 2
Flags: W
AnchorPoint: "Anchor-1" 343 1087 basechar 0
AnchorPoint: "Anchor-0" 494 0 basechar 0
LayerCount: 2
Fore
SplineSet
327 341 m 1,0,-1
 377 648 l 1,1,-1
 411 648 l 1,2,-1
 890 1087 l 1,3,-1
 1194 1087 l 1,4,-1
 613 552 l 1,5,-1
 561 552 l 1,6,-1
 327 341 l 1,0,-1
36 0 m 1,7,-1
 216 1087 l 1,8,-1
 472 1087 l 1,9,-1
 292 0 l 1,10,-1
 36 0 l 1,7,-1
733 0 m 1,11,-1
 449 495 l 1,12,-1
 651 674 l 1,13,-1
 1040 0 l 1,14,-1
 733 0 l 1,11,-1
EndSplineSet
EndChar

StartChar: l
Encoding: 1114124 -1 707
Width: 507
GlyphClass: 2
Flags: W
AnchorPoint: "Anchor-1" 410 1490 basechar 0
AnchorPoint: "Anchor-0" 162 0 basechar 0
LayerCount: 2
Fore
SplineSet
538 1490 m 1,0,-1
 291 0 l 1,1,-1
 35 0 l 1,2,-1
 282 1490 l 1,3,-1
 538 1490 l 1,0,-1
EndSplineSet
Substitution2: "'smcp' Lowercase to Small Capitals in Latin lookup 68 subtable" l.sc
Substitution2: "'c2sc' Capitals to Small Capitals in Latin lookup 67 subtable" l.sc
Substitution2: "'cv05' Character Variants 05 in Latin lookup 59 subtable" l.ss02
Substitution2: "'ss04' Style Set 4 in Latin lookup 50 subtable" l.ss02
Substitution2: "'ss02' Style Set 2 in Latin lookup 48 subtable" l.ss02
Substitution2: "'salt' Stylistic Alternatives in Latin lookup 46 subtable" l.ss02
Substitution2: "'sups' Superscript in Latin lookup 39 subtable" l.sups
Substitution2: "'subs' Subscript in Latin lookup 38 subtable" l.subs
Substitution2: "'sinf' Scientific Inferiors in Latin lookup 18 subtable" l.subs
AlternateSubs2: "'aalt' Access All Alternates in Latin lookup 1 subtable" l.sc l.sups l.subs
EndChar

StartChar: lrthook
Encoding: 621 621 711
Width: 507
GlyphClass: 2
Flags: W
AnchorPoint: "Anchor-1" 410 1490 basechar 0
AnchorPoint: "Anchor-0" 162 0 basechar 0
LayerCount: 2
Fore
SplineSet
297 -425 m 0,0,1
 133 -425 133 -425 61 -350.5 c 128,-1,2
 -11 -276 -11 -276 14 -129 c 2,3,-1
 35 0 l 1,4,-1
 291 0 l 1,5,-1
 271 -125 l 2,6,7
 262 -174 262 -174 286 -197 c 128,-1,8
 310 -220 310 -220 375 -220 c 0,9,10
 398 -220 398 -220 425.5 -219 c 128,-1,11
 453 -218 453 -218 472 -217 c 1,12,-1
 438 -418 l 1,13,14
 412 -421 412 -421 376 -423 c 128,-1,15
 340 -425 340 -425 297 -425 c 0,0,1
538 1490 m 1,16,-1
 291 0 l 1,17,-1
 35 0 l 1,18,-1
 282 1490 l 1,19,-1
 538 1490 l 1,16,-1
EndSplineSet
EndChar

StartChar: uni026C
Encoding: 1114128 -1 712
Width: 940
Flags: W
LayerCount: 2
Fore
SplineSet
937 569 m 1,0,-1
 351 569 l 2,1,2
 254 569 254 569 187.5 603 c 128,-1,3
 121 637 121 637 92 699 c 128,-1,4
 63 761 63 761 76 843 c 0,5,6
 89 922 89 922 138 987.5 c 128,-1,7
 187 1053 187 1053 269.5 1092.5 c 128,-1,8
 352 1132 352 1132 462 1132 c 0,9,10
 557 1132 557 1132 619 1103.5 c 128,-1,11
 681 1075 681 1075 715 1025 c 128,-1,12
 749 975 749 975 757.5 910 c 128,-1,13
 766 845 766 845 755 771 c 2,14,-1
 700 443 l 1,15,-1
 443 443 l 1,16,-1
 505 824 l 2,17,18
 513 873 513 873 495.5 905.5 c 128,-1,19
 478 938 478 938 425 938 c 0,20,21
 397 938 397 938 372 925 c 128,-1,22
 347 912 347 912 331 891.5 c 128,-1,23
 315 871 315 871 311 846 c 0,24,25
 306 813 306 813 329 786.5 c 128,-1,26
 352 760 352 760 400 760 c 2,27,-1
 967 760 l 1,28,-1
 937 569 l 1,0,-1
874 1490 m 1,29,-1
 627 0 l 1,30,-1
 369 0 l 1,31,-1
 615 1490 l 1,32,-1
 874 1490 l 1,29,-1
EndSplineSet
Substitution2: "'cv05' Character Variants 05 in Latin lookup 59 subtable" uni026C.ss02
Substitution2: "'ss04' Style Set 4 in Latin lookup 50 subtable" uni026C.ss02
Substitution2: "'ss02' Style Set 2 in Latin lookup 48 subtable" uni026C.ss02
Substitution2: "'salt' Stylistic Alternatives in Latin lookup 46 subtable" uni026C.ss02
EndChar

StartChar: uni0234
Encoding: 564 564 713
Width: 827
GlyphClass: 2
Flags: W
AnchorPoint: "Anchor-1" 410 1490 basechar 0
AnchorPoint: "Anchor-0" 162 0 basechar 0
LayerCount: 2
Fore
SplineSet
336 -418 m 0,0,1
 204 -418 204 -418 130 -372 c 128,-1,2
 56 -326 56 -326 31.5 -247 c 128,-1,3
 7 -168 7 -168 23 -70 c 2,4,-1
 72 225 l 1,5,-1
 328 225 l 1,6,-1
 271 -121 l 2,7,8
 261 -182 261 -182 291 -213 c 128,-1,9
 321 -244 321 -244 369 -244 c 0,10,11
 414 -244 414 -244 447 -217.5 c 128,-1,12
 480 -191 480 -191 487 -150 c 0,13,14
 493 -111 493 -111 473 -85 c 128,-1,15
 453 -59 453 -59 405 -54 c 0,16,17
 374 -50 374 -50 341 -58 c 128,-1,18
 308 -66 308 -66 268.5 -87 c 128,-1,19
 229 -108 229 -108 178 -144 c 2,20,-1
 -154 -400 l 1,21,-1
 -260 -245 l 1,22,-1
 47 -12 l 2,23,24
 130 52 130 52 229.5 90.5 c 128,-1,25
 329 129 329 129 426 129 c 0,26,27
 581 129 581 129 660 49 c 128,-1,28
 739 -31 739 -31 719 -156 c 0,29,30
 699 -277 699 -277 598.5 -347.5 c 128,-1,31
 498 -418 498 -418 336 -418 c 0,0,1
538 1490 m 1,32,-1
 291 0 l 1,33,-1
 35 0 l 1,34,-1
 282 1490 l 1,35,-1
 538 1490 l 1,32,-1
EndSplineSet
EndChar

StartChar: l.ss02
Encoding: 57424 57424 722
AltUni2: 00006c.ffffffff.0
Width: 570
GlyphClass: 2
Flags: W
AnchorPoint: "Anchor-1" 410 1490 basechar 0
AnchorPoint: "Anchor-0" 224 0 basechar 0
LayerCount: 2
Fore
SplineSet
346 -4 m 0,0,1
 184 -4 184 -4 120.5 63.5 c 128,-1,2
 57 131 57 131 81 273 c 2,3,-1
 283 1490 l 1,4,-1
 539 1490 l 1,5,-1
 342 307 l 2,6,7
 333 249 333 249 348.5 225.5 c 128,-1,8
 364 202 364 202 416 202 c 0,9,10
 433 202 433 202 446.5 203 c 128,-1,11
 460 204 460 204 470 206 c 1,12,-1
 458 8 l 1,13,14
 438 4 438 4 408.5 0 c 128,-1,15
 379 -4 379 -4 346 -4 c 0,0,1
EndSplineSet
EndChar

StartChar: uni026C.ss02
Encoding: 57428 57428 726
AltUni2: 00026c.ffffffff.0
Width: 927
GlyphClass: 2
Flags: W
AnchorPoint: "Anchor-1" 739 1490 basechar 0
AnchorPoint: "Anchor-0" 553 0 basechar 0
LayerCount: 2
Fore
SplineSet
382 574 m 2,0,1
 211 574 211 574 130.5 654.5 c 128,-1,2
 50 735 50 735 73 869 c 0,3,4
 87 953 87 953 133 1017.5 c 128,-1,5
 179 1082 179 1082 247 1118.5 c 128,-1,6
 315 1155 315 1155 392 1155 c 0,7,8
 484 1155 484 1155 529.5 1106.5 c 128,-1,9
 575 1058 575 1058 585 977 c 128,-1,10
 595 896 595 896 578 796 c 2,11,-1
 570 743 l 1,12,-1
 487 743 l 1,13,-1
 504 848 l 2,14,15
 512 894 512 894 489.5 928 c 128,-1,16
 467 962 467 962 412 962 c 0,17,18
 372 962 372 962 341 935 c 128,-1,19
 310 908 310 908 304 867 c 0,20,21
 297 829 297 829 322 798.5 c 128,-1,22
 347 768 347 768 393 768 c 2,23,-1
 913 771 l 1,24,-1
 881 574 l 1,25,-1
 382 574 l 2,0,1
675 -4 m 0,26,27
 513 -4 513 -4 449.5 63.5 c 128,-1,28
 386 131 386 131 410 273 c 2,29,-1
 612 1490 l 1,30,-1
 868 1490 l 1,31,-1
 671 307 l 2,32,33
 662 249 662 249 677.5 225.5 c 128,-1,34
 693 202 693 202 745 202 c 0,35,36
 762 202 762 202 775.5 203 c 128,-1,37
 789 204 789 204 799 206 c 1,38,-1
 787 8 l 1,39,40
 767 4 767 4 737.5 0 c 128,-1,41
 708 -4 708 -4 675 -4 c 0,26,27
EndSplineSet
EndChar

StartChar: l.sc
Encoding: 60952 60952 736
Width: 825
GlyphClass: 2
Flags: W
AnchorPoint: "Anchor-1" 298 1087 basechar 0
AnchorPoint: "Anchor-0" 346 0 basechar 0
LayerCount: 2
Fore
SplineSet
-10 0 m 1,0,-1
 170 1087 l 1,1,-1
 426 1087 l 1,2,-1
 281 214 l 1,3,-1
 752 214 l 1,4,-1
 716 0 l 1,5,-1
 -10 0 l 1,0,-1
EndSplineSet
EndChar

StartChar: m
Encoding: 109 109 737
Width: 1811
GlyphClass: 2
Flags: W
AnchorPoint: "Anchor-1" 996 1087 basechar 0
AnchorPoint: "Anchor-0" 816 0 basechar 0
LayerCount: 2
Fore
SplineSet
35 0 m 1,0,-1
 215 1087 l 1,1,-1
 460 1087 l 1,2,-1
 424 837 l 1,3,-1
 404 845 l 1,4,5
 445 938 445 938 504 995 c 128,-1,6
 563 1052 563 1052 631.5 1079.5 c 128,-1,7
 700 1107 700 1107 770 1107 c 0,8,9
 854 1107 854 1107 915.5 1071.5 c 128,-1,10
 977 1036 977 1036 1010 972.5 c 128,-1,11
 1043 909 1043 909 1045 823 c 1,12,-1
 1016 840 l 1,13,14
 1052 927 1052 927 1113 986.5 c 128,-1,15
 1174 1046 1174 1046 1251 1076.5 c 128,-1,16
 1328 1107 1328 1107 1412 1107 c 0,17,18
 1516 1107 1516 1107 1591.5 1061 c 128,-1,19
 1667 1015 1667 1015 1702 928.5 c 128,-1,20
 1737 842 1737 842 1716 717 c 2,21,-1
 1597 0 l 1,22,-1
 1341 0 l 1,23,-1
 1456 696 l 2,24,25
 1468 767 1468 767 1450.5 809 c 128,-1,26
 1433 851 1433 851 1395.5 870 c 128,-1,27
 1358 889 1358 889 1308 889 c 0,28,29
 1241 889 1241 889 1186 859.5 c 128,-1,30
 1131 830 1131 830 1096.5 780 c 128,-1,31
 1062 730 1062 730 1051 667 c 2,32,-1
 941 0 l 1,33,-1
 692 0 l 1,34,-1
 809 708 l 2,35,36
 823 795 823 795 781.5 842 c 128,-1,37
 740 889 740 889 662 889 c 0,38,39
 602 889 602 889 546.5 860.5 c 128,-1,40
 491 832 491 832 451.5 778.5 c 128,-1,41
 412 725 412 725 399 650 c 2,42,-1
 291 0 l 1,43,-1
 35 0 l 1,0,-1
EndSplineSet
Substitution2: "'smcp' Lowercase to Small Capitals in Latin lookup 68 subtable" m.sc
Substitution2: "'c2sc' Capitals to Small Capitals in Latin lookup 67 subtable" m.sc
Substitution2: "'sups' Superscript in Latin lookup 39 subtable" m.sups
Substitution2: "'subs' Subscript in Latin lookup 38 subtable" m.subs
Substitution2: "'sinf' Scientific Inferiors in Latin lookup 18 subtable" m.subs
AlternateSubs2: "'aalt' Access All Alternates in Latin lookup 1 subtable" m.sups m.subs m.sc
EndChar

StartChar: uni0271
Encoding: 625 625 738
Width: 1811
GlyphClass: 2
Flags: W
AnchorPoint: "Anchor-1" 996 1087 basechar 0
AnchorPoint: "Anchor-0" 816 0 basechar 0
LayerCount: 2
Fore
SplineSet
1196 -425 m 0,0,1
 1152 -425 1152 -425 1116 -423 c 128,-1,2
 1080 -421 1080 -421 1056 -418 c 1,3,-1
 1089 -217 l 1,4,5
 1106 -218 1106 -218 1134 -219 c 128,-1,6
 1162 -220 1162 -220 1184 -220 c 0,7,8
 1251 -220 1251 -220 1281.5 -197 c 128,-1,9
 1312 -174 1312 -174 1320 -125 c 2,10,-1
 1341 0 l 1,11,-1
 1597 0 l 1,12,-1
 1576 -129 l 2,13,14
 1551 -276 1551 -276 1456 -350.5 c 128,-1,15
 1361 -425 1361 -425 1196 -425 c 0,0,1
35 0 m 1,16,-1
 215 1087 l 1,17,-1
 460 1087 l 1,18,-1
 424 837 l 1,19,-1
 404 845 l 1,20,21
 445 938 445 938 504 995 c 128,-1,22
 563 1052 563 1052 631.5 1079.5 c 128,-1,23
 700 1107 700 1107 770 1107 c 0,24,25
 854 1107 854 1107 915.5 1071.5 c 128,-1,26
 977 1036 977 1036 1010 972.5 c 128,-1,27
 1043 909 1043 909 1045 823 c 1,28,-1
 1016 840 l 1,29,30
 1052 927 1052 927 1113 986.5 c 128,-1,31
 1174 1046 1174 1046 1251 1076.5 c 128,-1,32
 1328 1107 1328 1107 1412 1107 c 0,33,34
 1516 1107 1516 1107 1591.5 1061 c 128,-1,35
 1667 1015 1667 1015 1702 928.5 c 128,-1,36
 1737 842 1737 842 1716 717 c 2,37,-1
 1597 0 l 1,38,-1
 1341 0 l 1,39,-1
 1456 696 l 2,40,41
 1468 767 1468 767 1450.5 809 c 128,-1,42
 1433 851 1433 851 1395.5 870 c 128,-1,43
 1358 889 1358 889 1308 889 c 0,44,45
 1241 889 1241 889 1186 859.5 c 128,-1,46
 1131 830 1131 830 1096.5 780 c 128,-1,47
 1062 730 1062 730 1051 667 c 2,48,-1
 941 0 l 1,49,-1
 692 0 l 1,50,-1
 809 708 l 2,51,52
 823 795 823 795 781.5 842 c 128,-1,53
 740 889 740 889 662 889 c 0,54,55
 602 889 602 889 546.5 860.5 c 128,-1,56
 491 832 491 832 451.5 778.5 c 128,-1,57
 412 725 412 725 399 650 c 2,58,-1
 291 0 l 1,59,-1
 35 0 l 1,16,-1
EndSplineSet
EndChar

StartChar: mturn
Encoding: 623 623 739
Width: 1811
GlyphClass: 2
Flags: W
AnchorPoint: "Anchor-1" 995 1087 basechar 0
AnchorPoint: "Anchor-0" 815 0 basechar 0
LayerCount: 2
Fore
SplineSet
1777 1087 m 1,0,-1
 1597 0 l 1,1,-1
 1353 0 l 1,2,-1
 1388 250 l 1,3,-1
 1409 242 l 1,4,5
 1367 151 1367 151 1308 93 c 128,-1,6
 1249 35 1249 35 1181 7.5 c 128,-1,7
 1113 -20 1113 -20 1043 -20 c 0,8,9
 957 -20 957 -20 896.5 15.5 c 128,-1,10
 836 51 836 51 802.5 115.5 c 128,-1,11
 769 180 769 180 766 264 c 1,12,-1
 796 248 l 1,13,14
 760 161 760 161 699 101.5 c 128,-1,15
 638 42 638 42 561 11 c 128,-1,16
 484 -20 484 -20 400 -20 c 0,17,18
 297 -20 297 -20 221 26 c 128,-1,19
 145 72 145 72 110.5 159.5 c 128,-1,20
 76 247 76 247 97 370 c 2,21,-1
 215 1087 l 1,22,-1
 472 1087 l 1,23,-1
 356 391 l 2,24,25
 345 322 345 322 362 279.5 c 128,-1,26
 379 237 379 237 417 217.5 c 128,-1,27
 455 198 455 198 504 198 c 0,28,29
 572 198 572 198 626 227.5 c 128,-1,30
 680 257 680 257 715 307.5 c 128,-1,31
 750 358 750 358 761 420 c 2,32,-1
 872 1087 l 1,33,-1
 1121 1087 l 1,34,-1
 1004 380 l 2,35,36
 989 293 989 293 1030.5 245.5 c 128,-1,37
 1072 198 1072 198 1149 198 c 0,38,39
 1210 198 1210 198 1266 227 c 128,-1,40
 1322 256 1322 256 1361.5 309.5 c 128,-1,41
 1401 363 1401 363 1414 439 c 2,42,-1
 1520 1087 l 1,43,-1
 1777 1087 l 1,0,-1
EndSplineSet
EndChar

StartChar: mturndescend
Encoding: 624 624 740
Width: 1811
GlyphClass: 2
Flags: W
AnchorPoint: "Anchor-1" 995 1087 basechar 0
AnchorPoint: "Anchor-0" 815 0 basechar 0
LayerCount: 2
Fore
SplineSet
1278 -418 m 1,0,-1
 1347 0 l 1,1,-1
 1593 0 l 1,2,-1
 1524 -418 l 1,3,-1
 1278 -418 l 1,0,-1
1777 1087 m 1,4,-1
 1597 0 l 1,5,-1
 1353 0 l 1,6,-1
 1388 250 l 1,7,-1
 1409 242 l 1,8,9
 1367 151 1367 151 1308 93 c 128,-1,10
 1249 35 1249 35 1181 7.5 c 128,-1,11
 1113 -20 1113 -20 1043 -20 c 0,12,13
 957 -20 957 -20 896.5 15.5 c 128,-1,14
 836 51 836 51 802.5 115.5 c 128,-1,15
 769 180 769 180 766 264 c 1,16,-1
 796 248 l 1,17,18
 760 161 760 161 699 101.5 c 128,-1,19
 638 42 638 42 561 11 c 128,-1,20
 484 -20 484 -20 400 -20 c 0,21,22
 297 -20 297 -20 221 26 c 128,-1,23
 145 72 145 72 110.5 159.5 c 128,-1,24
 76 247 76 247 97 370 c 2,25,-1
 215 1087 l 1,26,-1
 472 1087 l 1,27,-1
 356 391 l 2,28,29
 345 322 345 322 362 279.5 c 128,-1,30
 379 237 379 237 417 217.5 c 128,-1,31
 455 198 455 198 504 198 c 0,32,33
 572 198 572 198 626 227.5 c 128,-1,34
 680 257 680 257 715 307.5 c 128,-1,35
 750 358 750 358 761 420 c 2,36,-1
 872 1087 l 1,37,-1
 1121 1087 l 1,38,-1
 1004 380 l 2,39,40
 989 293 989 293 1030.5 245.5 c 128,-1,41
 1072 198 1072 198 1149 198 c 0,42,43
 1210 198 1210 198 1266 227 c 128,-1,44
 1322 256 1322 256 1361.5 309.5 c 128,-1,45
 1401 363 1401 363 1414 439 c 2,46,-1
 1520 1087 l 1,47,-1
 1777 1087 l 1,4,-1
EndSplineSet
EndChar

StartChar: n
Encoding: 110 110 744
Width: 1214
GlyphClass: 2
Flags: W
AnchorPoint: "Anchor-1" 697 1087 basechar 0
AnchorPoint: "Anchor-0" 517 0 basechar 0
LayerCount: 2
Fore
SplineSet
393 617 m 2,0,-1
 291 0 l 1,1,-1
 35 0 l 1,2,-1
 215 1087 l 1,3,-1
 462 1087 l 1,4,-1
 420 815 l 1,5,-1
 383 823 l 1,6,7
 455 965 455 965 555 1035 c 128,-1,8
 655 1105 655 1105 788 1105 c 0,9,10
 904 1105 904 1105 984.5 1054 c 128,-1,11
 1065 1003 1065 1003 1099.5 908 c 128,-1,12
 1134 813 1134 813 1111 677 c 2,13,-1
 999 0 l 1,14,-1
 742 0 l 1,15,-1
 850 654 l 2,16,17
 870 769 870 769 823.5 826 c 128,-1,18
 777 883 777 883 681 883 c 0,19,20
 610 883 610 883 550 852.5 c 128,-1,21
 490 822 490 822 449 763 c 128,-1,22
 408 704 408 704 393 617 c 2,0,-1
EndSplineSet
Substitution2: "'smcp' Lowercase to Small Capitals in Latin lookup 68 subtable" n.sc
Substitution2: "'c2sc' Capitals to Small Capitals in Latin lookup 67 subtable" n.sc
Substitution2: "'sups' Superscript in Latin lookup 39 subtable" n.sups
Substitution2: "'subs' Subscript in Latin lookup 38 subtable" n.subs
Substitution2: "'numr' Numerators in Latin lookup 19 subtable" n.numr
Substitution2: "'sinf' Scientific Inferiors in Latin lookup 18 subtable" n.subs
AlternateSubs2: "'aalt' Access All Alternates in Latin lookup 1 subtable" n.sc n.numr n.sups n.subs
EndChar

StartChar: nrthook
Encoding: 627 627 746
Width: 1214
GlyphClass: 2
Flags: W
AnchorPoint: "Anchor-1" 697 1087 basechar 0
AnchorPoint: "Anchor-0" 517 0 basechar 0
LayerCount: 2
Fore
SplineSet
1004 -425 m 0,0,1
 840 -425 840 -425 768.5 -350.5 c 128,-1,2
 697 -276 697 -276 721 -129 c 2,3,-1
 742 0 l 1,4,-1
 999 0 l 1,5,-1
 978 -125 l 2,6,7
 969 -174 969 -174 993 -197 c 128,-1,8
 1017 -220 1017 -220 1082 -220 c 0,9,10
 1104 -220 1104 -220 1131.5 -219 c 128,-1,11
 1159 -218 1159 -218 1179 -217 c 1,12,-1
 1146 -418 l 1,13,14
 1119 -421 1119 -421 1083.5 -423 c 128,-1,15
 1048 -425 1048 -425 1004 -425 c 0,0,1
393 617 m 2,16,-1
 291 0 l 1,17,-1
 35 0 l 1,18,-1
 215 1087 l 1,19,-1
 462 1087 l 1,20,-1
 420 815 l 1,21,-1
 383 823 l 1,22,23
 455 965 455 965 555 1035 c 128,-1,24
 655 1105 655 1105 788 1105 c 0,25,26
 904 1105 904 1105 984.5 1054 c 128,-1,27
 1065 1003 1065 1003 1099.5 908 c 128,-1,28
 1134 813 1134 813 1111 677 c 2,29,-1
 999 0 l 1,30,-1
 742 0 l 1,31,-1
 850 654 l 2,32,33
 870 769 870 769 823.5 826 c 128,-1,34
 777 883 777 883 681 883 c 0,35,36
 610 883 610 883 550 852.5 c 128,-1,37
 490 822 490 822 449 763 c 128,-1,38
 408 704 408 704 393 617 c 2,16,-1
EndSplineSet
EndChar

StartChar: eng
Encoding: 331 331 747
Width: 1214
GlyphClass: 2
Flags: W
AnchorPoint: "Anchor-1" 697 1087 basechar 0
AnchorPoint: "Anchor-0" 517 0 basechar 0
LayerCount: 2
Fore
SplineSet
461 -418 m 1,0,-1
 496 -206 l 1,1,2
 516 -209 516 -209 543.5 -209.5 c 128,-1,3
 571 -210 571 -210 590 -210 c 0,4,5
 655 -210 655 -210 684.5 -188 c 128,-1,6
 714 -166 714 -166 723 -115 c 2,7,-1
 742 0 l 1,8,-1
 999 0 l 1,9,-1
 977 -129 l 2,10,11
 952 -276 952 -276 855.5 -350.5 c 128,-1,12
 759 -425 759 -425 595 -425 c 0,13,14
 552 -425 552 -425 519 -423 c 128,-1,15
 486 -421 486 -421 461 -418 c 1,0,-1
393 617 m 2,16,-1
 291 0 l 1,17,-1
 35 0 l 1,18,-1
 215 1087 l 1,19,-1
 462 1087 l 1,20,-1
 420 815 l 1,21,-1
 383 823 l 1,22,23
 455 965 455 965 555 1035 c 128,-1,24
 655 1105 655 1105 788 1105 c 0,25,26
 904 1105 904 1105 984.5 1054 c 128,-1,27
 1065 1003 1065 1003 1099.5 908 c 128,-1,28
 1134 813 1134 813 1111 677 c 2,29,-1
 999 0 l 1,30,-1
 742 0 l 1,31,-1
 850 654 l 2,32,33
 870 769 870 769 823.5 826 c 128,-1,34
 777 883 777 883 681 883 c 0,35,36
 610 883 610 883 550 852.5 c 128,-1,37
 490 822 490 822 449 763 c 128,-1,38
 408 704 408 704 393 617 c 2,16,-1
EndSplineSet
EndChar

StartChar: uni0235
Encoding: 565 565 748
Width: 1534
GlyphClass: 2
Flags: W
AnchorPoint: "Anchor-1" 697 1087 basechar 0
AnchorPoint: "Anchor-0" 517 0 basechar 0
LayerCount: 2
Fore
SplineSet
1043 -418 m 0,0,1
 912 -418 912 -418 837.5 -372 c 128,-1,2
 763 -326 763 -326 739 -247 c 128,-1,3
 715 -168 715 -168 731 -70 c 2,4,-1
 779 225 l 1,5,-1
 1036 225 l 1,6,-1
 979 -121 l 2,7,8
 969 -182 969 -182 999 -213 c 128,-1,9
 1029 -244 1029 -244 1077 -244 c 0,10,11
 1122 -244 1122 -244 1155 -217.5 c 128,-1,12
 1188 -191 1188 -191 1194 -150 c 0,13,14
 1201 -111 1201 -111 1180 -85 c 128,-1,15
 1159 -59 1159 -59 1113 -54 c 0,16,17
 1080 -50 1080 -50 1047 -58 c 128,-1,18
 1014 -66 1014 -66 975 -87 c 128,-1,19
 936 -108 936 -108 886 -144 c 2,20,-1
 553 -400 l 1,21,-1
 448 -245 l 1,22,-1
 755 -12 l 2,23,24
 837 52 837 52 936.5 90.5 c 128,-1,25
 1036 129 1036 129 1134 129 c 0,26,27
 1287 129 1287 129 1367 49 c 128,-1,28
 1447 -31 1447 -31 1427 -156 c 0,29,30
 1407 -277 1407 -277 1306.5 -347.5 c 128,-1,31
 1206 -418 1206 -418 1043 -418 c 0,0,1
393 617 m 2,32,-1
 291 0 l 1,33,-1
 35 0 l 1,34,-1
 215 1087 l 1,35,-1
 462 1087 l 1,36,-1
 420 815 l 1,37,-1
 383 823 l 1,38,39
 455 965 455 965 555 1035 c 128,-1,40
 655 1105 655 1105 788 1105 c 0,41,42
 904 1105 904 1105 984.5 1054 c 128,-1,43
 1065 1003 1065 1003 1099.5 908 c 128,-1,44
 1134 813 1134 813 1111 677 c 2,45,-1
 999 0 l 1,46,-1
 742 0 l 1,47,-1
 850 654 l 2,48,49
 870 769 870 769 823.5 826 c 128,-1,50
 777 883 777 883 681 883 c 0,51,52
 610 883 610 883 550 852.5 c 128,-1,53
 490 822 490 822 449 763 c 128,-1,54
 408 704 408 704 393 617 c 2,32,-1
EndSplineSet
EndChar

StartChar: nlfthook
Encoding: 626 626 749
Width: 1214
GlyphClass: 2
Flags: W
AnchorPoint: "Anchor-1" 697 1087 basechar 0
AnchorPoint: "Anchor-0" 517 0 basechar 0
LayerCount: 2
Fore
SplineSet
-110 -425 m 0,0,1
 -153 -425 -153 -425 -189 -423 c 128,-1,2
 -225 -421 -225 -421 -250 -418 c 1,3,-1
 -216 -217 l 1,4,5
 -198 -218 -198 -218 -171 -219 c 128,-1,6
 -144 -220 -144 -220 -121 -220 c 0,7,8
 -55 -220 -55 -220 -24 -197 c 128,-1,9
 7 -174 7 -174 14 -125 c 2,10,-1
 35 0 l 1,11,-1
 292 0 l 1,12,-1
 270 -129 l 2,13,14
 245 -276 245 -276 150 -350.5 c 128,-1,15
 55 -425 55 -425 -110 -425 c 0,0,1
393 617 m 2,16,-1
 291 0 l 1,17,-1
 35 0 l 1,18,-1
 215 1087 l 1,19,-1
 462 1087 l 1,20,-1
 420 815 l 1,21,-1
 383 823 l 1,22,23
 455 965 455 965 555 1035 c 128,-1,24
 655 1105 655 1105 788 1105 c 0,25,26
 904 1105 904 1105 984.5 1054 c 128,-1,27
 1065 1003 1065 1003 1099.5 908 c 128,-1,28
 1134 813 1134 813 1111 677 c 2,29,-1
 999 0 l 1,30,-1
 742 0 l 1,31,-1
 850 654 l 2,32,33
 870 769 870 769 823.5 826 c 128,-1,34
 777 883 777 883 681 883 c 0,35,36
 610 883 610 883 550 852.5 c 128,-1,37
 490 822 490 822 449 763 c 128,-1,38
 408 704 408 704 393 617 c 2,16,-1
EndSplineSet
EndChar

StartChar: n.sc
Encoding: 60953 60953 760
Width: 1267
GlyphClass: 2
Flags: W
AnchorPoint: "Anchor-1" 724 1087 basechar 0
AnchorPoint: "Anchor-0" 544 0 basechar 0
LayerCount: 2
Fore
SplineSet
36 0 m 1,0,-1
 216 1087 l 1,1,-1
 491 1087 l 1,2,-1
 741 572 l 2,3,4
 788 476 788 476 821.5 393 c 128,-1,5
 855 310 855 310 884 232 c 1,6,-1
 845 232 l 1,7,8
 853 288 853 288 861 341.5 c 128,-1,9
 869 395 869 395 877.5 452 c 128,-1,10
 886 509 886 509 897 572 c 2,11,-1
 982 1087 l 1,12,-1
 1233 1087 l 1,13,-1
 1053 0 l 1,14,-1
 780 0 l 1,15,-1
 529 518 l 2,16,17
 483 612 483 612 449.5 694.5 c 128,-1,18
 416 777 416 777 386 857 c 1,19,-1
 423 857 l 1,20,21
 416 804 416 804 408 750 c 128,-1,22
 400 696 400 696 391.5 639 c 128,-1,23
 383 582 383 582 371 518 c 2,24,-1
 286 0 l 1,25,-1
 36 0 l 1,0,-1
EndSplineSet
EndChar

StartChar: o
Encoding: 111 111 761
Width: 1207
GlyphClass: 2
Flags: W
AnchorPoint: "Anchor-4" 1132 540 basechar 0
AnchorPoint: "Anchor-1" 694 1087 basechar 0
AnchorPoint: "Anchor-0" 514 0 basechar 0
LayerCount: 2
Fore
SplineSet
524 -23 m 256,0,1
 381 -23 381 -23 279.5 33.5 c 128,-1,2
 178 90 178 90 123 192.5 c 128,-1,3
 68 295 68 295 68 433 c 0,4,5
 68 566 68 566 110.5 687 c 128,-1,6
 153 808 153 808 234 902.5 c 128,-1,7
 315 997 315 997 428.5 1051.5 c 128,-1,8
 542 1106 542 1106 682 1106 c 0,9,10
 825 1106 825 1106 927.5 1049.5 c 128,-1,11
 1030 993 1030 993 1084.5 890 c 128,-1,12
 1139 787 1139 787 1139 649 c 0,13,14
 1139 517 1139 517 1097 396.5 c 128,-1,15
 1055 276 1055 276 974.5 181 c 128,-1,16
 894 86 894 86 780.5 31.5 c 128,-1,17
 667 -23 667 -23 524 -23 c 256,0,1
535 188 m 0,18,19
 622 188 622 188 687 230.5 c 128,-1,20
 752 273 752 273 795.5 342 c 128,-1,21
 839 411 839 411 861 493 c 128,-1,22
 883 575 883 575 883 652 c 0,23,24
 883 727 883 727 858.5 781 c 128,-1,25
 834 835 834 835 787 865.5 c 128,-1,26
 740 896 740 896 671 896 c 0,27,28
 586 896 586 896 521 853.5 c 128,-1,29
 456 811 456 811 412 742 c 128,-1,30
 368 673 368 673 346.5 591 c 128,-1,31
 325 509 325 509 325 430 c 0,32,33
 325 319 325 319 378.5 253.5 c 128,-1,34
 432 188 432 188 535 188 c 0,18,19
EndSplineSet
Substitution2: "Single Substitution lookup 44 subtable" ordmasculine
Substitution2: "'sups' Superscript in Latin lookup 39 subtable" o.sups
Substitution2: "'subs' Subscript in Latin lookup 38 subtable" o.subs
Substitution2: "'sinf' Scientific Inferiors in Latin lookup 18 subtable" o.subs
AlternateSubs2: "'aalt' Access All Alternates in Latin lookup 1 subtable" ordmasculine o.sups o.subs
EndChar

StartChar: ohorn
Encoding: 417 417 765
Width: 1205
GlyphClass: 2
Flags: W
AnchorPoint: "Anchor-4" 1132 540 basechar 0
AnchorPoint: "Anchor-1" 694 1087 basechar 0
AnchorPoint: "Anchor-0" 514 0 basechar 0
LayerCount: 2
Fore
SplineSet
667 937 m 1,0,-1
 695 1106 l 1,1,2
 738 1105 738 1105 772.5 1102.5 c 128,-1,3
 807 1100 807 1100 840.5 1097 c 128,-1,4
 874 1094 874 1094 912 1092 c 128,-1,5
 950 1090 950 1090 999 1090 c 0,6,7
 1023 1090 1023 1090 1027 1113 c 2,8,-1
 1060 1311 l 1,9,-1
 1285 1311 l 1,10,-1
 1252 1115 l 2,11,12
 1241 1051 1241 1051 1208 1011 c 128,-1,13
 1175 971 1175 971 1125 951.5 c 128,-1,14
 1075 932 1075 932 1013 932 c 0,15,16
 927 932 927 932 840.5 934.5 c 128,-1,17
 754 937 754 937 667 937 c 1,0,-1
524 -23 m 256,18,19
 381 -23 381 -23 279.5 33.5 c 128,-1,20
 178 90 178 90 123 192.5 c 128,-1,21
 68 295 68 295 68 433 c 0,22,23
 68 566 68 566 110.5 687 c 128,-1,24
 153 808 153 808 234 902.5 c 128,-1,25
 315 997 315 997 428.5 1051.5 c 128,-1,26
 542 1106 542 1106 682 1106 c 0,27,28
 825 1106 825 1106 927.5 1049.5 c 128,-1,29
 1030 993 1030 993 1084.5 890 c 128,-1,30
 1139 787 1139 787 1139 649 c 0,31,32
 1139 517 1139 517 1097 396.5 c 128,-1,33
 1055 276 1055 276 974.5 181 c 128,-1,34
 894 86 894 86 780.5 31.5 c 128,-1,35
 667 -23 667 -23 524 -23 c 256,18,19
535 188 m 0,36,37
 622 188 622 188 687 230.5 c 128,-1,38
 752 273 752 273 795.5 342 c 128,-1,39
 839 411 839 411 861 493 c 128,-1,40
 883 575 883 575 883 652 c 0,41,42
 883 727 883 727 858.5 781 c 128,-1,43
 834 835 834 835 787 865.5 c 128,-1,44
 740 896 740 896 671 896 c 0,45,46
 586 896 586 896 521 853.5 c 128,-1,47
 456 811 456 811 412 742 c 128,-1,48
 368 673 368 673 346.5 591 c 128,-1,49
 325 509 325 509 325 430 c 0,50,51
 325 319 325 319 378.5 253.5 c 128,-1,52
 432 188 432 188 535 188 c 0,36,37
EndSplineSet
EndChar

StartChar: uni1EE1
Encoding: 7905 7905 795
Width: 1205
GlyphClass: 2
Flags: W
AnchorPoint: "Anchor-4" 1132 540 basechar 0
AnchorPoint: "Anchor-1" 759 1497 basechar 0
AnchorPoint: "Anchor-0" 514 0 basechar 0
LayerCount: 2
Fore
SplineSet
524 -23 m 256,0,1
 381 -23 381 -23 279.5 33.5 c 128,-1,2
 178 90 178 90 123 192.5 c 128,-1,3
 68 295 68 295 68 433 c 0,4,5
 68 566 68 566 110.5 687 c 128,-1,6
 153 808 153 808 234 902.5 c 128,-1,7
 315 997 315 997 428.5 1051.5 c 128,-1,8
 542 1106 542 1106 682 1106 c 0,9,10
 825 1106 825 1106 927.5 1049.5 c 128,-1,11
 1030 993 1030 993 1084.5 890 c 128,-1,12
 1139 787 1139 787 1139 649 c 0,13,14
 1139 517 1139 517 1097 396.5 c 128,-1,15
 1055 276 1055 276 974.5 181 c 128,-1,16
 894 86 894 86 780.5 31.5 c 128,-1,17
 667 -23 667 -23 524 -23 c 256,0,1
535 188 m 0,18,19
 622 188 622 188 687 230.5 c 128,-1,20
 752 273 752 273 795.5 342 c 128,-1,21
 839 411 839 411 861 493 c 128,-1,22
 883 575 883 575 883 652 c 0,23,24
 883 727 883 727 858.5 781 c 128,-1,25
 834 835 834 835 787 865.5 c 128,-1,26
 740 896 740 896 671 896 c 0,27,28
 586 896 586 896 521 853.5 c 128,-1,29
 456 811 456 811 412 742 c 128,-1,30
 368 673 368 673 346.5 591 c 128,-1,31
 325 509 325 509 325 430 c 0,32,33
 325 319 325 319 378.5 253.5 c 128,-1,34
 432 188 432 188 535 188 c 0,18,19
667 937 m 1,35,-1
 695 1106 l 1,36,37
 738 1105 738 1105 772.5 1102.5 c 128,-1,38
 807 1100 807 1100 840.5 1097 c 128,-1,39
 874 1094 874 1094 912 1092 c 128,-1,40
 950 1090 950 1090 999 1090 c 0,41,42
 1023 1090 1023 1090 1027 1113 c 2,43,-1
 1060 1311 l 1,44,-1
 1285 1311 l 1,45,-1
 1252 1115 l 2,46,47
 1241 1051 1241 1051 1208 1011 c 128,-1,48
 1175 971 1175 971 1125 951.5 c 128,-1,49
 1075 932 1075 932 1013 932 c 0,50,51
 927 932 927 932 840.5 934.5 c 128,-1,52
 754 937 754 937 667 937 c 1,35,-1
844 1277 m 0,53,54
 806 1277 806 1277 775.5 1290 c 128,-1,55
 745 1303 745 1303 720 1320 c 128,-1,56
 695 1337 695 1337 674 1349.5 c 128,-1,57
 653 1362 653 1362 635 1362 c 0,58,59
 608 1362 608 1362 591.5 1338.5 c 128,-1,60
 575 1315 575 1315 568 1282 c 1,61,-1
 438 1282 l 1,62,63
 457 1382 457 1382 509.5 1440 c 128,-1,64
 562 1498 562 1498 639 1498 c 0,65,66
 677 1498 677 1498 706.5 1484.5 c 128,-1,67
 736 1471 736 1471 759.5 1454.5 c 128,-1,68
 783 1438 783 1438 804 1425 c 128,-1,69
 825 1412 825 1412 847 1412 c 0,70,71
 875 1412 875 1412 890.5 1432.5 c 128,-1,72
 906 1453 906 1453 916 1493 c 1,73,-1
 1043 1493 l 1,74,75
 1024 1391 1024 1391 970 1334 c 128,-1,76
 916 1277 916 1277 844 1277 c 0,53,54
EndSplineSet
Ligature2: "'ccmp' Glyph Composition/Decomposition in Latin lookup 6 subtable" ohorn tildecomb
EndChar

StartChar: obar
Encoding: 629 629 808
Width: 1207
GlyphClass: 2
Flags: W
AnchorPoint: "Anchor-4" 1132 540 basechar 0
AnchorPoint: "Anchor-1" 694 1087 basechar 0
AnchorPoint: "Anchor-0" 514 0 basechar 0
LayerCount: 2
Fore
SplineSet
989 619 m 1,0,-1
 963 468 l 1,1,-1
 217 468 l 1,2,-1
 243 619 l 1,3,-1
 989 619 l 1,0,-1
524 -23 m 256,4,5
 381 -23 381 -23 279.5 33.5 c 128,-1,6
 178 90 178 90 123 192.5 c 128,-1,7
 68 295 68 295 68 433 c 0,8,9
 68 566 68 566 110.5 687 c 128,-1,10
 153 808 153 808 234 902.5 c 128,-1,11
 315 997 315 997 428.5 1051.5 c 128,-1,12
 542 1106 542 1106 682 1106 c 0,13,14
 825 1106 825 1106 927.5 1049.5 c 128,-1,15
 1030 993 1030 993 1084.5 890 c 128,-1,16
 1139 787 1139 787 1139 649 c 0,17,18
 1139 517 1139 517 1097 396.5 c 128,-1,19
 1055 276 1055 276 974.5 181 c 128,-1,20
 894 86 894 86 780.5 31.5 c 128,-1,21
 667 -23 667 -23 524 -23 c 256,4,5
535 188 m 0,22,23
 622 188 622 188 687 230.5 c 128,-1,24
 752 273 752 273 795.5 342 c 128,-1,25
 839 411 839 411 861 493 c 128,-1,26
 883 575 883 575 883 652 c 0,27,28
 883 727 883 727 858.5 781 c 128,-1,29
 834 835 834 835 787 865.5 c 128,-1,30
 740 896 740 896 671 896 c 0,31,32
 586 896 586 896 521 853.5 c 128,-1,33
 456 811 456 811 412 742 c 128,-1,34
 368 673 368 673 346.5 591 c 128,-1,35
 325 509 325 509 325 430 c 0,36,37
 325 319 325 319 378.5 253.5 c 128,-1,38
 432 188 432 188 535 188 c 0,22,23
EndSplineSet
EndChar

StartChar: oe.sc
Encoding: 60954 60954 812
Width: 1555
GlyphClass: 2
Flags: W
AnchorPoint: "Anchor-4" 1418 0 basechar 0
AnchorPoint: "Anchor-3" 1031 0 basechar 0
AnchorPoint: "Anchor-1" 1209 1087 basechar 0
AnchorPoint: "Anchor-0" 1029 0 basechar 0
LayerCount: 2
Fore
SplineSet
639 0 m 1,0,-1
 819 1087 l 1,1,-1
 1598 1087 l 1,2,-1
 1563 874 l 1,3,-1
 1039 874 l 1,4,-1
 1003 653 l 1,5,-1
 1486 653 l 1,6,-1
 1451 444 l 1,7,-1
 967 444 l 1,8,-1
 930 214 l 1,9,-1
 1452 214 l 1,10,-1
 1418 0 l 1,11,-1
 639 0 l 1,0,-1
508 0 m 2,12,13
 353 0 353 0 245.5 64 c 128,-1,14
 138 128 138 128 92.5 249.5 c 128,-1,15
 47 371 47 371 76 544 c 0,16,17
 103 715 103 715 189 836 c 128,-1,18
 275 957 275 957 402.5 1021.5 c 128,-1,19
 530 1086 530 1086 687 1087 c 2,20,-1
 940 1087 l 1,21,-1
 905 876 l 1,22,-1
 659 876 l 2,23,24
 573 876 573 876 506 841 c 128,-1,25
 439 806 439 806 394.5 732.5 c 128,-1,26
 350 659 350 659 330 543 c 0,27,28
 313 429 313 429 332 356 c 128,-1,29
 351 283 351 283 406.5 247.5 c 128,-1,30
 462 212 462 212 550 212 c 2,31,-1
 793 212 l 1,32,-1
 757 0 l 1,33,-1
 508 0 l 2,12,13
EndSplineSet
EndChar

StartChar: p
Encoding: 112 112 814
Width: 1240
GlyphClass: 2
Flags: W
AnchorPoint: "Anchor-1" 755 1087 basechar 0
AnchorPoint: "Anchor-0" 94 -414 basechar 0
LayerCount: 2
Fore
SplineSet
-34 -418 m 1,0,-1
 215 1087 l 1,1,-1
 466 1087 l 1,2,-1
 439 922 l 1,3,-1
 444 922 l 1,4,5
 478 973 478 973 527 1014.5 c 128,-1,6
 576 1056 576 1056 640.5 1080.5 c 128,-1,7
 705 1105 705 1105 785 1105 c 0,8,9
 903 1105 903 1105 990 1052.5 c 128,-1,10
 1077 1000 1077 1000 1125.5 901.5 c 128,-1,11
 1174 803 1174 803 1174 665 c 0,12,13
 1174 543 1174 543 1138 421 c 128,-1,14
 1102 299 1102 299 1032.5 199.5 c 128,-1,15
 963 100 963 100 861 39.5 c 128,-1,16
 759 -21 759 -21 627 -21 c 0,17,18
 540 -21 540 -21 480.5 7.5 c 128,-1,19
 421 36 421 36 383.5 81 c 128,-1,20
 346 126 346 126 328 176 c 1,21,-1
 320 176 l 1,22,-1
 222 -418 l 1,23,-1
 -34 -418 l 1,0,-1
568 192 m 0,24,25
 653 192 653 192 718 234.5 c 128,-1,26
 783 277 783 277 827.5 345.5 c 128,-1,27
 872 414 872 414 893.5 496 c 128,-1,28
 915 578 915 578 915 657 c 0,29,30
 915 768 915 768 863.5 831 c 128,-1,31
 812 894 812 894 713 894 c 0,32,33
 628 894 628 894 562 853 c 128,-1,34
 496 812 496 812 451.5 744.5 c 128,-1,35
 407 677 407 677 384 595.5 c 128,-1,36
 361 514 361 514 361 434 c 0,37,38
 361 322 361 322 414.5 257 c 128,-1,39
 468 192 468 192 568 192 c 0,24,25
EndSplineSet
Substitution2: "'sups' Superscript in Latin lookup 39 subtable" p.sups
Substitution2: "'subs' Subscript in Latin lookup 38 subtable" p.subs
Substitution2: "'sinf' Scientific Inferiors in Latin lookup 18 subtable" p.subs
AlternateSubs2: "'aalt' Access All Alternates in Latin lookup 1 subtable" p.sups p.subs
EndChar

StartChar: uni048F
Encoding: 1167 1167 815
Width: 1224
GlyphClass: 2
Flags: W
AnchorPoint: "Anchor-1" 759 1087 basechar 0
AnchorPoint: "Anchor-0" 97 -414 basechar 0
LayerCount: 2
Fore
SplineSet
731 436 m 1,0,-1
 1033 1 l 1,1,-1
 906 -94 l 1,2,-1
 606 341 l 1,3,-1
 731 436 l 1,0,-1
-31 -418 m 1,4,-1
 218 1087 l 1,5,-1
 470 1087 l 1,6,-1
 443 922 l 1,7,-1
 448 922 l 1,8,9
 481 973 481 973 530.5 1014.5 c 128,-1,10
 580 1056 580 1056 644 1080.5 c 128,-1,11
 708 1105 708 1105 789 1105 c 0,12,13
 906 1105 906 1105 993 1052.5 c 128,-1,14
 1080 1000 1080 1000 1129 901.5 c 128,-1,15
 1178 803 1178 803 1178 665 c 0,16,17
 1178 543 1178 543 1142 421 c 128,-1,18
 1106 299 1106 299 1036 199.5 c 128,-1,19
 966 100 966 100 864 39.5 c 128,-1,20
 762 -21 762 -21 630 -21 c 0,21,22
 544 -21 544 -21 484.5 7.5 c 128,-1,23
 425 36 425 36 387.5 81 c 128,-1,24
 350 126 350 126 332 176 c 1,25,-1
 324 176 l 1,26,-1
 226 -418 l 1,27,-1
 -31 -418 l 1,4,-1
571 192 m 0,28,29
 657 192 657 192 722 234.5 c 128,-1,30
 787 277 787 277 831 345.5 c 128,-1,31
 875 414 875 414 897 496 c 128,-1,32
 919 578 919 578 919 657 c 0,33,34
 919 768 919 768 867.5 831 c 128,-1,35
 816 894 816 894 716 894 c 0,36,37
 631 894 631 894 565.5 853 c 128,-1,38
 500 812 500 812 455 744.5 c 128,-1,39
 410 677 410 677 387.5 595.5 c 128,-1,40
 365 514 365 514 365 434 c 0,41,42
 365 322 365 322 418 257 c 128,-1,43
 471 192 471 192 571 192 c 0,28,29
EndSplineSet
EndChar

StartChar: uni01A5
Encoding: 421 421 816
Width: 1240
GlyphClass: 2
Flags: W
AnchorPoint: "Anchor-1" 755 1087 basechar 0
AnchorPoint: "Anchor-0" 94 -414 basechar 0
LayerCount: 2
Fore
SplineSet
181 880 m 1,0,-1
 215 1087 l 1,1,-1
 234 1202 l 2,2,3
 258 1347 258 1347 355.5 1422 c 128,-1,4
 453 1497 453 1497 620 1497 c 0,5,6
 663 1497 663 1497 698.5 1495.5 c 128,-1,7
 734 1494 734 1494 759 1490 c 1,8,-1
 725 1289 l 1,9,10
 707 1291 707 1291 679 1291.5 c 128,-1,11
 651 1292 651 1292 629 1292 c 0,12,13
 565 1292 565 1292 531.5 1270 c 128,-1,14
 498 1248 498 1248 490 1198 c 2,15,-1
 471 1087 l 1,16,-1
 437 880 l 1,17,-1
 181 880 l 1,0,-1
-34 -418 m 1,18,-1
 215 1087 l 1,19,-1
 466 1087 l 1,20,-1
 439 922 l 1,21,-1
 444 922 l 1,22,23
 478 973 478 973 527 1014.5 c 128,-1,24
 576 1056 576 1056 640.5 1080.5 c 128,-1,25
 705 1105 705 1105 785 1105 c 0,26,27
 903 1105 903 1105 990 1052.5 c 128,-1,28
 1077 1000 1077 1000 1125.5 901.5 c 128,-1,29
 1174 803 1174 803 1174 665 c 0,30,31
 1174 543 1174 543 1138 421 c 128,-1,32
 1102 299 1102 299 1032.5 199.5 c 128,-1,33
 963 100 963 100 861 39.5 c 128,-1,34
 759 -21 759 -21 627 -21 c 0,35,36
 540 -21 540 -21 480.5 7.5 c 128,-1,37
 421 36 421 36 383.5 81 c 128,-1,38
 346 126 346 126 328 176 c 1,39,-1
 320 176 l 1,40,-1
 222 -418 l 1,41,-1
 -34 -418 l 1,18,-1
568 192 m 0,42,43
 653 192 653 192 718 234.5 c 128,-1,44
 783 277 783 277 827.5 345.5 c 128,-1,45
 872 414 872 414 893.5 496 c 128,-1,46
 915 578 915 578 915 657 c 0,47,48
 915 768 915 768 863.5 831 c 128,-1,49
 812 894 812 894 713 894 c 0,50,51
 628 894 628 894 562 853 c 128,-1,52
 496 812 496 812 451.5 744.5 c 128,-1,53
 407 677 407 677 384 595.5 c 128,-1,54
 361 514 361 514 361 434 c 0,55,56
 361 322 361 322 414.5 257 c 128,-1,57
 468 192 468 192 568 192 c 0,42,43
EndSplineSet
EndChar

StartChar: q
Encoding: 113 113 820
Width: 1240
GlyphClass: 2
Flags: W
AnchorPoint: "Anchor-1" 711 1087 basechar 0
AnchorPoint: "Anchor-0" 828 -414 basechar 0
LayerCount: 2
Fore
SplineSet
956 -418 m 1,0,-1
 699 -418 l 1,1,-1
 796 162 l 1,2,-1
 788 162 l 1,3,4
 753 110 753 110 705.5 68.5 c 128,-1,5
 658 27 658 27 596 3 c 128,-1,6
 534 -21 534 -21 456 -21 c 0,7,8
 336 -21 336 -21 249 32 c 128,-1,9
 162 85 162 85 114 183.5 c 128,-1,10
 66 282 66 282 66 418 c 0,11,12
 66 545 66 545 103 667.5 c 128,-1,13
 140 790 140 790 210.5 888.5 c 128,-1,14
 281 987 281 987 382.5 1046 c 128,-1,15
 484 1105 484 1105 612 1105 c 0,16,17
 700 1105 700 1105 760.5 1077.5 c 128,-1,18
 821 1050 821 1050 859.5 1005 c 128,-1,19
 898 960 898 960 918 910 c 1,20,-1
 924 910 l 1,21,-1
 954 1087 l 1,22,-1
 1205 1087 l 1,23,-1
 956 -418 l 1,0,-1
528 192 m 0,24,25
 612 192 612 192 677.5 232.5 c 128,-1,26
 743 273 743 273 788 341 c 128,-1,27
 833 409 833 409 856.5 490.5 c 128,-1,28
 880 572 880 572 880 653 c 0,29,30
 880 765 880 765 826.5 829.5 c 128,-1,31
 773 894 773 894 672 894 c 0,32,33
 588 894 588 894 523.5 852.5 c 128,-1,34
 459 811 459 811 414.5 743 c 128,-1,35
 370 675 370 675 347.5 593.5 c 128,-1,36
 325 512 325 512 325 431 c 0,37,38
 325 319 325 319 377 255.5 c 128,-1,39
 429 192 429 192 528 192 c 0,24,25
EndSplineSet
Substitution2: "'sups' Superscript in Latin lookup 39 subtable" q.sups
Substitution2: "'subs' Subscript in Latin lookup 38 subtable" q.subs
Substitution2: "'sinf' Scientific Inferiors in Latin lookup 18 subtable" q.subs
AlternateSubs2: "'aalt' Access All Alternates in Latin lookup 1 subtable" q.sups q.subs
EndChar

StartChar: uni02A0
Encoding: 672 672 821
Width: 1240
GlyphClass: 2
Flags: W
AnchorPoint: "Anchor-1" 711 1087 basechar 0
AnchorPoint: "Anchor-0" 828 -414 basechar 0
LayerCount: 2
Fore
SplineSet
915 880 m 1,0,-1
 949 1087 l 1,1,-1
 968 1202 l 2,2,3
 992 1347 992 1347 1089.5 1422 c 128,-1,4
 1187 1497 1187 1497 1354 1497 c 0,5,6
 1398 1497 1398 1497 1433 1495.5 c 128,-1,7
 1468 1494 1468 1494 1493 1490 c 1,8,-1
 1460 1289 l 1,9,10
 1441 1291 1441 1291 1413.5 1291.5 c 128,-1,11
 1386 1292 1386 1292 1363 1292 c 0,12,13
 1299 1292 1299 1292 1265.5 1270 c 128,-1,14
 1232 1248 1232 1248 1224 1198 c 2,15,-1
 1205 1087 l 1,16,-1
 1171 880 l 1,17,-1
 915 880 l 1,0,-1
956 -418 m 1,18,-1
 699 -418 l 1,19,-1
 796 162 l 1,20,-1
 788 162 l 1,21,22
 753 110 753 110 705.5 68.5 c 128,-1,23
 658 27 658 27 596 3 c 128,-1,24
 534 -21 534 -21 456 -21 c 0,25,26
 336 -21 336 -21 249 32 c 128,-1,27
 162 85 162 85 114 183.5 c 128,-1,28
 66 282 66 282 66 418 c 0,29,30
 66 545 66 545 103 667.5 c 128,-1,31
 140 790 140 790 210.5 888.5 c 128,-1,32
 281 987 281 987 382.5 1046 c 128,-1,33
 484 1105 484 1105 612 1105 c 0,34,35
 700 1105 700 1105 760.5 1077.5 c 128,-1,36
 821 1050 821 1050 859.5 1005 c 128,-1,37
 898 960 898 960 918 910 c 1,38,-1
 924 910 l 1,39,-1
 954 1087 l 1,40,-1
 1205 1087 l 1,41,-1
 956 -418 l 1,18,-1
528 192 m 0,42,43
 612 192 612 192 677.5 232.5 c 128,-1,44
 743 273 743 273 788 341 c 128,-1,45
 833 409 833 409 856.5 490.5 c 128,-1,46
 880 572 880 572 880 653 c 0,47,48
 880 765 880 765 826.5 829.5 c 128,-1,49
 773 894 773 894 672 894 c 0,50,51
 588 894 588 894 523.5 852.5 c 128,-1,52
 459 811 459 811 414.5 743 c 128,-1,53
 370 675 370 675 347.5 593.5 c 128,-1,54
 325 512 325 512 325 431 c 0,55,56
 325 319 325 319 377 255.5 c 128,-1,57
 429 192 429 192 528 192 c 0,42,43
EndSplineSet
EndChar

StartChar: qrthook
Encoding: 587 587 822
Width: 1240
GlyphClass: 2
Flags: W
AnchorPoint: "Anchor-4" 1025 0 basechar 0
AnchorPoint: "Anchor-1" 709 1087 basechar 0
AnchorPoint: "Anchor-0" 525 0 basechar 0
LayerCount: 2
Fore
SplineSet
1030 -425 m 0,0,1
 865 -425 865 -425 795.5 -350 c 128,-1,2
 726 -275 726 -275 750 -129 c 2,3,-1
 803 194 l 1,4,-1
 1057 194 l 1,5,-1
 1004 -125 l 2,6,7
 996 -175 996 -175 1020 -197.5 c 128,-1,8
 1044 -220 1044 -220 1109 -220 c 0,9,10
 1131 -220 1131 -220 1158.5 -219 c 128,-1,11
 1186 -218 1186 -218 1205 -217 c 1,12,-1
 1172 -418 l 1,13,14
 1146 -421 1146 -421 1110 -423 c 128,-1,15
 1074 -425 1074 -425 1030 -425 c 0,0,1
441 -21 m 0,16,17
 307 -21 307 -21 214.5 47.5 c 128,-1,18
 122 116 122 116 84.5 243 c 128,-1,19
 47 370 47 370 76 544 c 0,20,21
 104 718 104 718 185 843.5 c 128,-1,22
 266 969 266 969 381 1037 c 128,-1,23
 496 1105 496 1105 628 1105 c 0,24,25
 711 1105 711 1105 769 1079 c 128,-1,26
 827 1053 827 1053 863 1011.5 c 128,-1,27
 899 970 899 970 917 921 c 1,28,-1
 924 921 l 1,29,-1
 952 1087 l 1,30,-1
 1205 1087 l 1,31,-1
 1025 0 l 1,32,-1
 774 0 l 1,33,-1
 802 168 l 1,34,-1
 792 168 l 1,35,36
 757 117 757 117 706.5 74 c 128,-1,37
 656 31 656 31 590.5 5 c 128,-1,38
 525 -21 525 -21 441 -21 c 0,16,17
543 192 m 0,39,40
 627 192 627 192 694 236 c 128,-1,41
 761 280 761 280 806.5 359 c 128,-1,42
 852 438 852 438 869 544 c 0,43,44
 886 651 886 651 867 729 c 128,-1,45
 848 807 848 807 795 850.5 c 128,-1,46
 742 894 742 894 658 894 c 0,47,48
 575 894 575 894 509 850.5 c 128,-1,49
 443 807 443 807 398.5 728.5 c 128,-1,50
 354 650 354 650 336 544 c 0,51,52
 319 438 319 438 337.5 358.5 c 128,-1,53
 356 279 356 279 408 235.5 c 128,-1,54
 460 192 460 192 543 192 c 0,39,40
EndSplineSet
EndChar

StartChar: r
Encoding: 114 114 823
Width: 772
GlyphClass: 2
Flags: W
AnchorPoint: "Anchor-1" 516 1087 basechar 0
AnchorPoint: "Anchor-0" 163 0 basechar 0
LayerCount: 2
Fore
SplineSet
36 0 m 1,0,-1
 216 1087 l 1,1,-1
 463 1087 l 1,2,-1
 433 906 l 1,3,-1
 441 906 l 1,4,5
 486 1001 486 1001 563 1050.5 c 128,-1,6
 640 1100 640 1100 739 1100 c 0,7,8
 763 1100 763 1100 786.5 1098 c 128,-1,9
 810 1096 810 1096 827 1095 c 1,10,-1
 788 863 l 1,11,12
 773 867 773 867 738.5 870 c 128,-1,13
 704 873 704 873 670 873 c 0,14,15
 603 873 603 873 545 844 c 128,-1,16
 487 815 487 815 448 760 c 128,-1,17
 409 705 409 705 396 628 c 2,18,-1
 292 0 l 1,19,-1
 36 0 l 1,0,-1
EndSplineSet
Substitution2: "'smcp' Lowercase to Small Capitals in Latin lookup 68 subtable" r.sc
Substitution2: "'c2sc' Capitals to Small Capitals in Latin lookup 67 subtable" r.sc
Substitution2: "'sups' Superscript in Latin lookup 39 subtable" r.sups
Substitution2: "'subs' Subscript in Latin lookup 38 subtable" r.subs
Substitution2: "'sinf' Scientific Inferiors in Latin lookup 18 subtable" r.subs
AlternateSubs2: "'aalt' Access All Alternates in Latin lookup 1 subtable" r.sc r.sups r.subs
EndChar

StartChar: rrthook
Encoding: 57437 57437 824
Width: 772
GlyphClass: 2
Flags: W
AnchorPoint: "Anchor-1" 516 1087 basechar 0
AnchorPoint: "Anchor-0" 163 0 basechar 0
LayerCount: 2
Fore
SplineSet
297 -425 m 0,0,1
 133 -425 133 -425 61.5 -350.5 c 128,-1,2
 -10 -276 -10 -276 14 -129 c 2,3,-1
 35 0 l 1,4,-1
 292 0 l 1,5,-1
 271 -125 l 2,6,7
 262 -174 262 -174 286 -197 c 128,-1,8
 310 -220 310 -220 375 -220 c 0,9,10
 398 -220 398 -220 425.5 -219 c 128,-1,11
 453 -218 453 -218 472 -217 c 1,12,-1
 439 -418 l 1,13,14
 412 -421 412 -421 376.5 -423 c 128,-1,15
 341 -425 341 -425 297 -425 c 0,0,1
36 0 m 1,16,-1
 216 1087 l 1,17,-1
 463 1087 l 1,18,-1
 433 906 l 1,19,-1
 441 906 l 1,20,21
 486 1001 486 1001 563 1050.5 c 128,-1,22
 640 1100 640 1100 739 1100 c 0,23,24
 763 1100 763 1100 786.5 1098 c 128,-1,25
 810 1096 810 1096 827 1095 c 1,26,-1
 788 863 l 1,27,28
 773 867 773 867 738.5 870 c 128,-1,29
 704 873 704 873 670 873 c 0,30,31
 603 873 603 873 545 844 c 128,-1,32
 487 815 487 815 448 760 c 128,-1,33
 409 705 409 705 396 628 c 2,34,-1
 292 0 l 1,35,-1
 36 0 l 1,16,-1
EndSplineSet
EndChar

StartChar: rturn
Encoding: 633 633 826
Width: 772
GlyphClass: 2
Flags: W
AnchorPoint: "Anchor-1" 608 1087 basechar 0
AnchorPoint: "Anchor-0" 315 0 basechar 0
LayerCount: 2
Fore
SplineSet
737 1087 m 1,0,-1
 557 0 l 1,1,-1
 310 0 l 1,2,-1
 340 181 l 1,3,-1
 332 181 l 1,4,5
 287 88 287 88 210 37.5 c 128,-1,6
 133 -13 133 -13 33 -13 c 0,7,8
 10 -13 10 -13 -13.5 -10.5 c 128,-1,9
 -37 -8 -37 -8 -54 -6 c 1,10,-1
 -15 224 l 1,11,12
 1 222 1 222 35 218 c 128,-1,13
 69 214 69 214 104 214 c 0,14,15
 170 214 170 214 227.5 243.5 c 128,-1,16
 285 273 285 273 324.5 328 c 128,-1,17
 364 383 364 383 377 459 c 2,18,-1
 481 1087 l 1,19,-1
 737 1087 l 1,0,-1
EndSplineSet
EndChar

StartChar: rturnrthook
Encoding: 635 635 827
Width: 772
GlyphClass: 2
Flags: W
AnchorPoint: "Anchor-1" 608 1087 basechar 0
AnchorPoint: "Anchor-0" 315 0 basechar 0
LayerCount: 2
Fore
SplineSet
545 -425 m 0,0,1
 392 -425 392 -425 326 -353 c 128,-1,2
 260 -281 260 -281 283 -140 c 2,3,-1
 306 0 l 1,4,-1
 554 0 l 1,5,-1
 532 -130 l 2,6,7
 525 -177 525 -177 547.5 -199 c 128,-1,8
 570 -221 570 -221 633 -221 c 0,9,10
 656 -221 656 -221 685.5 -220.5 c 128,-1,11
 715 -220 715 -220 734 -219 c 1,12,-1
 701 -418 l 1,13,14
 683 -420 683 -420 658 -421.5 c 128,-1,15
 633 -423 633 -423 604 -424 c 128,-1,16
 575 -425 575 -425 545 -425 c 0,0,1
737 1087 m 1,17,-1
 557 0 l 1,18,-1
 310 0 l 1,19,-1
 340 181 l 1,20,-1
 332 181 l 1,21,22
 287 88 287 88 210 37.5 c 128,-1,23
 133 -13 133 -13 33 -13 c 0,24,25
 10 -13 10 -13 -13.5 -10.5 c 128,-1,26
 -37 -8 -37 -8 -54 -6 c 1,27,-1
 -15 224 l 1,28,29
 1 222 1 222 35 218 c 128,-1,30
 69 214 69 214 104 214 c 0,31,32
 170 214 170 214 227.5 243.5 c 128,-1,33
 285 273 285 273 324.5 328 c 128,-1,34
 364 383 364 383 377 459 c 2,35,-1
 481 1087 l 1,36,-1
 737 1087 l 1,17,-1
EndSplineSet
EndChar

StartChar: rfishhookrev
Encoding: 639 639 828
Width: 738
Flags: W
LayerCount: 2
Fore
SplineSet
266 0 m 1,0,-1
 376 667 l 2,1,2
 390 747 390 747 370 792 c 128,-1,3
 350 837 350 837 307 855.5 c 128,-1,4
 264 874 264 874 206 874 c 0,5,6
 171 874 171 874 141 873 c 128,-1,7
 111 872 111 872 91 870 c 1,8,-1
 128 1091 l 1,9,10
 139 1093 139 1093 159 1094 c 128,-1,11
 179 1095 179 1095 205.5 1096 c 128,-1,12
 232 1097 232 1097 261 1097 c 0,13,14
 353 1097 353 1097 430 1074 c 128,-1,15
 507 1051 507 1051 559.5 1001.5 c 128,-1,16
 612 952 612 952 633 873 c 128,-1,17
 654 794 654 794 635 682 c 2,18,-1
 522 0 l 1,19,-1
 266 0 l 1,0,-1
EndSplineSet
EndChar

StartChar: uni027E
Encoding: 638 638 829
Width: 737
Flags: W
LayerCount: 2
Fore
SplineSet
35 0 m 1,0,-1
 148 682 l 2,1,2
 172 831 172 831 246.5 922 c 128,-1,3
 321 1013 321 1013 428 1055 c 128,-1,4
 535 1097 535 1097 659 1097 c 0,5,6
 688 1097 688 1097 714 1096 c 128,-1,7
 740 1095 740 1095 760 1094 c 128,-1,8
 780 1093 780 1093 790 1091 c 1,9,-1
 754 870 l 1,10,11
 735 872 735 872 705.5 873 c 128,-1,12
 676 874 676 874 641 874 c 0,13,14
 583 874 583 874 533.5 855 c 128,-1,15
 484 836 484 836 449.5 791 c 128,-1,16
 415 746 415 746 401 667 c 2,17,-1
 291 0 l 1,18,-1
 35 0 l 1,0,-1
EndSplineSet
EndChar

StartChar: rdescend
Encoding: 57438 57438 830
Width: 773
GlyphClass: 2
Flags: W
AnchorPoint: "Anchor-1" 517 1087 basechar 0
AnchorPoint: "Anchor-0" 165 0 basechar 0
LayerCount: 2
Fore
SplineSet
-34 -418 m 1,0,-1
 36 0 l 1,1,-1
 290 0 l 1,2,-1
 220 -418 l 1,3,-1
 -34 -418 l 1,0,-1
37 0 m 1,4,-1
 217 1087 l 1,5,-1
 465 1087 l 1,6,-1
 435 906 l 1,7,-1
 442 906 l 1,8,9
 487 1001 487 1001 564 1050.5 c 128,-1,10
 641 1100 641 1100 740 1100 c 0,11,12
 764 1100 764 1100 787.5 1098 c 128,-1,13
 811 1096 811 1096 828 1095 c 1,14,-1
 790 863 l 1,15,16
 774 867 774 867 740 870 c 128,-1,17
 706 873 706 873 671 873 c 0,18,19
 605 873 605 873 547 844 c 128,-1,20
 489 815 489 815 450 760 c 128,-1,21
 411 705 411 705 398 628 c 2,22,-1
 293 0 l 1,23,-1
 37 0 l 1,4,-1
EndSplineSet
EndChar

StartChar: r.sc
Encoding: 60955 60955 840
Width: 1035
GlyphClass: 2
Flags: W
AnchorPoint: "Anchor-1" 622 1087 basechar 0
AnchorPoint: "Anchor-0" 458 0 basechar 0
LayerCount: 2
Fore
SplineSet
36 0 m 1,0,-1
 216 1087 l 1,1,-1
 660 1087 l 2,2,3
 786 1087 786 1087 869 1043 c 128,-1,4
 952 999 952 999 988.5 917.5 c 128,-1,5
 1025 836 1025 836 1005 723 c 0,6,7
 987 613 987 613 923 533.5 c 128,-1,8
 859 454 859 454 759 411.5 c 128,-1,9
 659 369 659 369 531 369 c 2,10,-1
 250 369 l 1,11,-1
 283 574 l 1,12,-1
 541 574 l 2,13,14
 627 574 627 574 681.5 612 c 128,-1,15
 736 650 736 650 748 725 c 0,16,17
 761 799 761 799 720.5 838 c 128,-1,18
 680 877 680 877 592 877 c 2,19,-1
 437 877 l 1,20,-1
 291 0 l 1,21,-1
 36 0 l 1,0,-1
646 0 m 1,22,-1
 472 494 l 1,23,-1
 738 494 l 1,24,-1
 918 0 l 1,25,-1
 646 0 l 1,22,-1
EndSplineSet
EndChar

StartChar: rinv.sc
Encoding: 60956 60956 841
Width: 1142
Flags: W
LayerCount: 2
Fore
SplineSet
36 0 m 1,0,-1
 216 1087 l 1,1,-1
 462 1087 l 1,2,-1
 316 207 l 1,3,-1
 538 207 l 2,4,5
 653 207 653 207 711.5 246.5 c 128,-1,6
 770 286 770 286 784 365 c 0,7,8
 797 442 797 442 750 481 c 128,-1,9
 703 520 703 520 586 520 c 2,10,-1
 264 520 l 1,11,-1
 295 710 l 1,12,-1
 645 710 l 2,13,14
 861 710 861 710 963 617 c 128,-1,15
 1065 524 1065 524 1037 362 c 0,16,17
 1019 250 1019 250 954 169 c 128,-1,18
 889 88 889 88 783 44 c 128,-1,19
 677 0 677 0 535 0 c 2,20,-1
 36 0 l 1,0,-1
533 598 m 1,21,-1
 922 1087 l 1,22,-1
 1204 1087 l 1,23,-1
 809 598 l 1,24,-1
 533 598 l 1,21,-1
EndSplineSet
EndChar

StartChar: s
Encoding: 115 115 842
Width: 1080
GlyphClass: 2
Flags: W
AnchorPoint: "Anchor-3" 453 0 basechar 0
AnchorPoint: "Anchor-1" 631 1087 basechar 0
AnchorPoint: "Anchor-0" 451 0 basechar 0
LayerCount: 2
Fore
SplineSet
462 -24 m 0,0,1
 337 -24 337 -24 242.5 13 c 128,-1,2
 148 50 148 50 94.5 120.5 c 128,-1,3
 41 191 41 191 37 290 c 0,4,5
 37 297 37 297 37 303 c 128,-1,6
 37 309 37 309 37 315 c 1,7,-1
 284 329 l 1,8,9
 286 248 286 248 332.5 209 c 128,-1,10
 379 170 379 170 470 170 c 0,11,12
 533 170 533 170 585.5 189 c 128,-1,13
 638 208 638 208 672 241.5 c 128,-1,14
 706 275 706 275 708 320 c 0,15,16
 711 361 711 361 681 386.5 c 128,-1,17
 651 412 651 412 587 427 c 2,18,-1
 408 466 l 2,19,20
 269 496 269 496 200.5 569 c 128,-1,21
 132 642 132 642 139 753 c 0,22,23
 144 861 144 861 209.5 940.5 c 128,-1,24
 275 1020 275 1020 382.5 1063 c 128,-1,25
 490 1106 490 1106 620 1106 c 0,26,27
 802 1106 802 1106 905.5 1028.5 c 128,-1,28
 1009 951 1009 951 1019 822 c 0,29,30
 1020 812 1020 812 1020.5 802 c 128,-1,31
 1021 792 1021 792 1020 782 c 1,32,-1
 785 768 l 1,33,34
 785 835 785 835 743 875 c 128,-1,35
 701 915 701 915 617 915 c 0,36,37
 559 915 559 915 509.5 895.5 c 128,-1,38
 460 876 460 876 429.5 842.5 c 128,-1,39
 399 809 399 809 396 766 c 0,40,41
 393 725 393 725 422 699 c 128,-1,42
 451 673 451 673 518 658 c 2,43,-1
 702 618 l 2,44,45
 843 588 843 588 910.5 519.5 c 128,-1,46
 978 451 978 451 971 344 c 0,47,48
 968 260 968 260 926.5 192 c 128,-1,49
 885 124 885 124 815 76 c 128,-1,50
 745 28 745 28 655 2 c 128,-1,51
 565 -24 565 -24 462 -24 c 0,0,1
EndSplineSet
Substitution2: "'sups' Superscript in Latin lookup 39 subtable" s.sups
Substitution2: "'subs' Subscript in Latin lookup 38 subtable" s.subs
Substitution2: "'sinf' Scientific Inferiors in Latin lookup 18 subtable" s.subs
AlternateSubs2: "'aalt' Access All Alternates in Latin lookup 1 subtable" s.sups s.subs
EndChar

